{"glyphs":{"0":{"ha":751,"x_min":0,"x_max":0,"o":"m 354 0 b 497 50 408 0 461 24 b 689 533 643 156 689 389 b 560 924 689 657 661 821 b 399 1000 525 961 468 1000 b 171 864 304 1000 225 938 b 61 469 88 750 61 599 b 354 0 61 292 131 0 z m 232 208 b 174 465 189 288 174 381 b 289 832 174 581 210 742 b 389 890 317 867 350 890 b 479 789 440 890 465 831 b 531 467 519 688 531 574 b 444 160 531 371 515 236 b 361 113 424 136 394 113 b 232 208 306 113 256 168 z "},"1":{"ha":519,"x_min":0,"x_max":0,"o":"m 19 735 b 82 679 19 710 42 679 b 207 743 111 679 161 710 b 296 810 240 767 272 792 b 246 313 274 644 246 479 b 276 49 246 229 251 131 b 342 3 285 22 303 3 b 419 65 386 3 419 32 b 418 78 419 69 419 74 b 394 310 403 156 394 232 b 432 744 394 456 414 600 b 453 938 440 810 453 874 b 401 1006 453 969 439 1006 b 346 988 382 1006 363 997 b 219 893 301 960 260 928 b 135 831 192 871 165 850 b 78 800 122 822 100 813 b 26 761 57 788 33 774 b 19 735 21 753 19 743 z "},"2":{"ha":706,"x_min":0,"x_max":0,"o":"m 50 64 b 147 -14 50 32 106 -14 l 154 -14 b 158 -12 156 -12 157 -12 b 313 11 210 -7 261 3 b 463 26 361 19 411 26 b 553 7 497 26 533 24 b 594 -10 564 -1 574 -10 b 654 49 636 -10 654 25 b 456 139 654 128 513 139 b 253 121 388 139 319 133 b 488 432 319 210 411 319 b 635 793 569 554 635 681 b 422 1008 635 892 581 1008 b 96 790 296 1008 151 896 b 60 681 78 760 60 715 b 117 618 60 660 71 618 b 178 678 160 618 175 657 b 272 825 183 732 224 786 b 433 890 304 853 390 890 b 490 825 479 890 490 863 b 326 463 490 717 389 544 b 168 264 300 428 231 346 b 50 64 108 182 50 99 z "},"3":{"ha":754,"x_min":0,"x_max":0,"o":"m 40 133 b 100 64 40 104 68 81 b 336 7 171 26 257 7 b 696 318 565 7 696 153 b 536 569 696 415 653 518 b 640 781 606 625 640 701 b 415 996 640 878 564 996 b 121 835 293 996 175 914 b 99 775 111 818 99 796 b 156 718 99 753 114 718 b 213 754 186 718 204 738 b 419 883 249 819 324 883 b 496 797 478 883 496 840 l 496 790 b 271 585 483 667 378 617 b 207 515 238 574 207 546 b 269 468 207 486 233 468 b 325 471 288 468 306 471 b 474 435 378 471 432 461 b 560 281 531 400 560 338 b 338 122 560 179 467 122 b 135 176 264 122 194 142 b 100 188 125 182 117 188 b 40 133 60 188 40 157 z "},"4":{"ha":729,"x_min":0,"x_max":0,"o":"m 42 414 b 367 224 42 267 214 224 b 457 229 397 224 426 226 b 483 46 458 179 465 83 b 554 7 494 22 524 7 b 628 63 592 7 628 31 b 625 75 628 65 626 71 b 607 167 615 104 610 136 b 603 254 604 194 604 224 b 628 260 611 256 619 258 b 657 272 638 264 649 268 b 689 322 676 282 689 297 b 633 379 689 342 675 379 b 608 375 625 379 617 376 b 601 372 606 374 603 374 b 594 550 597 431 594 492 l 594 572 b 521 626 593 604 558 626 b 447 563 482 626 447 603 l 447 549 b 456 340 447 479 453 410 b 364 333 425 336 394 333 b 192 378 310 333 229 347 b 172 425 176 390 172 404 b 403 796 172 532 332 717 b 447 847 418 814 432 829 b 479 885 457 861 468 874 b 486 890 482 886 485 888 b 499 906 490 893 494 899 l 499 911 b 500 915 500 913 500 914 b 404 996 500 950 457 996 b 369 986 390 996 379 992 b 260 856 347 976 276 881 b 42 414 176 746 42 558 z "},"5":{"ha":732,"x_min":0,"x_max":0,"o":"m 60 144 b 78 121 65 136 72 129 b 308 4 126 60 207 4 b 675 385 510 4 675 188 b 332 689 675 592 535 689 b 215 678 292 689 253 685 b 279 872 231 743 254 808 b 418 854 325 861 371 854 b 619 919 468 854 596 871 b 626 943 624 926 626 935 b 569 1000 626 964 610 1000 b 542 994 558 1000 550 997 b 414 969 497 978 461 969 b 278 992 368 969 321 978 b 239 999 267 994 254 999 b 185 960 210 999 190 974 b 161 896 176 938 169 917 b 113 757 143 849 125 804 b 90 619 100 713 90 667 b 158 551 90 593 110 551 b 179 554 167 551 174 553 b 325 576 228 567 275 576 b 503 390 467 576 503 492 b 444 201 503 326 486 257 b 338 126 421 171 379 136 b 308 124 329 125 318 124 b 167 194 251 124 199 158 b 160 201 164 197 163 200 b 153 208 158 204 156 207 b 133 221 149 214 142 217 b 113 225 126 224 119 225 b 51 174 75 225 51 199 b 60 144 51 164 56 154 z "},"6":{"ha":761,"x_min":0,"x_max":0,"o":"m 54 406 b 378 -7 54 267 132 -7 b 711 318 554 -7 711 138 b 388 636 711 460 603 636 b 253 613 340 636 296 628 b 526 876 300 719 393 829 b 589 946 560 889 589 914 b 540 993 589 965 576 993 b 397 947 501 993 428 963 b 54 406 206 858 54 611 z m 211 426 l 211 438 b 213 449 211 442 211 444 b 269 494 215 461 250 485 b 379 525 301 513 342 525 b 553 319 506 525 553 406 b 397 113 553 242 511 113 b 211 426 246 113 211 329 z "},"7":{"ha":608,"x_min":0,"x_max":0,"o":"m 107 57 b 172 -12 107 25 113 -12 b 264 53 221 -12 261 13 b 383 454 274 176 338 340 b 493 708 417 540 451 625 b 549 815 510 739 531 776 b 578 925 564 853 578 893 b 481 997 578 981 542 997 b 211 981 390 997 301 981 b 156 985 192 981 172 981 b 143 990 151 986 147 988 b 128 997 138 992 132 994 b 92 1008 118 1003 107 1008 b 31 950 51 1008 31 974 b 181 872 31 886 128 874 b 317 868 226 871 271 868 b 407 871 346 868 376 868 b 128 185 307 644 194 421 b 107 57 118 144 107 100 z "},"8":{"ha":665,"x_min":0,"x_max":0,"o":"m 89 139 b 331 7 126 61 222 7 b 600 279 519 7 600 160 b 493 515 600 363 567 454 b 576 760 543 590 576 675 b 326 1006 576 868 493 1006 b 81 774 169 1006 81 876 b 206 544 81 688 135 606 b 65 246 117 467 65 349 b 89 139 65 211 71 171 z m 183 257 b 303 475 183 332 233 421 b 365 431 325 458 346 444 b 471 257 426 382 471 344 b 328 122 471 181 428 122 b 183 257 226 122 183 182 z m 243 800 b 328 890 243 846 267 890 b 463 756 406 890 463 832 b 397 585 463 697 435 636 b 243 800 313 644 243 707 z "},"9":{"ha":764,"x_min":0,"x_max":0,"o":"m 169 39 b 225 -7 169 14 189 -7 b 247 -4 232 -7 240 -6 b 504 138 347 19 442 74 b 707 588 625 260 707 432 b 382 993 707 725 622 993 b 50 668 204 993 50 849 b 371 350 50 526 156 350 b 507 374 418 350 465 358 b 233 110 453 251 360 154 b 169 39 197 96 169 71 z m 207 668 b 363 874 207 746 250 874 b 550 557 515 874 550 656 l 550 547 b 549 539 550 543 550 540 b 492 492 544 526 510 500 b 379 461 460 474 418 461 b 207 668 256 461 207 582 z "},"\u0000":{"ha":0,"x_min":0,"x_max":0,"o":""},"\r":{"ha":0,"x_min":0,"x_max":0,"o":""}," ":{"ha":347,"x_min":0,"x_max":0,"o":""},"\n":{"ha":0,"x_min":0,"x_max":0,"o":""},"!":{"ha":322,"x_min":0,"x_max":0,"o":"m 99 60 b 169 -11 99 31 119 -11 b 257 75 219 -11 257 47 b 188 144 257 103 236 144 b 99 60 135 144 99 89 z m 78 303 b 157 214 82 256 100 214 b 225 272 199 214 225 242 b 224 285 225 276 225 281 b 211 471 211 333 211 419 b 249 928 211 622 232 776 l 249 932 b 175 992 249 964 218 992 b 111 954 144 992 121 976 b 106 928 108 946 106 936 b 104 903 104 919 104 911 b 83 710 100 839 89 775 b 71 474 76 632 71 553 b 76 342 71 429 74 385 b 78 303 78 329 78 317 z "},"\"":{"ha":438,"x_min":0,"x_max":0,"o":"m 44 743 b 128 669 44 704 67 669 b 199 722 163 669 199 697 b 197 736 199 728 197 732 b 200 861 197 778 199 819 b 206 942 200 889 200 917 b 207 951 206 944 207 949 b 128 1008 207 986 167 1008 b 65 981 103 1008 79 996 b 46 865 53 967 49 914 b 44 743 44 815 44 761 z m 231 744 b 315 671 231 706 253 671 b 385 724 349 671 385 697 b 383 738 385 728 383 733 b 386 861 383 779 385 819 b 392 942 386 889 386 917 b 393 953 392 946 393 949 b 315 1010 393 988 354 1010 b 251 982 289 1010 265 997 b 232 867 239 968 235 915 b 231 744 231 815 231 763 z "},"‟":{"ha":438,"x_min":0,"x_max":0,"o":"m 44 743 b 128 669 44 704 67 669 b 199 722 163 669 199 697 b 197 736 199 728 197 732 b 200 861 197 778 199 819 b 206 942 200 889 200 917 b 207 951 206 944 207 949 b 128 1008 207 986 167 1008 b 65 981 103 1008 79 996 b 46 865 53 967 49 914 b 44 743 44 815 44 761 z m 231 744 b 315 671 231 706 253 671 b 385 724 349 671 385 697 b 383 738 385 728 383 733 b 386 861 383 779 385 819 b 392 942 386 889 386 917 b 393 953 392 946 393 949 b 315 1010 393 988 354 1010 b 251 982 289 1010 265 997 b 232 867 239 968 235 915 b 231 744 231 815 231 763 z "},"#":{"ha":888,"x_min":0,"x_max":0,"o":"m 125 100 b 201 43 125 65 161 43 b 285 103 244 43 285 67 l 285 108 b 283 113 283 110 283 111 b 282 117 282 114 282 115 l 282 119 b 313 274 288 171 300 222 l 444 269 b 431 204 440 249 435 226 b 421 131 425 178 421 154 b 504 72 421 92 463 72 b 583 143 556 72 583 108 b 578 165 583 150 582 158 b 600 269 585 199 592 235 b 733 275 644 269 689 272 b 797 329 768 278 797 300 b 722 385 797 361 763 385 b 629 383 692 385 660 385 b 675 547 644 438 661 493 b 761 543 704 546 733 543 b 842 600 799 543 842 564 b 765 656 842 632 803 656 b 707 658 744 656 726 657 b 735 776 717 699 725 738 b 740 808 736 786 738 797 b 749 836 742 818 744 828 b 753 846 750 840 751 843 b 754 858 754 849 754 853 b 676 919 754 893 719 919 b 610 890 649 919 625 908 b 578 781 603 882 590 829 b 551 669 567 736 557 690 b 419 674 508 672 464 674 b 444 786 428 711 436 749 b 450 815 446 796 447 807 b 458 843 451 825 454 835 b 461 847 458 844 458 846 b 467 853 463 849 465 850 b 476 879 472 858 476 865 b 397 935 476 913 438 935 b 308 869 346 935 318 901 b 261 669 290 806 275 735 b 226 667 250 668 239 667 b 206 669 221 667 214 668 b 193 671 201 671 197 671 b 181 672 189 672 185 672 b 83 608 140 672 83 649 b 160 550 83 576 118 550 b 231 554 183 550 207 554 b 186 392 215 500 200 446 b 179 393 183 392 182 392 b 164 399 174 394 168 397 b 121 408 151 404 139 408 b 44 351 82 408 44 385 b 157 281 44 303 113 285 b 136 196 150 253 143 225 b 125 100 131 164 125 132 z m 340 385 b 389 561 356 443 372 501 l 408 561 b 522 557 446 561 485 560 b 472 382 506 499 489 440 b 340 385 429 382 385 383 z "},"$":{"ha":714,"x_min":0,"x_max":0,"o":"m 68 104 b 335 -7 125 36 232 -4 b 342 -149 335 -53 335 -101 b 403 -196 346 -169 365 -196 b 461 -142 440 -196 461 -160 l 461 -139 b 453 6 457 -90 453 -43 b 654 265 600 43 654 156 b 450 576 654 396 565 490 b 447 872 450 675 450 774 b 514 796 481 854 501 826 b 572 751 521 778 538 751 b 631 808 614 751 631 785 b 624 844 631 819 628 832 b 443 1000 597 921 538 972 b 440 1067 443 1015 443 1042 b 414 1139 438 1094 432 1126 b 376 1149 404 1144 392 1149 b 319 1090 333 1149 319 1114 b 324 1010 319 1064 322 1036 b 86 793 165 1001 86 910 b 333 467 86 639 200 557 b 335 107 333 347 335 226 b 151 188 260 111 193 140 b 122 210 144 194 135 204 b 104 213 117 211 110 213 b 49 151 61 213 49 169 b 68 104 49 135 57 118 z m 453 125 b 451 378 453 210 453 293 b 535 225 499 333 535 281 b 453 125 535 178 503 147 z m 219 819 b 328 897 219 869 268 892 b 332 664 331 818 332 742 b 219 819 275 707 219 760 z "},"%":{"ha":953,"x_min":0,"x_max":0,"o":"m 183 75 b 271 4 183 40 224 4 b 328 42 304 4 319 24 b 396 182 351 88 374 135 b 717 756 493 378 593 575 b 808 882 747 799 778 839 b 817 907 814 889 817 899 b 715 974 817 943 754 974 b 658 947 690 974 672 961 b 642 925 653 940 647 933 b 631 907 638 919 633 913 b 457 613 572 808 515 711 b 365 451 426 560 393 506 b 258 226 328 378 296 301 b 194 107 239 186 219 146 b 183 75 188 96 183 88 z m 524 232 b 693 1 524 160 550 1 b 881 151 794 1 857 89 b 901 278 896 192 901 236 b 790 471 901 346 882 432 b 732 485 774 476 753 483 b 699 493 722 492 708 493 b 524 232 561 493 524 343 z m 236 522 b 460 806 397 522 460 715 b 290 1025 460 876 426 1025 b 261 1022 281 1025 271 1024 l 250 1022 b 190 1000 224 1022 204 1010 b 44 726 97 935 44 822 b 236 522 44 618 122 522 z m 643 236 b 683 375 643 271 653 354 b 714 368 693 371 703 368 b 725 369 718 368 722 369 b 731 371 726 371 729 371 b 768 347 742 368 763 356 b 782 272 779 328 782 296 b 694 115 782 225 756 115 b 643 236 647 115 643 203 z m 161 729 b 254 906 161 785 203 867 b 267 904 258 906 263 904 b 296 911 278 904 288 907 b 332 869 313 907 324 892 b 342 807 339 847 342 821 b 236 635 342 751 304 635 b 161 729 188 635 161 692 z "},"&":{"ha":847,"x_min":0,"x_max":0,"o":"m 53 182 b 208 31 53 115 104 31 b 465 157 306 31 407 103 b 747 3 522 114 675 3 b 831 78 806 3 831 42 b 785 150 831 104 818 150 b 768 149 779 150 774 149 b 558 257 707 151 613 218 b 668 479 606 314 668 413 b 608 543 668 500 657 543 b 549 488 572 543 554 519 b 524 407 544 460 536 433 b 469 331 510 382 490 356 b 354 467 426 374 389 418 b 613 878 440 560 613 747 b 449 1011 613 954 551 1011 b 118 667 263 1011 118 851 b 178 451 118 594 138 518 b 53 182 118 376 53 275 z m 172 190 b 250 354 172 242 214 306 b 374 231 289 311 331 269 b 210 151 335 196 264 151 b 172 190 181 151 172 165 z m 289 567 b 258 701 269 608 258 656 b 449 899 258 808 339 899 b 494 875 481 899 494 894 b 289 567 494 801 358 642 z "},"'":{"ha":251,"x_min":0,"x_max":0,"o":"m 44 743 b 128 669 44 704 67 669 b 199 722 163 669 199 697 b 197 736 199 728 197 732 b 200 861 197 778 199 819 b 206 942 200 889 200 917 b 207 951 206 944 207 949 b 128 1008 207 986 167 1008 b 65 981 103 1008 79 996 b 46 865 53 967 49 914 b 44 743 44 815 44 761 z "},"‛":{"ha":251,"x_min":0,"x_max":0,"o":"m 44 743 b 128 669 44 704 67 669 b 199 722 163 669 199 697 b 197 736 199 728 197 732 b 200 861 197 778 199 819 b 206 942 200 889 200 917 b 207 951 206 944 207 949 b 128 1008 207 986 167 1008 b 65 981 103 1008 79 996 b 46 865 53 967 49 914 b 44 743 44 815 44 761 z "},"(":{"ha":600,"x_min":0,"x_max":0,"o":"m 57 454 b 224 93 57 324 97 188 b 504 3 297 42 401 3 b 563 60 547 3 563 35 b 504 115 563 89 544 111 b 231 494 332 142 231 332 b 510 890 231 632 331 844 b 567 942 540 899 567 911 b 497 1000 567 971 539 1000 b 458 994 485 1000 469 997 b 153 788 335 964 214 874 b 57 454 83 688 57 567 z "},")":{"ha":601,"x_min":0,"x_max":0,"o":"m 36 57 b 94 3 36 33 53 3 b 361 83 190 3 290 36 b 543 456 500 175 543 322 b 132 996 543 678 435 919 b 104 1000 124 999 115 1000 b 33 940 63 1000 33 969 b 71 896 33 918 51 903 b 94 889 78 893 88 892 b 369 493 258 844 369 657 b 93 115 369 328 268 143 b 36 57 54 110 36 83 z "},"*":{"ha":508,"x_min":0,"x_max":0,"o":"m 83 718 b 143 663 83 696 104 663 b 189 683 164 663 178 674 b 196 693 192 686 193 689 b 258 629 200 660 221 629 b 319 685 300 629 319 661 b 311 735 319 700 315 719 b 349 717 322 729 335 724 b 383 704 361 711 374 708 b 397 699 389 701 393 700 b 410 697 401 699 406 697 b 469 754 453 697 469 731 b 438 803 469 772 460 792 b 322 853 400 821 361 838 b 342 876 329 861 335 869 b 371 906 350 888 360 896 b 388 918 376 910 382 914 b 403 935 393 922 399 928 b 407 960 406 943 407 951 b 349 1018 407 981 390 1018 b 304 999 335 1018 317 1008 b 297 993 301 997 299 996 l 297 994 b 299 1007 297 999 299 1003 b 235 1069 299 1031 281 1069 b 172 1000 185 1069 178 1039 l 172 974 b 174 921 172 956 174 938 b 146 943 163 925 153 933 b 135 953 142 946 139 949 b 101 964 126 958 117 964 b 39 907 60 964 39 931 b 79 846 39 885 58 863 b 138 811 99 832 119 819 b 108 771 129 800 118 786 b 83 718 96 754 83 735 z "},"+":{"ha":506,"x_min":0,"x_max":0,"o":"m 35 401 b 124 342 35 354 76 342 b 200 346 150 342 175 344 l 200 313 b 201 261 200 296 201 278 b 196 210 201 243 200 225 b 194 197 194 206 194 201 b 256 136 194 174 211 136 b 315 183 293 136 313 163 b 321 351 321 240 318 296 l 410 351 b 471 408 453 351 471 385 b 376 465 471 461 421 465 b 321 464 357 465 339 465 l 321 532 b 322 536 321 533 322 535 b 324 542 322 539 324 540 l 324 547 b 263 606 324 572 304 606 b 201 526 214 606 201 567 b 201 499 200 515 201 506 l 201 460 b 172 458 192 460 182 458 b 124 481 161 469 143 481 b 113 479 121 481 117 481 b 35 401 72 468 35 439 z "},",":{"ha":213,"x_min":0,"x_max":0,"o":"m 17 -151 b 75 -208 17 -172 33 -208 b 121 -187 96 -208 113 -200 b 126 -178 124 -185 125 -181 b 131 -171 128 -176 129 -174 b 188 -50 157 -135 183 -97 b 189 -17 189 -40 189 -29 b 176 65 189 3 188 38 b 104 125 167 94 144 125 b 25 46 49 125 25 75 b 71 -24 25 21 38 -11 b 46 -90 69 -51 57 -72 b 26 -119 39 -101 32 -110 b 17 -151 21 -129 17 -140 z "},"-":{"ha":607,"x_min":0,"x_max":0,"o":"m 82 363 b 93 364 86 363 90 364 b 103 367 97 365 100 365 b 111 368 106 367 108 368 b 117 369 113 369 115 369 l 231 369 b 369 368 278 369 324 368 b 533 374 424 368 481 368 b 582 428 567 378 582 407 b 522 486 582 451 564 486 b 465 482 504 486 483 483 b 344 481 425 481 385 481 b 199 482 297 481 247 482 b 97 479 165 482 129 483 b 36 456 76 478 51 472 b 24 418 28 444 24 431 b 82 363 24 397 42 363 z "},".":{"ha":171,"x_min":0,"x_max":0,"o":"m 24 69 b 83 17 24 47 47 17 b 146 85 128 17 146 64 b 86 140 146 110 125 140 b 24 69 40 140 24 92 z "},"/":{"ha":551,"x_min":0,"x_max":0,"o":"m 22 31 b 85 -28 22 7 44 -28 b 154 50 128 -28 154 28 l 154 56 b 515 940 272 351 393 646 b 526 967 518 949 522 958 b 533 997 529 976 533 986 b 472 1051 533 1021 514 1051 b 415 1013 438 1051 424 1029 b 364 886 397 971 382 926 b 76 176 268 650 174 413 b 46 103 71 164 57 133 b 22 31 33 74 22 44 z "},":":{"ha":197,"x_min":0,"x_max":0,"o":"m 40 72 b 101 18 40 49 61 18 b 161 76 142 18 161 54 b 104 133 161 100 143 133 b 40 72 60 133 40 96 z m 35 628 b 97 564 35 604 50 564 b 157 625 139 564 157 603 b 96 688 157 649 138 688 b 35 628 51 688 35 651 z "},";":{"ha":213,"x_min":0,"x_max":0,"o":"m 53 632 b 114 576 53 606 71 576 b 176 632 154 576 176 604 b 119 690 176 653 161 690 b 53 632 74 690 53 663 z m 15 -118 b 76 -176 15 -142 33 -176 b 175 10 150 -176 175 -47 b 151 115 175 40 175 92 b 101 139 142 126 124 139 b 33 64 51 139 33 89 b 57 8 33 44 42 25 b 51 -36 57 -3 56 -19 b 36 -74 49 -53 42 -68 b 15 -118 21 -86 15 -101 z "},"<":{"ha":508,"x_min":0,"x_max":0,"o":"m 90 344 b 385 156 140 297 310 156 b 444 213 428 156 444 189 b 404 265 444 233 433 256 b 174 424 347 282 226 376 b 310 478 217 443 264 461 b 382 507 333 488 358 496 b 411 524 392 511 401 518 l 419 524 b 467 579 451 529 467 560 b 401 636 467 606 443 636 b 344 617 383 636 360 628 b 335 610 342 615 338 613 b 325 604 332 608 329 607 b 203 560 290 590 246 575 b 86 506 160 543 118 525 b 39 432 56 488 39 464 b 90 344 39 396 64 368 z "},"=":{"ha":536,"x_min":0,"x_max":0,"o":"m 118 482 b 401 494 208 482 308 494 b 414 493 406 494 410 494 b 422 493 417 493 419 493 l 432 493 b 493 549 472 493 493 524 b 482 581 493 560 489 571 b 418 607 469 600 440 607 l 394 607 b 186 597 325 607 257 600 b 142 617 178 607 160 617 l 138 617 b 36 540 89 611 36 588 b 118 482 36 499 71 482 z m 121 253 b 403 269 215 253 311 263 b 450 272 418 271 435 269 b 500 326 486 276 500 307 b 433 385 500 357 481 385 b 399 382 422 385 411 383 b 153 367 318 376 235 369 b 125 372 144 371 135 372 b 49 308 81 372 49 342 b 121 253 49 271 76 253 z "},">":{"ha":483,"x_min":0,"x_max":0,"o":"m 89 250 b 150 189 89 226 108 189 b 263 238 181 189 225 213 b 358 303 301 263 339 289 b 444 422 394 331 444 372 b 353 532 444 474 401 508 b 210 594 308 556 258 575 b 140 618 188 601 161 608 b 121 629 132 622 126 626 b 94 633 115 632 107 633 b 39 576 54 633 39 594 b 74 525 39 556 49 536 b 136 499 92 515 114 507 b 319 419 194 481 271 456 b 163 311 285 385 211 340 b 150 313 158 311 154 313 b 89 250 107 313 89 275 z "},"?":{"ha":600,"x_min":0,"x_max":0,"o":"m 175 74 b 260 -21 175 38 185 -21 b 346 44 304 -21 346 7 b 344 50 346 46 346 47 b 343 54 344 51 343 53 b 340 61 342 57 340 60 b 339 71 339 64 339 67 l 339 108 b 340 110 339 108 339 110 l 340 114 b 342 118 342 115 342 117 b 267 179 342 154 315 179 b 186 143 222 179 197 165 b 176 110 181 133 178 121 b 175 74 175 97 175 85 z m 156 311 b 167 247 156 292 156 268 b 236 210 176 226 197 210 b 325 269 276 210 325 232 b 324 282 325 274 325 278 b 321 293 322 285 321 289 b 317 315 318 301 317 308 b 397 518 317 369 351 443 b 525 718 443 594 496 668 b 564 846 550 761 564 799 b 361 1011 564 936 483 1011 b 46 786 210 1011 88 883 b 40 760 43 778 40 769 b 100 703 40 738 58 703 b 149 729 124 703 139 717 b 163 754 154 738 158 746 b 371 904 186 824 300 904 b 435 861 407 904 435 889 b 315 650 435 811 378 733 b 224 522 283 607 251 565 b 156 311 178 449 156 397 z "},"@":{"ha":1113,"x_min":0,"x_max":0,"o":"m 89 160 b 578 -161 153 -6 339 -161 b 771 -119 646 -161 714 -149 b 917 11 817 -97 917 -42 b 840 89 917 39 890 89 b 824 88 835 89 829 89 b 807 81 817 85 811 83 b 803 75 806 78 804 76 b 571 -22 744 17 654 -22 b 182 397 354 -22 182 190 b 369 726 182 522 238 653 b 635 799 446 769 542 799 b 944 465 814 799 944 640 b 931 368 944 433 940 400 b 807 236 917 321 868 236 b 739 328 753 236 743 285 b 739 368 738 343 739 357 b 747 536 739 424 747 481 b 590 676 747 608 699 676 b 519 665 565 676 542 672 b 286 336 344 608 286 469 b 440 133 286 229 319 133 b 639 246 526 133 600 189 b 799 132 661 189 708 132 b 963 206 865 132 925 169 b 1058 446 1032 274 1058 363 b 615 911 1058 650 936 911 b 217 757 475 911 317 856 b 56 353 106 647 56 490 b 89 160 56 288 65 221 z m 433 267 b 428 308 429 281 428 299 b 513 525 428 381 461 465 b 583 568 532 547 553 568 b 621 557 597 568 610 564 b 586 440 608 518 599 479 b 544 321 575 399 563 360 b 460 244 528 293 497 244 b 433 267 449 244 439 251 z "},"A":{"ha":669,"x_min":0,"x_max":0,"o":"m 18 42 b 81 -15 18 18 40 -15 b 125 8 103 -15 117 -4 b 138 44 133 18 136 32 b 143 79 140 57 140 69 b 188 272 157 144 171 208 b 425 288 267 279 344 288 l 444 288 b 481 38 453 204 463 119 b 550 -12 490 4 515 -12 b 626 49 593 -12 626 14 b 625 58 626 51 625 54 b 571 492 601 201 582 346 b 543 863 561 614 560 739 b 432 999 535 926 507 999 b 294 889 369 999 325 938 b 39 157 157 669 93 393 b 25 100 35 139 29 119 b 18 42 21 81 18 61 z m 218 388 b 379 804 257 526 308 678 b 390 817 383 810 388 815 b 394 821 392 818 393 819 b 397 817 394 819 396 818 b 404 799 400 814 401 807 b 410 758 407 782 410 765 b 418 603 415 708 417 656 b 432 400 419 536 426 468 b 218 388 360 400 290 394 z "},"B":{"ha":758,"x_min":0,"x_max":0,"o":"m 126 97 b 174 44 126 75 146 53 b 172 32 172 40 172 36 b 232 -25 172 8 190 -25 b 728 353 510 -25 728 136 b 494 597 728 475 657 576 b 618 818 563 657 618 735 b 326 1008 618 957 478 1008 b 54 944 238 1008 126 986 b 24 896 33 932 24 915 b 86 839 24 871 43 839 b 96 840 89 839 93 840 b 106 844 99 842 101 843 b 131 854 114 847 121 850 b 158 865 140 858 150 863 b 161 867 160 865 161 867 b 126 260 129 665 126 463 z m 263 89 b 264 99 264 92 264 96 b 265 464 264 221 263 343 b 272 465 267 464 269 465 b 321 476 288 468 304 474 b 433 488 357 483 394 488 b 608 351 553 488 608 446 b 446 132 608 263 544 178 b 263 89 390 107 328 93 z m 271 588 b 301 878 276 685 286 782 b 303 889 301 882 303 885 b 301 894 303 890 303 893 b 329 896 311 894 319 896 b 500 819 401 896 500 881 b 271 588 500 732 369 635 z "},"C":{"ha":651,"x_min":0,"x_max":0,"o":"m 46 438 b 344 -6 46 253 121 -6 b 615 217 489 -6 582 131 b 619 239 618 224 619 232 b 557 297 619 263 599 297 b 511 272 535 297 519 283 b 506 261 508 269 507 265 b 479 213 496 244 488 229 b 449 168 471 197 463 183 b 353 115 426 140 393 115 b 199 457 213 115 199 357 b 328 861 199 563 225 790 b 407 889 349 878 378 889 b 464 831 447 889 464 864 b 456 785 464 815 460 801 b 446 738 450 769 446 754 b 506 683 446 714 467 683 b 581 825 572 683 581 775 b 413 1000 581 904 542 1000 b 46 438 149 1000 46 653 z "},"D":{"ha":808,"x_min":0,"x_max":0,"o":"m 115 97 b 182 42 115 68 139 42 b 199 43 188 42 193 42 l 199 40 b 256 -17 199 18 215 -17 b 464 47 322 -17 413 18 b 771 581 664 163 771 392 b 263 1011 771 825 599 1011 b 126 994 219 1011 168 1007 b 56 965 115 990 65 972 b 29 918 38 953 29 935 b 89 861 29 894 47 861 b 108 865 94 861 101 864 b 129 874 115 867 121 871 b 150 882 136 876 143 879 b 115 258 118 675 115 467 z m 251 94 l 251 99 b 289 878 251 360 247 618 l 289 899 b 653 578 532 893 653 763 b 251 94 653 351 479 126 z "},"E":{"ha":619,"x_min":0,"x_max":0,"o":"m 111 154 b 349 8 144 56 213 8 b 532 38 408 8 475 17 b 601 101 564 49 601 61 b 543 158 601 125 582 158 b 528 157 538 158 532 157 b 361 122 472 139 419 122 b 268 135 329 122 297 124 b 229 196 247 142 235 165 b 224 278 222 226 224 260 b 229 472 224 343 224 407 b 429 490 296 479 363 482 b 479 543 463 493 479 522 b 422 600 479 564 464 600 l 417 600 b 242 588 358 597 300 593 b 279 904 254 693 272 799 b 396 907 318 907 357 907 b 469 907 421 907 446 908 b 501 904 481 906 490 904 b 564 961 544 904 564 933 b 471 1019 564 1013 517 1018 b 400 1021 447 1021 424 1021 b 103 1001 301 1021 200 1014 b 42 944 65 997 42 974 b 100 888 42 924 60 888 b 122 889 108 888 117 888 b 126 890 124 890 125 890 b 103 672 115 817 108 744 b 92 563 100 640 99 594 b 88 557 90 560 88 558 b 76 519 79 546 76 532 b 82 497 76 511 79 503 b 88 490 85 494 86 492 b 85 449 88 476 86 463 b 82 358 83 418 82 388 b 111 154 82 289 88 221 z "},"F":{"ha":625,"x_min":0,"x_max":0,"o":"m 93 61 b 161 0 93 32 118 0 b 232 61 206 0 232 32 b 235 454 232 192 231 322 b 360 465 276 458 318 463 b 428 471 382 468 406 468 b 486 528 467 475 486 501 b 426 583 486 551 467 583 b 368 579 407 583 388 581 b 238 568 325 576 282 572 b 257 774 242 636 249 706 b 272 875 261 808 268 840 b 274 886 272 879 272 883 b 475 904 340 890 408 897 b 576 915 508 908 544 910 b 625 972 613 921 625 950 b 567 1028 625 992 606 1028 l 563 1028 b 201 997 443 1018 324 997 l 160 997 b 122 1000 143 997 129 999 b 115 1001 119 1001 118 1001 b 104 1003 113 1003 108 1003 b 44 947 64 1003 44 971 b 131 886 44 901 88 888 b 93 250 97 675 93 463 z "},"G":{"ha":731,"x_min":0,"x_max":0,"o":"m 46 438 b 347 -6 46 250 122 -6 b 618 393 572 -6 608 278 l 619 400 b 690 421 640 404 678 414 b 718 469 710 433 718 451 b 660 526 718 490 701 526 b 632 521 650 526 640 524 b 511 504 594 506 551 504 b 386 510 481 504 415 506 b 378 513 383 511 381 511 b 363 514 374 513 368 514 b 306 457 324 514 306 478 b 411 396 306 403 368 396 b 483 390 436 394 460 392 b 351 115 478 314 457 115 b 199 457 214 115 199 358 b 328 861 199 563 225 790 b 407 889 349 878 378 889 b 464 831 447 889 464 864 b 456 785 464 815 460 801 b 446 738 450 769 446 754 b 506 683 446 714 467 683 b 581 825 572 683 581 775 b 413 1000 581 904 542 1000 b 46 438 149 1000 46 653 z "},"H":{"ha":753,"x_min":0,"x_max":0,"o":"m 65 63 b 135 3 65 35 94 3 b 206 63 182 3 201 36 b 214 185 211 103 211 144 b 228 435 219 269 225 351 b 524 436 326 438 425 433 b 538 186 526 354 532 271 b 546 63 540 146 540 103 b 561 25 547 51 551 38 b 615 4 574 13 594 4 b 686 61 654 4 686 32 l 686 63 b 661 618 672 249 661 433 b 675 939 661 725 667 832 l 675 942 b 604 1001 675 969 646 1001 b 535 940 557 1001 539 967 b 528 849 531 911 529 879 b 521 633 524 776 521 706 b 522 550 521 606 521 578 b 231 549 425 547 328 551 l 231 600 b 225 842 231 682 229 761 b 218 940 224 875 222 908 b 203 979 217 951 213 967 b 147 1000 190 992 168 1000 b 78 942 110 1000 78 971 l 78 939 b 90 619 88 832 90 725 b 69 117 90 451 81 285 b 65 63 68 99 65 81 z "},"I":{"ha":306,"x_min":0,"x_max":0,"o":"m 82 63 b 151 3 82 33 110 3 b 222 63 196 3 222 35 l 222 943 b 151 1004 222 972 196 1004 b 82 943 108 1004 82 972 z "},"J":{"ha":736,"x_min":0,"x_max":0,"o":"m 33 158 b 246 14 64 83 131 14 b 568 317 415 14 547 153 b 571 393 571 343 571 368 b 551 910 571 565 558 738 b 633 918 579 913 606 917 b 736 978 676 918 736 918 b 669 1032 736 1008 713 1032 b 503 1019 614 1032 557 1025 b 285 1010 431 1013 357 1010 l 242 1010 b 197 1011 229 1010 213 1011 b 131 953 163 1008 131 993 b 207 897 131 907 169 897 l 244 897 b 399 899 296 897 347 897 b 422 376 406 724 422 550 b 390 206 422 317 418 260 b 265 115 367 163 328 115 b 131 256 178 115 144 192 b 72 306 124 285 106 306 b 14 247 26 306 14 271 b 33 158 14 218 22 185 z "},"K":{"ha":715,"x_min":0,"x_max":0,"o":"m 82 60 b 151 0 82 31 110 0 b 222 61 196 0 222 32 l 222 464 b 350 508 260 488 306 508 b 417 488 375 508 400 500 b 504 285 460 451 486 372 b 536 57 521 199 529 108 b 606 1 540 29 561 1 b 676 61 650 1 676 32 b 675 71 676 64 675 67 b 650 297 664 147 661 222 b 386 608 631 418 579 589 b 567 821 453 678 513 749 b 639 921 592 854 618 888 b 646 946 644 928 646 938 b 585 1006 646 971 629 1006 b 540 982 563 1006 550 994 b 471 889 517 951 494 919 b 222 613 397 792 318 699 l 222 940 b 151 1001 222 969 196 1001 b 82 940 108 1001 82 969 z "},"L":{"ha":581,"x_min":0,"x_max":0,"o":"m 143 64 b 329 8 190 21 263 8 b 567 64 383 8 524 26 b 581 101 576 75 581 89 b 522 158 581 125 563 158 b 507 157 517 158 511 158 b 340 122 451 139 399 122 b 247 135 308 122 276 124 b 208 196 226 142 214 165 b 203 278 201 226 203 260 l 203 360 b 240 757 203 493 224 625 b 257 947 247 819 257 885 b 186 1007 257 979 232 1007 b 126 982 164 1007 140 999 b 94 825 107 956 97 860 b 68 515 83 722 75 618 b 61 360 64 464 61 411 b 143 64 61 278 72 132 z "},"M":{"ha":1033,"x_min":0,"x_max":0,"o":"m 54 57 b 128 0 54 21 85 0 b 207 57 176 0 201 24 b 213 122 210 78 211 100 b 222 274 217 171 219 222 b 251 689 232 411 239 550 b 400 397 303 593 349 494 b 451 299 417 365 433 332 b 463 275 456 290 458 282 b 478 250 468 267 472 258 b 543 219 492 231 514 219 b 619 261 576 219 607 235 b 676 408 642 308 658 360 b 790 683 713 501 749 594 b 839 278 808 547 822 413 b 864 65 847 207 853 136 b 935 -4 874 28 892 -4 b 986 53 967 -4 986 22 b 985 65 986 57 985 61 b 928 663 960 264 947 464 b 904 861 921 728 914 796 b 892 946 900 889 899 919 b 831 997 886 967 871 997 b 776 965 800 997 786 979 b 750 913 767 949 758 929 b 688 789 729 871 708 829 b 521 440 629 674 572 557 b 364 792 465 556 417 675 b 304 915 344 832 326 874 b 276 967 296 931 288 950 b 213 997 264 986 240 997 b 133 960 175 997 151 983 b 129 950 132 957 131 953 b 128 943 129 947 128 944 b 79 372 106 753 93 561 b 64 171 74 304 69 238 b 54 57 61 133 54 93 z "},"N":{"ha":782,"x_min":0,"x_max":0,"o":"m 69 64 b 126 7 69 43 83 7 b 194 67 171 7 194 42 b 190 96 194 76 192 86 b 185 186 186 126 185 157 b 215 771 185 382 196 576 b 510 111 326 554 403 328 b 615 11 528 72 565 11 b 692 92 661 11 683 53 b 699 169 697 118 697 144 b 708 422 704 254 708 338 b 696 779 708 542 703 661 b 686 949 693 836 692 893 b 631 1017 682 981 669 1017 b 581 988 604 1017 589 1003 b 568 943 571 974 568 956 l 568 932 b 592 461 579 775 592 618 b 588 308 592 410 590 360 b 393 750 519 454 463 604 b 325 882 371 794 347 838 b 301 926 318 896 310 913 b 210 1007 283 964 256 1007 b 115 942 165 1007 121 976 b 106 857 110 915 108 885 b 69 64 78 593 69 329 z "},"O":{"ha":831,"x_min":0,"x_max":0,"o":"m 42 450 b 331 13 42 294 101 65 b 401 4 353 7 378 4 b 785 532 706 4 785 364 b 458 989 785 736 697 989 b 192 867 349 989 253 929 b 42 450 86 754 42 585 z m 257 222 b 214 415 224 278 214 354 b 315 793 214 538 247 689 b 439 885 347 846 390 885 b 464 882 447 885 456 883 b 574 813 507 872 549 842 b 664 536 644 735 664 631 b 422 125 664 393 604 125 b 257 222 347 125 289 169 z "},"P":{"ha":744,"x_min":0,"x_max":0,"o":"m 128 63 b 199 1 128 33 154 1 b 269 63 243 1 269 33 l 269 349 b 724 754 475 375 724 521 b 379 1021 724 924 597 1021 b 65 974 293 1021 144 1000 b 25 918 36 964 25 938 b 86 863 25 896 46 863 b 99 864 90 863 94 863 b 375 908 189 888 281 908 b 604 750 521 908 604 868 b 269 464 604 608 442 493 l 269 790 b 199 849 269 818 242 849 b 128 790 156 849 128 818 z "},"Q":{"ha":831,"x_min":0,"x_max":0,"o":"m 172 96 b 406 4 231 43 313 4 b 560 46 463 4 515 19 b 739 -111 593 -29 646 -111 b 803 -53 782 -111 803 -81 b 754 1 803 -32 790 -3 b 739 3 749 3 743 3 b 728 6 735 4 732 4 b 683 60 711 14 696 35 b 656 125 671 83 663 108 b 785 533 747 238 785 404 b 458 989 785 738 697 989 b 192 867 349 989 251 929 b 42 450 86 754 42 586 b 172 96 42 336 74 188 z m 264 211 b 214 415 225 269 214 350 b 315 794 214 539 249 689 b 439 885 347 846 390 885 b 464 882 447 885 456 883 b 574 813 506 872 550 840 b 664 533 644 733 664 629 b 597 251 664 439 647 338 b 422 349 564 304 510 349 b 326 286 374 349 326 335 b 383 231 326 265 342 231 l 396 231 b 407 233 400 232 403 232 b 428 235 415 233 422 235 b 486 207 453 235 471 224 b 518 156 500 190 510 171 b 422 125 490 138 457 125 b 264 211 353 125 296 165 z "},"R":{"ha":775,"x_min":0,"x_max":0,"o":"m 128 63 b 199 1 128 33 154 1 b 269 63 243 1 269 33 l 269 318 b 499 203 371 317 446 271 b 578 44 538 154 557 100 b 657 -6 589 17 615 -6 b 736 51 696 -6 736 17 b 735 65 736 57 736 63 b 449 400 701 188 597 338 b 724 754 615 474 724 601 b 379 1021 724 924 597 1021 b 65 974 290 1021 149 1001 b 25 918 36 964 25 938 b 86 863 25 894 46 863 b 99 864 90 863 94 863 b 375 908 189 888 281 908 b 604 750 521 908 604 868 b 269 464 604 608 442 493 l 269 790 b 199 849 269 818 242 849 b 128 790 156 849 128 818 z "},"S":{"ha":679,"x_min":0,"x_max":0,"o":"m 31 138 b 172 19 42 90 125 39 b 328 -7 221 1 275 -7 b 636 258 533 -7 636 111 b 432 575 636 407 539 490 b 290 681 385 610 336 644 b 200 819 253 710 200 768 b 331 897 200 875 261 897 b 494 796 414 897 471 857 b 553 751 507 772 524 751 b 611 808 594 751 611 785 b 604 844 611 819 608 832 b 333 1011 571 942 467 1011 b 67 792 160 1011 67 921 b 276 493 67 649 169 567 b 354 439 303 475 331 457 b 513 254 421 393 494 338 b 515 229 514 246 515 238 b 335 108 515 151 432 108 b 132 188 253 108 178 135 b 104 210 125 194 117 204 b 85 213 97 211 90 213 b 29 151 42 213 29 169 b 31 138 29 147 29 142 z "},"T":{"ha":639,"x_min":0,"x_max":0,"o":"m 235 63 b 313 4 235 29 269 4 b 388 63 354 4 388 31 l 388 899 b 564 893 447 897 507 899 b 578 892 568 892 574 892 b 640 947 621 892 640 922 b 604 1000 640 967 629 989 b 419 1011 583 1007 500 1010 b 142 1014 326 1013 235 1014 b 57 1008 113 1013 82 1013 b -1 947 17 1003 -1 972 b 60 893 -1 924 19 893 b 72 896 65 893 69 894 b 81 897 75 896 78 897 b 131 899 97 899 115 899 b 235 900 165 899 200 900 z "},"U":{"ha":794,"x_min":0,"x_max":0,"o":"m 58 478 b 399 -1 58 314 97 -1 b 733 518 689 -1 733 281 b 715 936 733 658 715 797 b 664 999 715 967 697 999 b 596 915 618 999 596 956 b 599 828 596 886 597 857 b 610 539 604 731 610 635 b 419 108 610 408 607 108 b 290 172 367 108 319 139 b 222 475 229 246 222 386 b 264 932 222 628 242 782 b 265 942 264 936 265 939 b 183 1001 265 979 226 1001 b 108 947 139 1001 114 979 b 58 478 81 793 58 635 z "},"V":{"ha":704,"x_min":0,"x_max":0,"o":"m 160 278 b 253 43 176 218 213 92 b 321 4 267 26 288 4 b 361 14 335 4 349 7 b 574 422 461 60 550 339 b 676 928 622 589 650 758 b 678 940 676 932 678 936 b 618 999 678 963 663 999 b 558 944 576 999 563 964 b 538 822 551 906 546 864 b 344 181 504 653 426 307 b 317 272 335 208 325 240 b 289 385 306 311 297 353 b 200 793 257 519 228 657 b 185 861 196 814 189 838 b 175 926 179 885 175 908 b 113 992 175 956 171 992 b 26 917 51 992 26 954 b 38 842 26 892 32 867 b 160 278 79 654 110 464 z "},"W":{"ha":1094,"x_min":0,"x_max":0,"o":"m 207 63 b 307 14 229 36 261 14 b 436 96 361 14 407 54 b 539 406 494 175 522 301 b 688 25 560 279 606 74 b 747 7 704 15 724 7 b 1058 943 972 7 1043 769 l 1058 949 b 999 1007 1058 972 1043 1007 b 940 951 957 1007 943 972 b 919 757 932 888 928 821 b 768 150 900 608 851 276 b 765 144 768 149 767 146 b 760 138 764 142 763 139 b 756 132 758 135 757 133 l 753 132 b 749 138 751 133 750 135 b 738 158 744 142 740 150 b 725 197 731 172 726 192 b 707 286 717 228 713 257 b 688 438 699 336 693 386 b 657 689 678 521 668 604 b 636 840 651 735 647 796 b 565 886 629 869 603 886 b 472 825 521 886 482 861 b 461 747 465 801 464 774 b 413 361 447 618 440 489 b 346 197 400 304 388 244 b 332 182 343 193 336 188 b 317 174 324 175 318 174 b 308 178 315 174 313 174 b 296 197 304 183 300 189 b 281 236 288 211 282 228 b 243 400 263 289 251 344 b 200 939 214 579 200 760 b 133 1003 200 971 188 1003 b 47 940 96 1003 47 983 l 47 917 b 56 765 47 865 51 815 b 88 463 64 664 75 564 b 207 63 101 354 129 157 z "},"X":{"ha":719,"x_min":0,"x_max":0,"o":"m 19 43 b 81 -15 19 18 38 -15 b 125 8 106 -15 117 -4 b 165 64 140 25 153 46 b 350 340 231 154 294 244 b 497 119 397 265 446 192 b 531 71 507 106 519 88 b 567 25 543 56 554 38 b 614 4 578 13 590 4 b 693 69 660 4 693 39 b 681 106 693 83 689 94 b 440 483 590 229 513 354 b 599 754 494 574 546 664 b 676 879 624 796 646 839 b 686 892 679 883 683 888 b 696 907 690 896 693 901 b 697 924 697 913 697 921 b 639 981 697 947 682 981 b 597 965 621 981 608 975 b 479 786 574 946 526 867 b 374 603 439 715 397 644 b 258 842 335 683 296 763 b 200 967 239 883 222 926 b 149 997 192 985 178 997 b 49 917 99 997 49 954 b 283 451 49 872 243 522 b 63 121 213 339 140 229 b 28 71 50 104 38 88 b 19 43 22 63 19 53 z "},"Y":{"ha":704,"x_min":0,"x_max":0,"o":"m 122 71 b 203 11 122 38 161 11 b 267 50 238 11 257 28 b 313 163 282 86 296 125 b 418 382 343 236 379 308 b 690 894 507 553 607 721 b 700 924 696 904 700 914 b 626 974 700 957 660 974 b 550 933 592 974 563 960 b 482 804 526 892 504 847 b 340 546 435 717 388 632 b 169 840 264 633 213 739 l 149 889 b 136 932 142 908 136 925 b 78 989 136 956 121 989 b 15 931 35 989 15 956 b 22 897 15 919 18 908 b 33 864 25 886 29 875 b 285 439 92 717 156 561 b 122 71 250 374 122 119 z "},"Z":{"ha":671,"x_min":0,"x_max":0,"o":"m 283 -29 b 583 -4 367 -29 504 -26 b 646 61 615 6 646 24 b 588 114 646 82 629 114 b 557 110 576 114 567 111 b 322 83 501 88 382 83 b 171 97 281 83 211 86 b 226 197 188 131 207 165 b 468 564 301 322 388 442 b 635 915 521 644 635 821 b 539 992 635 975 590 992 b 418 993 499 993 458 993 b 301 993 379 993 339 992 b 150 1001 250 996 200 1001 b 51 942 104 1001 51 994 b 114 886 51 917 71 886 b 475 881 233 886 354 881 b 192 450 381 736 285 594 b 99 297 160 399 128 349 b 42 197 78 265 57 232 b 26 122 32 174 26 149 b 283 -29 26 -14 178 -29 z "},"[":{"ha":533,"x_min":0,"x_max":0,"o":"m 114 24 b 251 -56 135 -26 181 -56 b 468 -3 310 -56 414 -31 b 504 44 490 7 504 22 b 433 103 504 72 475 103 b 393 94 422 103 408 99 b 344 79 379 90 363 85 b 250 58 311 67 276 58 b 247 64 249 60 249 63 b 240 85 244 69 242 76 b 215 349 215 146 215 282 b 300 879 215 496 229 740 b 336 860 311 874 324 867 b 390 843 353 851 374 843 b 464 901 431 843 464 871 b 417 954 464 931 439 943 b 386 969 406 960 393 965 b 375 976 382 972 379 974 b 365 983 372 978 368 981 b 340 997 358 989 350 993 b 285 1010 325 1006 304 1010 b 200 974 249 1010 221 994 b 71 342 89 849 71 493 b 114 24 71 257 75 103 z "},"\\":{"ha":607,"x_min":0,"x_max":0,"o":"m 200 604 b 461 40 289 417 372 228 b 490 -19 468 28 476 3 b 553 -62 503 -40 522 -62 b 617 0 597 -62 617 -25 b 590 53 617 19 608 38 b 585 54 588 53 586 54 b 529 174 563 92 547 135 b 160 950 408 433 294 696 b 133 1000 153 967 143 985 b 76 1032 121 1017 104 1032 b 15 965 26 1032 15 989 b 44 913 15 944 22 926 b 50 910 46 911 49 911 b 200 604 104 813 153 706 z "},"]":{"ha":533,"x_min":0,"x_max":0,"o":"m 28 44 b 44 10 28 32 33 19 b 226 -50 69 -15 193 -44 b 282 -56 244 -54 263 -56 b 421 22 349 -56 397 -26 b 463 338 457 100 463 256 b 372 911 463 524 450 732 b 250 1010 356 947 319 1010 b 193 997 225 1010 208 1006 b 172 986 186 994 179 990 b 150 972 165 982 158 976 b 135 964 146 969 140 967 b 119 956 131 961 125 958 b 88 936 110 950 97 944 b 69 901 75 926 69 915 b 143 843 69 868 101 843 b 199 860 160 843 181 851 b 233 879 211 867 222 874 b 318 363 303 740 318 513 b 315 217 318 318 318 268 b 290 75 311 167 304 117 b 286 63 290 72 289 67 b 283 57 285 60 283 58 b 188 79 258 58 222 67 b 138 94 169 85 153 90 b 100 103 124 99 111 103 b 28 44 61 103 28 74 z "},"^":{"ha":456,"x_min":0,"x_max":0,"o":"m 35 704 b 97 649 35 679 57 649 b 147 681 124 649 140 664 b 203 803 169 719 181 763 b 229 839 211 815 219 826 b 235 833 231 838 232 836 b 260 806 242 826 250 815 b 299 756 276 785 294 761 b 314 735 303 750 307 742 b 357 714 326 717 338 714 b 419 771 397 714 419 746 b 310 924 419 804 335 900 b 226 957 290 939 261 957 b 118 886 169 957 136 917 b 67 781 96 853 82 817 b 58 765 64 775 61 769 l 57 764 b 53 761 56 763 54 761 b 35 704 44 750 35 715 z "},"_":{"ha":654,"x_min":0,"x_max":0,"o":"m 68 -139 b 88 -136 75 -139 82 -137 b 157 -126 110 -131 132 -128 b 229 -122 181 -125 206 -124 b 449 -111 303 -118 375 -114 b 603 -101 500 -110 553 -108 b 654 -44 640 -97 654 -65 b 596 11 654 -24 635 11 l 592 11 b 229 -8 472 1 350 -1 b 56 -24 171 -11 113 -15 b 0 -79 19 -29 0 -54 b 68 -139 0 -106 25 -139 z "},"`":{"ha":307,"x_min":0,"x_max":0,"o":"m 78 878 b 108 864 88 876 97 872 b 143 838 119 857 132 847 b 181 814 156 829 168 819 b 219 800 192 807 206 800 b 279 858 260 800 279 836 b 256 901 279 874 271 890 b 182 953 240 913 211 933 b 93 990 153 971 118 990 b 28 933 53 990 28 961 b 78 878 28 914 44 883 z "},"a":{"ha":674,"x_min":0,"x_max":0,"o":"m 197 4 b 447 213 314 4 401 132 b 503 22 456 153 475 60 b 564 -8 517 4 536 -8 b 644 50 601 -8 644 17 b 636 74 644 60 640 67 b 575 340 588 163 575 246 b 594 604 575 429 588 517 l 594 607 b 536 676 594 633 557 664 b 388 715 493 700 442 715 b 33 281 164 715 33 481 b 197 4 33 179 67 4 z m 156 256 b 293 575 156 361 193 501 b 383 607 319 594 349 607 b 451 590 407 607 431 600 b 300 203 428 475 364 306 b 204 119 268 156 233 119 b 181 133 196 119 188 124 b 156 256 158 169 156 214 z "},"b":{"ha":650,"x_min":0,"x_max":0,"o":"m 86 47 b 207 -7 96 0 168 -7 b 621 476 428 -7 621 265 b 413 693 621 571 568 693 b 213 614 332 693 265 657 b 246 940 217 724 228 832 l 246 950 b 175 1010 246 981 218 1010 b 104 961 139 1010 111 989 b 83 813 93 915 89 861 b 64 446 71 692 64 568 b 82 85 64 325 71 206 b 86 47 83 72 83 60 z m 224 107 b 207 451 214 221 207 336 b 414 579 257 506 329 579 b 503 475 486 579 503 526 b 224 107 503 358 389 125 z "},"c":{"ha":503,"x_min":0,"x_max":0,"o":"m 33 339 b 253 -1 33 244 68 -1 b 465 114 339 -1 426 61 b 478 149 472 124 478 136 b 418 201 478 171 457 201 b 376 186 401 201 389 194 b 360 172 371 182 365 178 b 342 158 354 169 347 164 b 269 119 319 136 296 119 b 260 121 267 119 263 119 b 218 165 246 125 231 142 b 193 224 206 186 196 210 b 179 340 182 263 179 301 b 314 608 179 433 200 589 l 319 608 b 329 601 328 608 329 607 b 321 568 329 592 325 581 b 315 550 318 563 317 556 b 311 529 313 543 311 536 b 369 474 311 507 331 474 b 449 600 426 474 449 554 b 310 717 449 663 397 717 b 106 608 222 717 144 664 b 33 339 50 533 33 424 z "},"d":{"ha":699,"x_min":0,"x_max":0,"o":"m 31 235 b 193 4 31 165 51 4 b 464 281 343 4 425 171 b 476 157 467 246 471 200 b 535 -10 486 85 503 8 b 564 -18 544 -15 553 -18 b 649 43 601 -18 649 11 b 647 54 649 47 647 50 b 644 63 646 57 644 60 b 626 136 636 85 631 111 b 604 549 604 271 604 413 b 611 760 604 618 606 690 b 633 931 615 815 625 874 l 633 935 b 551 1007 633 968 600 1007 b 503 985 529 1007 514 999 b 482 915 493 974 488 943 b 472 842 478 886 474 856 b 447 700 467 794 456 746 b 397 704 431 703 414 704 b 31 235 161 704 31 442 z m 160 281 b 240 508 160 356 186 449 b 408 589 272 547 350 589 l 424 589 b 375 363 410 522 397 442 b 264 154 351 281 319 204 b 219 131 251 143 235 131 b 190 147 208 131 200 136 b 160 281 167 179 160 242 z "},"e":{"ha":564,"x_min":0,"x_max":0,"o":"m 33 397 b 417 3 33 160 183 3 b 518 61 461 3 518 7 b 454 118 518 88 499 118 b 425 117 444 118 435 117 b 186 301 285 117 213 201 b 207 300 193 301 200 300 b 536 572 386 300 536 439 b 331 728 536 665 444 728 b 33 397 103 728 33 535 z m 172 418 b 344 617 179 525 231 617 b 417 574 388 617 417 604 b 326 444 417 528 372 472 b 211 414 294 425 251 414 b 172 418 199 414 185 415 z "},"f":{"ha":586,"x_min":0,"x_max":0,"o":"m 133 57 b 207 -1 135 24 164 -1 b 281 57 253 -1 281 22 b 275 167 281 93 276 131 b 268 397 271 244 268 321 b 271 518 268 438 269 479 b 386 524 310 519 349 518 b 438 582 424 528 438 560 b 379 635 438 601 418 635 l 375 635 b 275 632 342 633 310 632 b 331 871 281 697 293 829 b 368 890 340 882 353 890 b 447 789 417 890 447 826 b 504 721 447 753 464 721 b 556 753 533 721 549 736 b 567 801 564 769 567 788 b 367 1004 567 883 499 1004 b 226 931 304 1004 257 968 b 125 628 157 849 133 725 l 115 628 b 104 629 111 628 107 628 l 97 629 b 92 631 94 629 93 631 b 79 632 88 632 85 632 b 17 576 36 632 17 601 b 58 522 17 546 32 529 b 96 515 69 518 83 517 l 124 515 b 129 207 124 413 126 310 b 133 57 131 157 131 106 z "},"g":{"ha":642,"x_min":0,"x_max":0,"o":"m 39 -121 b 94 -231 39 -154 67 -204 b 253 -289 132 -267 192 -289 b 532 -140 376 -289 479 -219 b 594 154 586 -57 594 64 b 592 254 594 186 593 221 b 586 476 588 328 586 401 b 588 628 586 526 588 578 b 543 674 588 653 565 667 b 488 685 525 679 507 682 b 435 693 471 688 453 689 b 392 697 421 696 407 697 b 315 683 364 697 338 692 b 28 254 129 614 28 401 b 203 39 28 150 86 39 b 451 268 307 39 404 182 b 458 126 454 221 458 172 b 331 -143 458 31 440 -90 b 256 -158 307 -153 281 -158 b 164 -114 217 -158 185 -140 b 144 -82 157 -106 153 -92 b 103 -58 136 -71 124 -58 b 39 -121 60 -58 39 -97 z m 147 246 b 281 532 147 340 200 461 b 386 583 310 557 346 583 b 433 575 401 583 418 581 b 367 367 417 515 396 439 b 244 174 336 290 297 219 b 222 158 238 169 231 164 b 199 150 213 153 204 150 b 147 246 154 150 147 213 z "},"h":{"ha":696,"x_min":0,"x_max":0,"o":"m 83 50 b 154 -8 86 19 111 -8 b 226 49 196 -8 226 17 b 225 92 226 63 225 76 l 225 99 b 375 526 243 235 285 410 b 407 560 381 535 393 549 b 444 581 422 574 436 581 b 463 564 450 581 460 568 b 475 535 469 553 474 540 b 492 431 486 500 489 465 b 503 64 501 315 503 181 b 576 6 503 31 533 6 b 646 39 615 6 636 19 b 653 68 650 49 651 58 l 653 99 b 650 176 653 125 651 151 b 636 465 647 274 646 371 b 458 694 629 536 596 694 b 211 483 333 694 254 571 l 211 572 b 226 942 211 696 217 818 l 226 944 b 154 1001 226 975 193 1001 b 83 943 108 1001 88 971 b 68 569 69 822 68 690 b 76 217 68 453 72 335 b 83 50 79 161 78 104 z "},"i":{"ha":293,"x_min":0,"x_max":0,"o":"m 60 60 b 135 1 60 25 93 1 b 214 60 179 1 211 25 b 217 136 215 83 215 111 l 226 543 b 229 660 226 582 229 621 b 151 717 229 694 193 717 b 75 660 108 717 78 694 b 72 583 74 635 74 607 l 63 175 b 60 60 63 138 60 97 z m 81 829 b 156 772 81 799 117 772 b 228 831 200 772 226 800 b 233 939 229 867 229 903 l 233 943 b 158 1003 233 976 201 1003 b 90 965 129 1003 101 988 b 82 911 85 956 82 932 b 81 853 81 888 81 864 z "},"j":{"ha":279,"x_min":0,"x_max":0,"o":"m -161 -228 b -12 -281 -139 -251 -50 -281 b 129 -224 43 -281 97 -256 b 217 140 215 -143 217 43 b 206 642 217 307 206 475 b 131 700 206 681 165 700 b 67 661 93 700 75 682 b 61 629 64 651 63 640 l 61 600 b 65 464 61 556 64 508 b 74 140 69 356 74 249 b 65 -39 74 113 76 35 b -14 -167 58 -79 39 -167 b -32 -162 -17 -167 -22 -165 b -60 -153 -40 -160 -50 -156 b -115 -136 -75 -146 -100 -136 b -175 -192 -156 -136 -175 -168 b -161 -228 -175 -204 -169 -217 z m 65 829 b 140 772 65 799 101 772 b 213 831 185 772 211 800 b 218 939 214 867 214 903 l 218 943 b 143 1003 218 976 186 1003 b 75 965 114 1003 86 988 b 67 911 69 956 67 932 b 65 853 65 888 65 864 z "},"k":{"ha":607,"x_min":0,"x_max":0,"o":"m 83 50 b 154 -8 86 19 111 -8 b 226 49 196 -8 226 17 b 222 149 226 81 224 115 b 215 350 219 215 217 282 b 238 351 222 350 231 351 b 457 79 379 351 457 178 l 457 64 b 461 47 457 60 457 53 b 518 11 469 31 486 11 b 575 68 561 11 575 46 b 363 435 575 194 511 361 b 549 656 444 493 513 575 b 551 674 550 661 551 668 b 492 731 551 697 533 731 b 440 701 464 731 449 714 b 211 483 382 604 322 521 l 211 540 b 226 942 211 675 215 808 l 226 944 b 154 1001 226 975 193 1001 b 83 943 110 1001 88 971 b 68 569 69 822 68 690 b 76 217 68 453 72 335 b 83 50 79 161 78 104 z "},"l":{"ha":292,"x_min":0,"x_max":0,"o":"m 81 99 b 83 49 82 82 81 64 b 154 -8 88 19 110 -8 b 226 49 196 -8 226 17 b 219 217 226 104 222 161 b 211 569 215 333 211 451 b 226 942 211 694 217 817 l 226 944 b 154 1001 226 975 193 1001 b 83 943 107 1001 89 971 b 75 824 76 907 76 861 b 68 569 71 739 68 654 b 76 217 68 453 72 335 z "},"m":{"ha":1114,"x_min":0,"x_max":0,"o":"m 60 54 b 129 -3 63 25 86 -3 b 192 21 151 -3 178 7 b 203 51 200 32 201 43 b 360 526 219 200 258 399 b 392 560 367 535 378 549 b 429 581 407 574 421 581 b 446 564 432 581 439 578 b 464 517 453 551 458 535 b 476 431 472 482 475 443 b 482 276 481 379 481 326 b 486 82 485 211 486 147 l 486 64 b 561 6 488 31 517 6 b 636 71 617 6 636 36 b 700 340 636 161 667 257 b 854 574 725 404 782 544 b 863 576 857 575 860 576 b 890 542 878 576 888 554 b 914 378 906 504 913 417 b 921 61 918 272 921 167 b 997 1 921 28 957 1 b 1067 42 1038 1 1058 19 b 1072 74 1069 51 1071 63 l 1072 104 b 1057 431 1072 214 1065 322 b 878 690 1050 539 1014 690 b 619 458 743 690 663 551 b 442 694 608 564 574 694 b 193 479 317 694 238 569 b 203 651 196 536 199 594 l 203 654 b 129 708 203 685 165 708 b 60 653 85 708 63 681 b 47 414 51 575 49 493 l 47 369 b 60 54 47 268 49 156 z "},"n":{"ha":678,"x_min":0,"x_max":0,"o":"m 60 54 b 129 -3 63 25 86 -3 b 203 51 165 -3 197 14 b 360 526 222 203 256 396 b 392 560 367 535 378 549 b 429 581 407 574 421 581 b 436 576 431 581 432 579 b 446 564 439 574 443 569 b 458 535 453 553 457 540 b 476 431 469 500 474 465 b 482 276 481 379 481 326 b 486 82 485 211 486 147 l 486 64 b 561 6 488 31 517 6 b 636 72 607 6 636 26 l 636 103 b 619 465 636 224 632 346 b 442 694 613 538 581 694 b 193 479 317 694 238 569 b 203 651 196 536 199 594 l 203 654 b 129 708 203 685 165 708 b 60 653 85 708 63 681 b 47 414 51 575 49 493 l 47 369 b 60 54 47 268 49 156 z "},"o":{"ha":575,"x_min":0,"x_max":0,"o":"m 31 290 b 261 8 31 186 76 8 b 543 367 485 8 543 239 b 407 692 543 488 500 613 b 339 722 388 707 364 722 b 296 703 319 722 306 710 b 31 290 128 665 31 451 z m 178 338 b 300 583 178 428 207 546 b 310 586 304 585 307 585 b 315 588 313 586 314 588 b 322 589 318 588 319 589 b 329 593 325 590 326 592 b 335 597 331 594 333 596 b 338 600 336 599 338 599 b 436 364 403 539 436 442 b 347 169 436 286 403 222 b 276 132 325 147 300 132 b 178 338 200 132 178 281 z "},"p":{"ha":624,"x_min":0,"x_max":0,"o":"m 53 -242 b 124 -299 53 -274 82 -299 b 196 -242 167 -299 196 -274 b 199 -7 196 -162 197 -85 b 596 476 414 8 596 268 b 388 693 596 571 546 693 b 188 614 308 693 240 656 b 186 624 188 618 186 621 b 178 653 185 633 183 643 b 115 688 169 672 150 688 b 42 632 78 688 42 663 l 42 629 b 57 218 53 493 57 356 b 53 -242 57 64 53 -87 z m 200 107 b 201 242 201 153 201 196 b 196 467 201 317 200 390 b 383 579 240 514 310 579 b 478 476 458 579 478 533 b 200 107 478 335 344 126 z "},"q":{"ha":647,"x_min":0,"x_max":0,"o":"m 67 86 b 228 -6 101 31 163 -6 b 410 88 307 -6 369 39 b 446 -258 411 -7 415 -219 b 517 -286 463 -279 488 -286 b 596 -232 556 -286 596 -268 b 594 -219 596 -228 596 -224 b 561 85 569 -118 561 -18 b 611 651 561 275 593 463 l 611 660 b 542 718 611 690 588 718 b 468 678 507 718 481 700 b 365 697 436 690 401 697 b 31 246 153 697 31 428 b 67 86 31 196 38 133 z m 149 235 b 371 583 149 346 232 583 b 438 565 394 583 418 576 b 389 328 428 514 413 418 b 236 107 371 261 326 107 b 149 235 167 107 149 178 z "},"r":{"ha":560,"x_min":0,"x_max":0,"o":"m 81 64 b 154 4 81 28 103 4 b 244 108 226 4 236 49 b 254 188 249 140 251 172 b 306 400 265 260 278 332 b 471 590 332 467 390 563 b 497 599 481 594 489 596 b 522 606 506 600 515 601 b 550 650 540 614 550 626 b 485 708 550 678 528 708 b 221 496 390 708 265 576 b 203 600 215 531 210 567 b 197 639 201 613 199 625 b 186 678 194 651 190 665 b 119 714 175 703 151 714 b 32 651 74 714 32 692 b 33 639 32 647 32 643 b 86 222 68 500 86 363 b 81 64 86 169 81 117 z "},"s":{"ha":521,"x_min":0,"x_max":0,"o":"m 25 144 b 278 13 25 61 197 13 b 489 206 419 13 489 110 b 367 385 489 293 442 347 b 315 414 350 394 332 404 b 264 444 297 424 281 433 b 210 515 231 467 210 483 b 274 575 210 550 229 575 b 364 528 310 575 343 553 b 369 521 367 525 368 522 b 419 496 378 506 403 496 b 479 550 458 496 479 526 b 406 646 479 588 438 625 b 274 685 368 669 324 685 b 63 506 149 685 63 599 b 194 332 63 422 128 369 b 269 289 218 318 244 304 b 354 190 318 261 354 229 b 257 126 354 153 307 126 b 154 160 208 126 179 143 b 119 182 142 168 131 176 b 79 196 108 190 94 196 b 25 144 40 196 25 165 z "},"t":{"ha":499,"x_min":0,"x_max":0,"o":"m 107 389 b 167 74 107 303 114 153 b 340 -10 200 26 268 -10 b 482 82 407 -10 482 21 b 431 125 482 106 465 125 b 404 121 421 125 413 124 b 383 113 397 119 390 115 b 346 103 369 107 358 103 b 253 385 254 103 253 322 b 263 590 253 454 257 521 l 367 590 b 428 646 408 590 428 622 b 376 701 428 667 414 699 b 275 703 343 704 308 703 b 286 811 279 738 282 775 l 286 815 b 213 878 286 847 260 878 b 140 819 165 878 144 849 b 128 703 135 781 131 742 b 100 704 119 703 110 704 b 63 700 88 703 75 703 b 22 647 38 693 22 678 b 83 590 22 622 40 590 l 117 590 b 107 389 111 522 107 457 z "},"u":{"ha":644,"x_min":0,"x_max":0,"o":"m 175 14 b 265 -10 201 -1 231 -10 b 461 131 365 -10 426 65 b 556 -10 472 86 496 -10 b 614 47 596 -10 614 25 b 608 71 614 57 611 63 b 554 357 569 165 554 258 b 572 649 554 454 567 551 l 572 651 b 514 708 572 675 553 708 b 472 693 496 708 482 701 b 446 606 460 682 453 647 b 422 449 439 564 432 507 b 339 151 406 332 382 207 b 264 103 325 131 290 103 b 228 132 251 103 239 111 b 196 351 199 196 196 282 b 206 564 196 422 200 493 b 215 665 208 597 215 632 b 146 725 215 699 197 725 b 69 668 101 725 74 701 b 60 574 65 636 63 604 b 42 342 51 496 42 418 b 175 14 42 244 54 76 z "},"v":{"ha":607,"x_min":0,"x_max":0,"o":"m 214 22 b 281 -3 231 8 253 -3 b 497 292 406 -3 471 194 b 542 482 514 356 528 418 b 582 636 553 533 567 585 b 585 656 583 642 585 649 b 528 717 585 678 571 717 b 461 642 482 717 471 679 b 449 586 456 621 451 599 b 406 429 439 533 421 482 b 333 193 382 350 360 272 b 307 132 331 176 317 146 b 301 126 304 129 303 128 b 297 131 300 128 299 129 b 292 138 294 133 293 136 b 288 144 290 140 289 143 b 192 576 232 233 204 464 b 183 671 189 607 188 639 b 117 718 178 706 149 718 b 26 651 71 718 26 690 b 214 22 26 528 108 111 z "},"w":{"ha":864,"x_min":0,"x_max":0,"o":"m 104 121 b 242 -1 128 60 169 -1 b 432 168 336 -1 404 86 b 574 13 451 96 483 13 b 796 385 738 13 779 264 b 835 646 810 474 818 561 b 836 657 835 650 836 654 b 775 714 836 682 817 714 b 728 689 751 714 738 703 b 692 547 715 669 696 571 b 665 357 682 483 675 419 b 618 171 657 294 643 232 b 610 149 617 168 614 157 b 601 136 607 143 606 140 b 581 151 596 136 589 140 b 564 193 574 163 568 176 b 553 278 557 228 554 265 b 543 476 549 344 549 410 b 536 525 542 486 540 506 b 531 554 535 536 532 546 b 519 575 528 561 525 569 b 468 593 507 589 488 593 b 383 540 428 593 390 574 b 369 429 376 503 374 467 b 278 115 360 356 329 167 b 269 110 272 111 269 110 b 264 113 268 110 267 111 b 254 124 261 115 258 118 b 247 136 251 128 250 132 b 243 149 246 142 243 146 b 219 235 232 175 225 206 b 186 536 201 333 192 436 b 179 656 183 576 183 615 b 108 713 176 685 153 713 b 35 653 63 713 35 685 l 35 650 b 64 293 40 531 47 411 b 104 121 69 258 79 185 z "},"x":{"ha":579,"x_min":0,"x_max":0,"o":"m 21 68 b 81 11 21 46 40 11 b 139 51 114 11 132 33 b 161 99 144 67 153 83 b 274 271 196 158 235 215 b 374 107 307 215 340 161 b 426 22 392 79 407 50 b 474 -3 435 10 450 -3 b 556 71 524 -3 556 39 b 547 101 556 82 551 90 b 489 197 529 133 508 165 b 369 396 449 264 410 329 b 496 565 413 451 456 507 b 529 607 506 581 517 594 b 547 649 540 621 547 632 b 488 707 547 671 529 707 b 456 699 475 707 465 704 b 424 668 443 692 433 679 b 401 635 415 656 407 643 b 307 504 371 592 338 547 b 240 614 285 540 263 578 b 204 674 229 633 218 656 b 143 704 193 689 169 704 b 51 642 103 704 51 682 b 60 615 51 632 56 624 b 108 538 75 590 93 564 b 208 376 140 485 174 429 b 21 68 164 318 21 122 z "},"y":{"ha":675,"x_min":0,"x_max":0,"o":"m 53 -183 b 254 -289 88 -253 161 -289 b 556 -125 375 -289 490 -228 b 629 206 619 -26 629 99 b 611 599 629 336 611 467 b 614 635 611 610 614 622 b 531 699 614 676 578 699 b 471 674 507 699 485 692 b 468 668 469 672 469 669 b 467 663 468 667 467 664 b 463 646 465 657 464 651 b 457 619 460 635 458 624 b 385 296 438 511 424 401 b 251 144 365 240 322 144 b 189 294 193 144 189 253 b 201 458 189 350 194 404 b 228 640 210 518 228 581 b 160 701 228 672 213 701 b 75 646 119 701 81 681 b 39 321 58 538 39 429 b 243 32 39 224 54 32 b 471 201 365 32 432 122 l 471 165 b 269 -165 471 38 460 -146 l 250 -165 b 163 -137 200 -165 179 -153 l 150 -125 b 103 -101 140 -111 118 -101 b 44 -154 64 -101 44 -132 b 53 -183 44 -165 47 -175 z "},"z":{"ha":565,"x_min":0,"x_max":0,"o":"m 24 129 b 283 7 24 29 197 7 b 515 56 336 7 475 21 b 538 99 529 65 538 82 b 476 156 538 121 517 156 b 439 143 461 156 449 149 b 340 117 410 125 378 117 b 194 153 290 117 239 131 b 276 247 215 182 243 214 b 385 354 311 281 349 318 b 524 579 458 426 524 503 b 311 721 524 706 413 721 b 97 693 274 721 126 708 b 64 643 75 682 64 663 b 121 586 64 619 81 586 b 139 589 128 586 135 588 b 328 610 200 601 265 610 b 363 607 339 610 351 610 b 351 574 361 596 357 585 b 332 532 344 560 338 546 b 300 479 321 514 311 496 b 263 426 289 461 278 443 b 153 314 231 389 192 351 b 49 196 115 275 78 236 b 24 129 33 175 24 154 z "},"{":{"ha":694,"x_min":0,"x_max":0,"o":"m 25 488 b 121 429 25 436 76 429 b 210 429 150 429 181 431 b 193 386 206 414 199 400 b 168 256 176 344 168 299 b 451 -31 168 104 300 -31 b 613 58 500 -31 613 -7 b 540 114 613 88 578 114 b 489 96 514 114 500 104 b 454 82 481 88 467 82 b 324 194 399 82 338 153 b 314 256 317 214 314 235 b 325 328 314 279 318 303 b 344 385 331 344 338 365 b 358 444 353 404 358 425 b 324 511 358 468 344 494 b 390 594 351 535 375 563 b 421 694 407 625 415 661 b 436 804 424 715 428 761 b 481 889 446 847 461 882 b 486 890 482 890 483 890 l 494 890 b 536 888 508 890 524 890 b 563 881 546 886 554 883 b 596 876 572 879 583 876 b 668 933 638 876 668 903 b 608 989 668 960 643 985 b 604 990 607 989 606 989 l 600 990 b 496 1003 571 999 528 1003 b 301 850 374 1003 324 926 b 264 653 283 786 285 718 b 125 553 244 590 182 567 b 96 546 117 550 107 547 b 63 535 85 543 74 539 b 25 488 42 525 25 511 z "},"|":{"ha":375,"x_min":0,"x_max":0,"o":"m 90 -174 b 186 -226 110 -214 140 -226 b 275 -168 228 -226 275 -208 b 267 -144 275 -158 271 -151 b 263 -136 265 -142 264 -139 b 260 -126 261 -133 260 -129 b 253 111 250 -53 253 38 b 276 704 253 308 257 506 b 307 976 285 794 294 886 b 321 1032 311 996 314 1015 b 328 1053 322 1039 325 1046 b 332 1076 331 1061 332 1068 b 240 1135 332 1117 278 1135 b 154 1086 215 1135 154 1121 b 151 1075 153 1082 153 1079 b 139 1035 149 1061 143 1049 b 117 879 125 988 121 929 b 75 125 88 629 75 376 b 75 -29 75 93 74 32 b 90 -174 76 -87 81 -149 z "},"}":{"ha":694,"x_min":0,"x_max":0,"o":"m 82 57 b 242 -31 82 -3 189 -31 b 496 126 358 -31 453 54 b 526 254 518 167 526 213 b 519 324 526 278 524 300 b 485 429 513 360 494 393 l 514 429 b 556 428 526 429 542 429 b 669 486 597 428 669 431 b 617 540 669 510 646 532 b 543 560 590 547 565 553 b 411 747 442 590 424 646 b 393 847 406 781 401 815 b 197 1004 368 944 300 1004 b 25 932 151 1004 25 997 b 97 876 25 904 57 876 b 122 879 107 876 115 876 b 146 883 131 881 138 882 b 196 890 161 888 175 890 l 206 890 b 213 889 208 890 211 890 b 256 811 231 883 246 851 b 271 710 264 772 268 729 b 371 513 282 625 301 568 b 335 442 344 494 335 467 b 351 374 335 419 343 396 b 381 254 367 335 381 296 b 240 82 381 182 318 82 b 219 86 231 82 224 83 b 206 96 214 89 210 92 b 153 114 196 104 183 114 b 82 57 114 114 82 86 z "},"~":{"ha":556,"x_min":0,"x_max":0,"o":"m 104 332 b 158 369 133 332 150 353 b 160 375 158 371 158 372 l 160 376 b 204 401 163 379 192 396 b 243 360 218 388 231 375 b 385 282 274 326 321 282 b 514 417 463 282 499 350 b 521 454 518 429 521 442 b 464 508 521 475 501 508 b 404 469 433 508 411 489 b 393 428 400 457 397 442 b 382 396 390 417 386 407 b 349 415 369 400 360 406 b 332 433 343 421 336 428 b 313 456 325 440 319 449 b 213 517 288 483 258 517 b 33 392 147 517 33 443 b 104 332 33 364 58 332 z "}," ":{"ha":347,"x_min":0,"x_max":0,"o":""},"¡":{"ha":301,"x_min":0,"x_max":0,"o":"m 82 -62 b 90 -153 83 -78 86 -117 b 107 -239 94 -189 100 -226 b 169 -267 118 -258 144 -267 b 239 -211 210 -267 239 -240 b 238 -203 239 -208 239 -206 b 236 -196 238 -200 236 -199 b 232 -139 233 -176 233 -157 b 217 -15 228 -97 221 -56 b 203 265 206 76 203 171 b 203 351 203 289 201 319 b 213 435 204 382 207 411 b 214 443 213 438 214 440 b 215 454 215 447 215 450 b 144 510 215 485 186 510 b 85 482 119 510 97 497 b 61 242 64 454 61 285 b 82 -62 61 140 71 39 z m 89 668 b 176 581 89 638 125 581 b 247 650 226 581 247 622 b 244 672 247 657 247 664 b 231 692 242 679 236 686 b 217 708 226 699 221 703 b 160 735 204 721 186 735 b 89 668 114 735 89 697 z "},"¢":{"ha":618,"x_min":0,"x_max":0,"o":"m 47 450 b 244 172 47 349 106 213 b 250 89 246 157 247 122 b 267 4 253 56 258 17 b 318 -22 276 -10 294 -22 b 376 32 357 -22 376 8 b 375 44 376 36 375 40 b 363 169 367 86 364 128 b 506 265 424 185 474 226 b 571 396 529 292 571 361 b 514 450 571 419 553 450 b 460 417 485 450 468 433 b 414 343 446 393 432 367 b 361 293 400 324 382 306 b 375 663 361 417 367 540 b 418 643 385 661 415 654 b 425 625 421 638 422 631 b 486 578 438 594 446 578 b 542 632 529 578 542 610 b 396 776 542 694 474 761 b 381 779 390 778 386 778 b 393 925 385 828 386 878 b 394 935 393 929 394 932 b 335 992 394 958 375 992 b 283 960 310 992 292 976 b 268 868 275 944 271 906 b 263 776 265 832 264 797 b 172 733 229 768 197 753 b 47 450 90 669 47 538 z m 208 471 b 254 631 208 519 219 588 b 243 324 250 528 246 426 b 208 471 217 368 208 424 z "},"£":{"ha":694,"x_min":0,"x_max":0,"o":"m 61 61 b 175 -6 61 18 119 1 b 294 -11 215 -11 261 -11 b 613 90 404 -11 538 0 b 647 178 632 114 647 150 b 592 235 647 199 635 235 b 544 214 571 235 554 225 b 535 196 540 208 538 201 b 531 179 533 190 532 185 b 378 103 515 119 456 103 b 246 111 335 103 290 108 b 313 385 300 197 313 289 b 311 429 313 399 313 414 b 442 439 354 432 399 433 b 493 496 479 443 493 475 b 432 551 493 519 471 551 b 383 547 417 551 399 549 b 306 543 357 546 332 543 b 303 615 304 567 303 592 b 393 854 303 707 304 794 b 453 878 411 867 432 878 b 486 835 476 878 486 858 b 476 769 486 814 476 792 b 535 707 476 749 486 707 b 596 772 581 707 596 749 b 600 814 596 786 600 800 b 400 1001 600 886 508 1001 b 164 713 226 1001 172 808 b 163 678 163 703 163 690 b 165 538 163 631 165 585 l 164 538 b 150 543 158 538 157 539 b 121 551 144 547 136 551 b 97 547 113 551 104 550 b 46 490 72 538 46 519 b 136 428 46 440 94 428 b 168 425 147 426 158 426 b 169 364 169 404 169 385 l 169 307 b 128 175 169 254 156 219 b 78 101 114 151 96 126 b 61 61 69 90 61 75 z "},"¤":{"ha":556,"x_min":0,"x_max":0,"o":"m 47 329 b 107 272 47 307 65 272 b 151 294 128 272 142 283 b 167 313 157 300 161 307 b 179 326 171 318 175 322 b 182 329 181 326 181 328 l 185 329 b 189 328 186 328 188 328 b 239 321 206 322 222 321 b 333 342 272 321 306 328 b 438 278 356 319 403 278 b 497 336 479 278 497 313 b 456 392 497 363 475 381 b 431 408 446 399 438 404 b 422 418 424 414 422 417 b 428 429 422 421 425 425 b 435 442 431 433 433 438 b 451 508 446 464 450 486 l 451 514 b 431 597 451 542 442 571 b 433 601 431 599 432 600 b 439 608 435 604 436 607 b 464 629 447 615 456 622 b 468 632 465 629 467 631 b 475 635 471 632 472 633 b 511 689 497 642 511 667 b 451 740 511 711 489 740 b 356 692 417 740 382 714 b 336 708 350 697 343 703 b 294 724 325 715 310 724 b 251 715 282 724 261 722 b 206 699 233 711 219 707 b 183 715 200 703 192 708 b 167 729 178 721 172 725 b 161 735 164 732 163 733 l 160 736 b 110 768 151 750 139 768 b 47 708 69 768 47 732 b 57 678 47 700 50 688 b 94 642 63 669 79 656 b 131 611 108 631 121 618 b 89 467 104 567 89 515 b 99 410 89 447 92 428 b 47 329 74 389 47 361 z m 207 468 b 253 583 207 506 226 549 b 296 567 264 574 276 567 b 311 568 301 567 306 567 b 333 511 324 550 333 531 b 243 433 333 475 290 433 b 207 468 214 433 207 443 z "},"¥":{"ha":758,"x_min":0,"x_max":0,"o":"m 126 214 b 192 158 126 183 146 158 b 253 164 213 158 232 161 b 299 169 268 165 283 168 b 300 101 299 151 297 126 b 389 3 303 39 319 3 b 467 61 431 3 467 26 b 465 71 467 64 465 67 b 460 136 461 93 460 114 b 461 185 460 153 460 169 b 508 189 474 186 492 188 b 542 193 521 190 532 192 b 564 197 550 194 558 196 b 606 257 592 210 606 235 b 547 313 606 279 586 313 b 525 308 538 313 532 310 b 492 300 514 303 503 301 l 464 300 b 467 353 465 317 465 335 b 526 357 482 354 504 356 b 593 365 553 358 581 361 b 633 418 622 375 633 396 b 571 475 633 439 613 479 l 499 469 b 586 610 532 514 563 561 b 717 949 608 660 717 903 b 636 1007 717 982 675 1007 b 572 964 601 1007 579 989 b 488 757 553 893 519 825 b 372 544 464 701 414 586 b 360 564 368 550 364 557 b 282 714 335 614 308 664 b 164 943 243 792 199 867 b 108 981 156 961 139 981 b 47 922 65 981 47 944 b 50 904 47 917 49 910 b 86 836 58 882 74 858 b 164 692 111 788 138 739 b 254 510 194 631 218 569 b 286 467 264 494 274 481 b 297 456 289 463 292 460 l 228 451 b 194 453 218 451 206 451 b 110 393 154 453 110 444 b 176 335 110 367 132 335 b 190 338 182 335 188 336 b 193 339 190 338 192 339 b 303 342 229 339 267 340 b 301 282 303 322 301 303 b 213 272 272 279 242 275 b 186 271 203 272 194 272 b 126 214 154 271 126 247 z "},"¦":{"ha":347,"x_min":0,"x_max":0,"o":"m 92 -153 b 169 -199 96 -183 136 -199 b 268 -132 217 -199 268 -175 b 261 -37 268 -100 264 -68 b 254 133 258 19 256 76 b 251 225 253 165 251 194 b 254 301 251 251 251 276 b 265 385 257 329 265 358 b 186 436 265 419 219 436 b 97 400 153 436 118 422 b 88 372 90 392 89 382 b 75 196 76 307 75 261 b 92 -153 75 81 79 -37 z m 99 549 b 176 501 103 518 143 501 b 275 571 226 501 275 526 b 268 664 275 601 271 633 b 261 835 265 721 263 779 b 258 922 260 864 258 893 b 265 1033 258 960 261 997 b 272 1082 267 1050 272 1067 b 192 1138 272 1118 231 1138 b 104 1100 157 1138 122 1124 b 94 1068 96 1090 94 1078 b 93 1060 94 1065 94 1063 b 85 985 85 1036 85 1010 b 82 883 83 951 82 918 b 99 549 82 772 86 658 z "},"§":{"ha":732,"x_min":0,"x_max":0,"o":"m 38 204 b 210 79 38 153 168 96 b 396 42 268 58 331 42 b 611 207 515 42 611 114 b 535 367 611 268 575 319 b 614 494 597 392 614 444 b 576 622 614 538 603 585 b 513 686 563 644 539 665 b 425 747 485 707 454 726 b 319 858 365 790 319 826 b 424 922 319 899 371 922 b 469 913 440 922 456 919 b 506 897 476 910 492 904 b 535 879 519 889 532 882 b 611 843 553 860 575 843 b 683 900 651 843 683 867 b 642 951 683 924 665 940 b 635 958 642 951 636 958 b 425 1035 590 999 493 1035 b 178 858 299 1035 178 965 b 210 769 178 826 190 797 b 139 647 163 738 139 697 b 288 421 139 554 222 479 b 358 360 313 400 336 381 b 471 208 401 319 471 257 b 388 156 471 175 432 156 b 333 164 369 156 350 158 b 153 249 261 181 210 208 b 110 261 140 257 125 261 b 38 204 69 261 38 235 z m 339 546 b 281 644 306 581 281 615 b 301 685 281 664 286 674 b 357 647 319 672 338 660 b 415 606 378 633 397 619 b 472 497 449 578 472 546 l 472 474 b 468 467 471 468 469 467 b 457 463 467 465 464 464 b 435 460 451 461 444 461 b 339 546 408 483 371 513 z "},"¨":{"ha":424,"x_min":0,"x_max":0,"o":"m 89 781 b 149 839 133 781 149 815 b 88 915 149 879 133 915 b 28 856 42 915 28 879 b 89 781 28 817 43 781 z m 276 854 b 335 797 276 833 294 797 b 397 858 376 797 397 835 b 338 915 397 882 379 915 b 276 854 296 915 276 878 z "},"©":{"ha":1049,"x_min":0,"x_max":0,"o":"m 296 351 b 490 140 296 263 342 140 b 690 224 568 140 646 172 b 706 264 700 235 706 250 b 650 321 706 283 690 321 b 606 303 628 321 615 313 b 593 290 601 299 597 294 b 490 251 574 265 519 251 b 413 346 432 251 413 301 b 489 522 413 404 444 475 b 515 547 494 531 504 540 b 546 561 526 556 538 561 b 572 543 551 561 565 551 b 575 533 574 540 574 538 b 583 510 576 526 579 518 b 639 474 590 493 606 474 b 700 529 679 474 700 506 b 696 550 700 536 699 543 b 688 575 692 558 690 567 b 675 601 685 585 681 594 b 547 674 651 635 603 674 b 296 351 383 674 296 443 z m 53 338 b 508 -93 53 129 200 -93 b 990 478 875 -93 990 254 b 724 865 990 631 925 800 b 703 869 718 867 710 869 b 679 864 692 869 685 867 b 676 863 678 864 678 863 b 617 874 658 871 636 874 b 53 338 322 874 53 642 z m 169 347 b 611 760 169 575 392 760 b 644 750 632 760 638 756 b 650 744 646 749 649 747 b 658 740 653 743 656 742 b 686 735 665 736 675 735 b 714 742 699 735 708 739 b 718 744 715 743 718 743 b 726 740 721 743 724 742 b 742 732 733 738 740 733 b 872 474 839 679 872 578 b 508 18 872 293 783 18 b 169 347 314 18 169 146 z "},"«":{"ha":664,"x_min":0,"x_max":0,"o":"m 308 83 b 369 142 351 83 369 115 b 318 196 369 174 346 189 b 301 197 313 196 307 197 b 289 200 297 199 293 199 b 160 292 247 211 160 264 b 231 400 160 315 190 356 b 289 463 250 422 271 443 b 332 513 307 483 322 499 b 338 524 333 515 335 519 b 343 531 339 526 340 528 b 347 532 344 531 346 532 b 353 535 349 533 351 533 b 388 586 375 542 388 564 b 332 642 388 607 371 642 b 239 586 285 642 256 608 b 182 519 224 564 203 542 b 118 450 161 496 138 474 b 42 294 76 401 42 350 b 308 83 42 183 213 83 z m 333 339 b 394 221 333 292 351 253 b 538 143 436 189 489 164 b 558 139 544 142 551 139 b 618 194 599 139 618 172 b 588 246 618 211 610 235 b 503 286 568 257 533 271 b 451 338 472 304 451 321 b 558 510 451 379 517 499 b 608 565 592 518 608 542 b 547 622 608 590 589 622 b 333 339 442 622 333 429 z "},"¬":{"ha":579,"x_min":0,"x_max":0,"o":"m 92 493 b 129 493 104 493 117 493 b 167 499 142 494 154 497 b 281 517 196 503 239 510 b 390 528 324 522 363 528 b 396 506 393 521 394 514 b 410 375 401 463 406 419 b 414 321 411 357 411 339 b 478 269 418 297 438 269 b 536 322 517 269 536 299 b 533 340 536 329 535 335 b 531 356 532 346 531 351 b 519 492 528 386 528 440 b 390 642 510 572 482 642 b 376 640 385 642 381 640 b 85 603 279 632 182 614 b 32 546 46 600 32 568 b 92 493 32 522 51 493 z "},"­":{"ha":0,"x_min":0,"x_max":0,"o":""},"®":{"ha":860,"x_min":0,"x_max":0,"o":"m 414 314 b 647 390 503 314 583 347 b 806 717 768 476 806 599 b 664 1015 806 826 774 936 b 569 1096 660 1047 594 1085 b 485 1110 544 1106 513 1110 b 51 718 271 1110 51 943 b 414 314 51 510 192 314 z m 169 717 b 238 883 169 781 193 836 b 231 856 232 875 231 865 b 232 843 231 851 231 847 b 235 833 233 840 235 838 b 238 794 238 822 238 810 b 236 753 238 779 236 764 b 239 588 238 699 238 642 b 242 506 240 561 239 533 b 169 717 193 565 169 651 z m 356 694 b 354 810 356 732 356 771 b 393 813 367 811 381 813 b 428 786 410 813 428 799 b 356 694 428 757 389 721 z m 329 444 b 365 496 353 454 365 479 b 364 508 365 500 365 504 b 360 546 361 521 360 533 b 385 539 368 543 376 540 b 428 528 399 535 413 532 b 478 514 439 525 458 519 b 531 503 497 508 518 503 b 594 560 574 503 594 531 b 546 615 594 583 581 610 b 467 635 518 619 493 628 b 547 786 510 678 547 728 b 388 924 547 856 486 924 b 319 918 364 924 340 922 b 300 921 313 921 307 921 b 269 915 288 921 278 919 b 479 997 325 963 400 997 b 531 988 497 997 515 994 b 560 942 532 971 540 951 b 689 713 657 894 689 818 b 539 457 689 614 647 511 b 421 426 504 440 460 426 b 329 444 389 426 356 433 z "},"¯":{"ha":465,"x_min":0,"x_max":0,"o":"m 76 808 b 185 801 111 803 149 801 b 382 811 250 801 318 806 b 429 832 399 813 419 818 b 440 867 438 842 440 856 b 383 924 440 888 425 924 l 381 924 b 143 917 303 921 222 917 b 114 917 133 917 122 915 b 101 919 110 918 106 918 b 85 921 96 919 90 921 b 25 863 43 921 25 886 b 76 808 25 840 39 814 z "},"°":{"ha":469,"x_min":0,"x_max":0,"o":"m 44 724 b 224 532 44 649 99 532 b 422 781 381 532 422 694 b 376 908 422 829 411 865 b 346 960 378 924 368 950 b 257 983 322 972 289 983 b 44 724 144 983 44 824 z m 163 724 b 168 753 163 733 164 743 b 236 857 176 782 211 838 b 258 871 246 865 253 869 b 288 832 268 858 279 846 b 304 793 296 819 303 807 b 306 775 306 788 306 782 b 226 643 306 731 283 643 b 163 724 185 643 163 690 z "},"±":{"ha":592,"x_min":0,"x_max":0,"o":"m 94 18 b 163 15 117 15 139 15 b 301 14 208 15 256 14 b 500 33 368 14 433 18 b 550 89 535 42 550 64 b 492 146 550 111 535 146 b 478 144 488 146 482 146 b 372 128 443 139 408 131 b 311 126 351 126 332 126 b 114 131 244 126 179 131 b 43 72 67 131 43 108 b 94 18 43 51 57 22 z m 64 410 b 218 386 89 388 182 386 b 231 308 221 367 225 338 b 253 228 236 278 244 244 b 308 190 260 211 276 190 b 368 247 349 190 368 224 b 363 275 368 257 365 267 b 346 335 356 290 350 313 b 338 388 343 353 340 372 b 439 390 371 388 406 389 l 461 390 b 535 447 497 390 535 404 b 474 504 535 472 517 504 b 421 503 456 504 439 503 b 321 499 388 501 353 500 b 315 579 318 525 315 553 b 342 625 335 590 342 608 b 286 682 342 646 328 682 b 196 600 213 682 196 647 b 201 499 196 567 197 533 b 124 506 176 500 138 501 b 103 508 118 507 113 508 b 43 453 63 508 43 475 b 64 410 43 436 50 421 z "},"²":{"ha":486,"x_min":0,"x_max":0,"o":"m 135 722 b 231 651 135 678 174 651 b 311 661 257 651 286 657 b 346 668 324 664 336 667 b 375 671 357 671 367 671 b 392 669 381 671 386 669 b 451 725 433 669 451 701 b 375 785 451 765 425 785 b 318 778 354 785 336 782 b 286 772 307 776 297 774 b 357 1019 332 850 357 929 b 240 1168 357 1068 339 1168 b 31 994 154 1168 31 1090 b 94 931 31 969 47 931 b 176 988 139 931 176 943 b 165 1019 176 999 172 1010 b 235 1054 185 1035 213 1053 b 238 1042 236 1051 236 1047 b 238 1017 239 1031 238 1019 b 199 854 238 961 224 907 b 160 792 189 835 172 814 b 135 722 147 769 135 746 z "},"³":{"ha":422,"x_min":0,"x_max":0,"o":"m 53 731 b 161 657 53 682 110 657 b 381 838 263 657 381 725 b 313 943 381 879 361 922 b 340 1026 332 968 340 997 b 203 1160 340 1085 294 1160 b 54 1092 139 1160 88 1129 b 25 1032 42 1075 25 1054 b 97 972 25 1003 53 972 b 147 1003 126 972 140 989 b 154 1024 151 1010 153 1018 l 154 1029 b 203 1046 165 1038 186 1046 b 224 1031 213 1046 224 1038 b 185 988 224 1018 208 1003 b 150 967 174 979 161 972 b 121 950 139 960 128 954 b 83 896 97 938 83 919 b 138 838 83 876 97 838 b 163 839 146 838 154 838 b 186 842 171 839 178 840 b 232 846 203 844 217 846 b 256 844 240 846 249 846 b 263 838 261 843 263 840 b 163 769 263 803 210 769 b 146 776 156 769 153 772 b 113 788 139 781 129 788 b 53 731 72 788 53 754 z "},"´":{"ha":326,"x_min":0,"x_max":0,"o":"m 29 864 b 89 808 29 839 44 808 b 119 815 101 808 111 811 b 176 857 139 829 158 843 b 235 893 196 869 214 882 b 244 896 238 894 240 894 b 254 899 247 897 251 899 b 278 911 261 901 271 904 b 299 953 292 922 299 938 b 242 1010 299 974 283 1010 b 138 968 211 1010 172 990 b 50 908 103 946 69 922 b 29 864 35 896 29 879 z "},"¶":{"ha":717,"x_min":0,"x_max":0,"o":"m 43 676 b 225 442 43 600 83 442 b 254 444 235 442 244 443 b 253 389 253 426 253 407 b 274 89 253 289 261 189 b 304 -22 276 56 283 6 b 343 -40 314 -32 326 -40 b 415 29 392 -40 415 1 b 404 61 415 44 410 54 b 397 68 401 63 400 65 l 396 69 b 385 163 389 100 388 132 b 371 388 376 238 371 313 b 374 485 371 421 372 453 b 376 522 375 496 376 510 b 317 583 376 546 358 583 b 292 578 307 583 299 581 b 268 568 283 575 276 572 b 224 556 253 561 239 556 b 161 675 179 556 161 642 b 306 872 161 758 207 838 b 453 893 353 890 400 893 b 443 658 446 815 443 736 b 444 347 443 619 442 482 b 471 50 447 213 453 76 b 524 21 481 35 497 21 b 583 81 568 21 583 57 b 581 97 583 86 582 92 b 565 207 571 124 567 165 b 564 322 564 249 564 292 b 561 592 563 411 561 501 b 563 750 561 610 561 682 b 571 885 564 813 567 867 b 614 882 585 883 600 882 b 674 939 656 882 674 917 b 606 997 674 971 651 997 b 594 997 603 997 599 996 l 585 997 b 472 1007 547 1003 511 1007 b 113 875 336 1007 206 986 b 43 676 65 818 43 742 z "},"·":{"ha":197,"x_min":0,"x_max":0,"o":"m 25 482 b 89 424 25 456 46 424 b 140 443 110 424 126 432 b 151 456 144 447 149 451 b 154 461 151 457 153 460 b 158 467 156 463 157 464 b 171 500 167 476 171 489 b 114 557 171 521 153 557 b 25 482 72 557 25 510 z "},"¸":{"ha":182,"x_min":0,"x_max":0,"o":"m 51 -279 b 108 -336 51 -301 68 -336 b 140 -326 121 -336 131 -332 b 279 -161 213 -286 279 -240 b 136 -26 279 -90 217 -46 b 150 -7 142 -19 146 -14 b 160 28 156 4 160 15 b 103 86 160 51 143 86 b 86 83 96 86 90 85 b 50 56 67 79 56 67 b 13 0 40 39 25 19 b -10 -61 0 -19 -10 -40 b 33 -126 -10 -83 4 -114 b 74 -133 46 -131 61 -132 l 93 -133 b 110 -136 99 -135 104 -135 b 158 -158 124 -139 153 -151 l 158 -161 b 121 -204 158 -176 143 -190 b 89 -225 110 -211 99 -218 b 51 -279 67 -236 51 -254 z "},"¹":{"ha":393,"x_min":0,"x_max":0,"o":"m 26 985 b 86 928 26 963 47 928 b 118 938 100 928 110 932 b 175 982 135 949 156 965 b 214 1014 188 993 201 1004 b 229 749 217 925 215 836 b 289 693 232 731 249 693 b 350 747 329 693 350 724 b 349 760 350 751 349 756 b 346 769 347 763 346 767 b 332 1032 332 856 335 946 b 331 1078 332 1047 331 1063 b 258 1172 326 1121 313 1172 b 147 1111 231 1172 186 1140 b 51 1031 108 1081 69 1044 b 26 985 36 1019 26 1003 z "},"»":{"ha":689,"x_min":0,"x_max":0,"o":"m 64 185 b 124 128 64 161 82 128 b 156 138 136 128 147 132 b 328 357 229 189 328 258 b 178 563 328 446 257 528 b 161 569 172 565 167 567 b 142 581 154 571 147 575 b 139 583 142 582 140 582 b 135 588 138 585 136 586 b 103 597 128 593 118 597 b 42 539 61 597 42 563 b 83 479 42 506 60 490 b 118 464 94 474 107 469 b 196 399 154 450 175 432 b 208 357 203 385 208 371 b 163 289 208 338 189 314 b 86 228 136 267 106 244 b 64 185 71 217 64 201 z m 360 221 b 419 165 360 197 379 165 b 442 169 428 165 435 168 b 646 356 546 201 646 254 b 488 572 646 444 554 521 b 428 632 489 597 474 632 b 357 564 381 632 357 592 b 393 500 357 539 372 517 b 476 429 413 485 447 458 b 529 356 507 401 529 374 b 478 306 529 335 508 319 b 431 288 463 299 446 293 b 389 271 415 281 400 276 b 360 221 368 261 360 236 z "},"¼":{"ha":803,"x_min":0,"x_max":0,"o":"m 113 33 b 171 -24 113 11 129 -24 b 229 15 200 -24 222 -1 b 243 60 235 31 238 44 b 301 174 260 99 281 138 b 496 504 364 285 432 394 b 661 851 561 617 619 728 b 676 894 665 865 671 881 b 708 942 700 906 708 924 b 650 1000 708 964 692 1000 b 572 944 611 1000 582 964 b 521 811 550 903 539 854 b 436 638 497 751 468 694 b 197 229 358 500 275 365 b 113 33 175 189 113 74 z m 457 253 b 556 150 457 207 478 150 b 626 169 582 150 606 158 b 628 118 625 154 625 135 b 685 63 632 92 644 63 b 747 119 726 63 747 94 b 744 154 747 132 744 143 b 750 275 744 193 750 235 b 682 351 750 317 728 351 b 643 339 667 351 654 346 b 613 310 632 331 621 321 b 585 281 603 300 593 290 b 579 276 582 279 581 278 b 601 361 582 304 592 335 b 607 374 603 367 604 371 b 608 378 607 375 608 378 b 643 429 631 390 643 401 b 583 485 643 451 624 485 b 518 450 560 485 529 463 b 483 378 500 428 490 401 b 465 317 478 358 471 338 b 457 253 461 294 457 275 z m 42 860 b 106 803 42 833 64 803 b 146 815 119 803 133 810 b 153 819 147 817 150 818 b 135 610 144 750 135 681 b 147 547 135 592 136 567 b 200 515 153 533 178 515 b 264 574 242 515 264 547 b 258 593 264 582 261 589 b 256 600 257 596 256 599 b 254 604 254 601 254 603 b 278 879 254 694 272 789 l 278 897 b 206 982 278 942 256 982 b 176 976 194 982 185 979 b 121 939 158 968 138 953 b 100 922 114 932 106 926 b 89 914 97 919 94 918 l 86 914 b 79 913 83 914 81 913 b 42 860 53 904 42 875 z "},"½":{"ha":868,"x_min":0,"x_max":0,"o":"m 96 3 b 160 -58 96 -25 117 -58 b 225 0 203 -58 225 -26 b 221 22 225 7 224 15 b 246 76 228 40 236 60 b 460 475 308 211 383 344 b 650 810 525 586 593 696 b 696 896 665 838 681 867 b 724 944 704 913 713 929 b 746 993 735 958 746 974 b 686 1049 746 1017 728 1049 b 639 1028 663 1049 649 1038 b 549 863 610 999 564 903 b 481 742 526 821 504 782 b 263 365 446 683 350 522 b 96 3 175 208 96 51 z m 526 47 b 588 -12 526 24 544 -12 b 618 -11 597 -12 608 -12 b 647 -6 628 -10 638 -7 b 706 1 668 -1 686 1 l 739 1 b 774 4 751 1 763 3 b 825 47 797 10 818 21 b 826 63 826 51 826 57 b 771 119 826 82 813 119 b 753 117 764 119 757 118 b 746 114 750 115 749 115 b 708 115 733 114 721 115 b 772 343 749 186 772 267 b 658 488 772 419 747 488 b 571 469 628 488 596 479 b 499 432 556 463 511 443 b 474 382 482 418 474 400 b 535 324 474 358 490 324 b 567 333 550 324 560 328 b 576 343 571 336 574 340 b 585 351 579 346 582 349 b 653 374 593 358 631 371 l 653 349 b 578 129 653 275 628 193 b 546 93 568 117 556 106 b 526 47 536 79 526 64 z m 42 868 b 107 810 42 843 65 810 b 151 824 122 810 138 815 b 149 619 149 756 149 688 b 150 542 149 594 147 568 b 208 493 153 521 174 493 b 271 549 249 493 271 525 b 269 561 271 553 269 557 b 267 590 267 571 267 581 l 267 618 b 272 847 267 696 265 772 b 279 922 275 872 279 897 b 213 994 279 949 267 994 b 144 963 183 994 161 978 b 118 939 135 954 126 946 b 97 924 111 932 104 926 l 89 924 b 42 868 58 918 42 889 z "},"¾":{"ha":935,"x_min":0,"x_max":0,"o":"m 188 90 b 251 33 188 64 210 33 b 324 96 294 33 324 68 b 321 114 324 103 322 108 b 632 703 418 313 535 504 b 728 901 667 768 697 835 b 747 936 736 918 743 931 b 767 979 758 949 767 961 b 707 1033 767 1003 747 1033 b 654 1008 681 1033 665 1019 b 619 943 642 994 628 961 b 551 797 594 894 574 846 b 221 176 447 589 326 385 b 188 90 208 154 188 117 z m 661 131 b 753 164 696 131 728 146 l 753 156 b 815 67 753 114 764 67 b 876 129 860 67 876 107 l 876 139 b 874 149 875 143 874 146 b 871 165 872 154 871 160 b 889 331 871 219 881 276 b 890 346 890 336 890 342 b 826 407 890 372 872 407 b 779 385 804 407 789 396 b 724 301 769 372 749 335 b 688 258 711 285 699 271 b 665 243 676 249 669 244 b 664 247 665 244 664 244 b 653 304 656 258 653 290 b 706 388 653 346 674 367 b 721 400 711 390 715 394 b 735 436 729 410 735 421 b 676 493 735 458 717 493 b 653 488 667 493 660 492 b 535 304 571 451 535 372 b 661 131 535 225 567 131 z m 47 561 b 151 500 47 507 106 500 b 367 638 247 500 343 571 b 374 683 371 653 374 668 b 290 789 374 729 349 772 b 354 908 324 822 354 863 b 200 1019 354 979 285 1019 b 63 907 113 1019 63 972 b 124 842 63 883 76 842 b 182 900 164 842 182 879 l 182 906 l 183 906 b 231 901 201 906 217 906 b 163 832 218 881 190 857 b 119 796 147 819 132 807 b 94 764 108 785 99 774 b 92 746 93 757 92 751 b 172 683 92 706 124 683 b 222 685 189 683 206 685 b 256 682 235 685 246 685 b 153 613 254 653 189 613 b 132 615 146 613 139 614 b 119 617 128 615 124 615 l 108 617 b 47 561 65 617 47 585 z "},"¿":{"ha":526,"x_min":0,"x_max":0,"o":"m -18 -100 b 183 -269 -18 -190 57 -269 b 503 -46 335 -269 460 -144 b 508 -19 506 -37 508 -28 b 449 39 508 4 490 39 b 383 -14 414 39 397 14 b 175 -162 360 -85 247 -162 b 113 -119 138 -162 113 -149 b 160 -10 113 -85 138 -43 b 331 226 214 71 279 146 b 392 438 372 293 392 360 b 314 533 392 488 372 533 b 222 472 274 533 222 508 b 224 458 222 468 222 464 b 228 447 225 456 226 451 b 232 424 229 439 232 431 b 225 385 232 410 229 397 b 161 243 213 335 189 288 b 53 75 135 199 92 138 b -18 -100 15 14 -18 -50 z m 204 619 b 282 563 204 586 240 563 b 371 665 358 563 371 603 b 358 726 371 686 369 708 b 289 761 347 747 326 761 b 201 703 251 761 201 738 b 203 690 201 699 201 694 b 207 681 204 688 206 685 b 208 678 207 681 208 681 l 208 663 b 204 619 208 647 204 633 z "},"À":{"ha":669,"x_min":0,"x_max":0,"o":"m 18 42 b 81 -15 18 18 40 -15 b 125 8 103 -15 117 -4 b 138 44 133 18 136 32 b 143 79 140 57 140 69 b 188 272 157 144 171 208 b 425 288 267 279 344 288 l 444 288 b 481 38 453 204 463 119 b 550 -12 490 4 515 -12 b 626 49 593 -12 626 14 b 625 58 626 51 625 54 b 571 492 601 201 582 346 b 543 863 561 614 560 739 b 432 999 535 926 507 999 b 294 889 369 999 325 938 b 39 157 157 669 93 393 b 25 100 35 139 29 119 b 18 42 21 81 18 61 z m 296 1163 b 308 1160 299 1161 304 1161 l 315 1160 b 375 1119 329 1153 350 1138 b 438 1069 399 1100 422 1081 b 476 1056 447 1063 460 1056 b 536 1114 518 1056 536 1090 b 522 1150 536 1126 531 1139 b 403 1240 507 1167 425 1225 b 311 1276 381 1254 347 1276 b 246 1221 268 1276 246 1247 b 296 1163 246 1196 263 1171 z m 218 388 b 379 804 257 526 308 678 b 390 817 383 810 388 815 b 394 821 392 818 393 819 b 397 817 394 819 396 818 b 404 799 400 814 401 807 b 410 758 407 782 410 765 b 418 603 415 708 417 656 b 432 400 419 536 426 468 b 218 388 360 400 290 394 z "},"Á":{"ha":669,"x_min":0,"x_max":0,"o":"m 18 42 b 81 -15 18 18 40 -15 b 125 8 103 -15 117 -4 b 138 44 133 18 136 32 b 143 79 140 57 140 69 b 188 272 157 144 171 208 b 425 288 267 279 344 288 l 444 288 b 481 38 453 204 463 119 b 550 -12 490 4 515 -12 b 626 49 593 -12 626 14 b 625 58 626 51 625 54 b 571 492 601 201 582 346 b 543 863 561 614 560 739 b 432 999 535 926 507 999 b 294 889 369 999 325 938 b 39 157 157 669 93 393 b 25 100 35 139 29 119 b 18 42 21 81 18 61 z m 335 1161 b 396 1106 335 1139 353 1106 b 436 1121 413 1106 426 1111 b 517 1196 447 1132 510 1193 b 524 1199 517 1196 524 1199 b 528 1200 525 1199 526 1199 b 557 1250 550 1211 557 1232 b 497 1308 557 1274 540 1308 b 472 1304 489 1308 479 1307 b 350 1197 446 1293 371 1221 b 335 1161 339 1186 335 1175 z m 218 388 b 379 804 257 526 308 678 b 390 817 383 810 388 815 b 394 821 392 818 393 819 b 397 817 394 819 396 818 b 404 799 400 814 401 807 b 410 758 407 782 410 765 b 418 603 415 708 417 656 b 432 400 419 536 426 468 b 218 388 360 400 290 394 z "},"Â":{"ha":669,"x_min":0,"x_max":0,"o":"m 18 42 b 81 -15 18 18 40 -15 b 125 8 103 -15 117 -4 b 138 44 133 18 136 32 b 143 79 140 57 140 69 b 188 272 157 144 171 208 b 425 288 267 279 344 288 l 444 288 b 481 38 453 204 463 119 b 550 -12 490 4 515 -12 b 626 49 593 -12 626 14 b 625 58 626 51 625 54 b 571 492 601 201 582 346 b 543 863 561 614 560 739 b 432 999 535 926 507 999 b 294 889 369 999 325 938 b 39 157 157 669 93 393 b 25 100 35 139 29 119 b 18 42 21 81 18 61 z m 214 1121 b 275 1061 214 1097 233 1061 b 303 1067 285 1061 294 1064 b 365 1126 319 1074 343 1101 b 414 1183 383 1146 401 1168 b 501 1096 443 1154 471 1124 b 542 1082 513 1086 526 1082 b 600 1139 582 1082 600 1117 b 586 1175 600 1151 596 1164 b 457 1297 558 1204 492 1274 b 413 1311 446 1306 431 1311 b 358 1292 390 1311 371 1301 b 313 1246 343 1281 328 1263 b 271 1196 297 1228 282 1208 b 261 1182 268 1192 264 1188 b 250 1171 257 1178 254 1174 l 247 1169 b 244 1168 247 1169 246 1169 b 242 1167 243 1168 243 1167 b 214 1121 224 1154 214 1139 z m 218 388 b 379 804 257 526 308 678 b 390 817 383 810 388 815 b 394 821 392 818 393 819 b 397 817 394 819 396 818 b 404 799 400 814 401 807 b 410 758 407 782 410 765 b 418 603 415 708 417 656 b 432 400 419 536 426 468 b 218 388 360 400 290 394 z "},"Ã":{"ha":669,"x_min":0,"x_max":0,"o":"m 18 42 b 81 -15 18 18 40 -15 b 125 8 103 -15 117 -4 b 138 44 133 18 136 32 b 143 79 140 57 140 69 b 188 272 157 144 171 208 b 425 288 267 279 344 288 l 444 288 b 481 38 453 204 463 119 b 550 -12 490 4 515 -12 b 626 49 593 -12 626 14 b 625 58 626 51 625 54 b 571 492 601 201 582 346 b 543 863 561 614 560 739 b 432 999 535 926 507 999 b 294 889 369 999 325 938 b 39 157 157 669 93 393 b 25 100 35 139 29 119 b 18 42 21 81 18 61 z m 296 1119 b 347 1150 324 1119 340 1133 b 461 1100 376 1126 414 1100 b 572 1219 532 1100 572 1178 b 508 1283 572 1243 553 1283 b 450 1225 467 1283 450 1246 b 451 1217 450 1221 450 1219 l 451 1215 b 440 1224 449 1218 444 1221 b 410 1250 432 1232 421 1242 b 326 1293 388 1269 356 1293 b 226 1183 260 1293 226 1219 b 296 1119 226 1154 249 1119 z m 218 388 b 379 804 257 526 308 678 b 390 817 383 810 388 815 b 394 821 392 818 393 819 b 397 817 394 819 396 818 b 404 799 400 814 401 807 b 410 758 407 782 410 765 b 418 603 415 708 417 656 b 432 400 419 536 426 468 b 218 388 360 400 290 394 z "},"Ä":{"ha":669,"x_min":0,"x_max":0,"o":"m 18 42 b 81 -15 18 18 40 -15 b 125 8 103 -15 117 -4 b 138 44 133 18 136 32 b 143 79 140 57 140 69 b 188 272 157 144 171 208 b 425 288 267 279 344 288 l 444 288 b 481 38 453 204 463 119 b 550 -12 490 4 515 -12 b 626 49 593 -12 626 14 b 625 58 626 51 625 54 b 571 492 601 201 582 346 b 543 863 561 614 560 739 b 432 999 535 926 507 999 b 294 889 369 999 325 938 b 39 157 157 669 93 393 b 25 100 35 139 29 119 b 18 42 21 81 18 61 z m 349 1094 b 410 1153 388 1094 410 1133 b 340 1217 410 1176 378 1217 b 271 1158 296 1217 271 1190 b 349 1094 271 1122 315 1094 z m 456 1169 b 515 1113 456 1149 476 1113 b 578 1178 558 1113 578 1156 b 524 1235 578 1200 564 1235 b 456 1169 478 1235 456 1196 z m 218 388 b 379 804 257 526 308 678 b 390 817 383 810 388 815 b 394 821 392 818 393 819 b 397 817 394 819 396 818 b 404 799 400 814 401 807 b 410 758 407 782 410 765 b 418 603 415 708 417 656 b 432 400 419 536 426 468 b 218 388 360 400 290 394 z "},"Å":{"ha":672,"x_min":0,"x_max":0,"o":"m 18 42 b 81 -15 18 18 40 -15 b 125 8 103 -15 117 -4 b 138 44 133 18 136 32 b 143 79 140 57 140 69 b 188 272 157 144 171 208 b 425 288 267 279 344 288 l 444 288 b 481 38 453 204 464 119 b 497 7 483 26 488 17 b 550 -12 510 -7 531 -12 b 626 49 593 -12 626 14 b 625 58 626 51 625 54 b 571 492 601 201 582 346 b 553 750 564 578 560 664 b 538 893 550 797 549 847 b 510 957 532 915 524 938 b 624 1172 608 988 624 1110 b 614 1243 624 1194 622 1219 b 519 1319 604 1269 569 1319 b 469 1296 496 1319 481 1308 l 457 1296 b 318 1119 349 1296 318 1174 b 376 983 318 1068 333 1022 b 164 614 289 925 192 692 b 25 100 107 447 63 272 b 18 42 21 81 18 61 z m 218 388 b 379 804 257 526 308 678 b 390 817 383 810 388 815 b 394 821 392 818 393 819 b 397 817 394 819 396 818 b 404 799 400 814 401 807 b 410 758 407 782 410 765 b 418 603 415 708 417 656 b 432 400 419 536 426 468 b 218 388 360 400 290 394 z m 444 1082 b 438 1118 439 1093 438 1107 b 444 1156 438 1124 439 1139 b 453 1175 446 1163 449 1171 b 457 1182 454 1178 456 1181 b 472 1183 463 1183 468 1183 b 488 1188 478 1185 482 1185 b 504 1196 494 1189 499 1192 b 506 1158 506 1183 506 1168 b 497 1101 506 1147 504 1124 b 483 1074 493 1090 489 1081 b 468 1065 478 1068 472 1065 b 444 1082 457 1065 449 1071 z "},"Æ":{"ha":1088,"x_min":0,"x_max":0,"o":"m 7 69 b 68 15 7 49 28 15 b 119 46 94 15 111 29 b 190 197 146 94 167 147 b 319 442 232 279 275 361 b 336 440 325 440 332 440 b 415 447 361 440 389 444 b 553 456 461 451 506 454 b 549 356 550 422 549 388 b 631 60 549 276 560 125 b 815 3 676 17 750 3 b 1056 63 867 3 1021 22 b 1069 97 1064 71 1069 85 b 1008 154 1069 121 1050 154 b 993 153 1003 154 997 154 b 819 117 936 133 881 117 b 735 131 790 117 761 121 b 696 192 714 138 701 161 b 690 274 689 222 690 256 b 696 467 690 338 690 401 b 829 479 740 472 783 475 b 897 485 850 481 875 481 b 946 539 929 490 946 518 b 889 597 946 558 931 597 l 883 597 b 708 582 825 593 767 589 b 746 899 722 688 739 793 b 865 903 785 901 825 903 b 969 900 900 903 935 900 b 1031 956 1014 900 1031 929 b 938 1014 1031 1008 983 1014 b 865 1015 914 1015 889 1015 b 635 1004 788 1015 713 1011 b 567 997 613 1003 589 1001 b 521 972 549 994 532 988 b 408 815 481 922 444 867 b 57 185 274 617 157 403 b 11 92 42 154 25 124 b 7 69 8 85 7 78 z m 383 558 b 532 789 429 636 479 713 b 564 835 542 803 553 818 b 592 874 572 849 582 863 b 560 571 575 774 568 672 b 383 558 503 568 443 564 z "},"Ç":{"ha":651,"x_min":0,"x_max":0,"o":"m 192 -54 b 344 -164 192 -136 279 -153 b 356 -167 349 -165 353 -167 b 318 -201 344 -179 332 -192 b 297 -215 311 -207 304 -211 b 258 -271 276 -228 258 -244 b 319 -328 258 -297 276 -328 b 467 -217 358 -328 449 -246 b 483 -162 478 -200 483 -181 b 364 -53 483 -94 421 -64 b 318 -43 349 -49 333 -46 b 338 -6 325 -31 333 -18 b 615 217 486 -12 581 133 b 619 239 618 224 619 232 b 557 297 619 263 599 297 b 511 272 535 297 519 283 b 506 261 508 269 507 265 b 481 215 499 249 490 232 b 351 115 457 168 408 115 b 199 458 213 115 199 360 b 328 861 199 565 224 789 b 406 889 349 878 378 889 b 464 831 446 889 464 864 b 456 786 464 817 460 803 b 446 738 450 771 446 754 b 506 683 446 714 467 683 b 581 825 572 683 581 775 b 413 1000 581 904 542 1000 b 329 986 382 1000 354 994 b 46 431 101 910 46 589 b 222 28 46 311 79 108 b 203 -8 215 15 208 4 b 192 -54 196 -22 192 -37 z "},"È":{"ha":619,"x_min":0,"x_max":0,"o":"m 111 154 b 349 8 144 56 213 8 b 532 38 408 8 475 17 b 601 101 564 49 601 61 b 543 158 601 125 582 158 b 528 157 538 158 532 157 b 361 122 472 139 419 122 b 268 135 329 122 297 124 b 229 196 247 142 235 165 b 224 278 222 226 224 260 b 229 472 224 343 224 407 b 429 490 296 479 363 482 b 479 543 463 493 479 522 b 422 600 479 564 464 600 l 417 600 b 242 588 358 597 300 593 b 279 904 254 693 272 799 b 396 907 318 907 357 907 b 469 907 421 907 446 908 b 501 904 481 906 490 904 b 564 961 544 904 564 933 b 471 1019 564 1013 517 1018 b 400 1021 447 1021 424 1021 b 103 1001 301 1021 200 1014 b 42 944 65 997 42 974 b 100 888 42 924 60 888 b 122 889 108 888 117 888 b 126 890 124 890 125 890 b 103 672 115 817 108 744 b 92 563 100 640 99 594 b 88 557 90 560 88 558 b 76 519 79 546 76 532 b 82 497 76 511 79 503 b 88 490 85 494 86 492 b 85 449 88 476 86 463 b 82 358 83 418 82 388 b 111 154 82 289 88 221 z m 281 1189 b 353 1161 317 1189 336 1175 b 365 1150 357 1157 361 1154 b 378 1140 369 1147 374 1143 b 413 1131 388 1135 399 1131 b 472 1185 456 1131 472 1161 b 458 1224 472 1197 469 1213 b 279 1303 417 1265 354 1303 b 219 1247 236 1303 219 1271 b 281 1189 219 1224 236 1189 z "},"É":{"ha":619,"x_min":0,"x_max":0,"o":"m 111 154 b 349 8 144 56 213 8 b 532 38 408 8 475 17 b 601 101 564 49 601 61 b 543 158 601 125 582 158 b 528 157 538 158 532 157 b 361 122 472 139 419 122 b 268 135 329 122 297 124 b 229 196 247 142 235 165 b 224 278 222 226 224 260 b 229 472 224 343 224 407 b 429 490 296 479 363 482 b 479 543 463 493 479 522 b 422 600 479 564 464 600 l 417 600 b 242 588 358 597 300 593 b 279 904 254 693 272 799 b 396 907 318 907 357 907 b 469 907 421 907 446 908 b 501 904 481 906 490 904 b 564 961 544 904 564 933 b 471 1019 564 1013 517 1018 b 400 1021 447 1021 424 1021 b 103 1001 301 1021 200 1014 b 42 944 65 997 42 974 b 100 888 42 924 60 888 b 122 889 108 888 117 888 b 126 890 124 890 125 890 b 103 672 115 817 108 744 b 92 563 100 640 99 594 b 88 557 90 560 88 558 b 76 519 79 546 76 532 b 82 497 76 511 79 503 b 88 490 85 494 86 492 b 85 449 88 476 86 463 b 82 358 83 418 82 388 b 111 154 82 289 88 221 z m 193 1135 b 254 1075 193 1113 213 1075 b 300 1099 276 1075 290 1086 b 415 1190 317 1119 390 1181 b 422 1193 417 1192 419 1193 b 431 1196 425 1194 428 1194 b 471 1247 454 1200 471 1224 b 411 1304 471 1271 453 1304 b 368 1294 396 1304 381 1300 b 193 1135 324 1275 193 1179 z "},"Ê":{"ha":619,"x_min":0,"x_max":0,"o":"m 111 154 b 349 8 144 56 213 8 b 532 38 408 8 475 17 b 601 101 564 49 601 61 b 543 158 601 125 582 158 b 528 157 538 158 532 157 b 361 122 472 139 419 122 b 268 135 329 122 297 124 b 229 196 247 142 235 165 b 224 278 222 226 224 260 b 229 472 224 343 224 407 b 429 490 296 479 363 482 b 479 543 463 493 479 522 b 422 600 479 564 464 600 l 417 600 b 242 588 358 597 300 593 b 279 904 254 693 272 799 b 396 907 318 907 357 907 b 469 907 421 907 446 908 b 501 904 481 906 490 904 b 564 961 544 904 564 933 b 471 1019 564 1013 517 1018 b 400 1021 447 1021 424 1021 b 103 1001 301 1021 200 1014 b 42 944 65 997 42 974 b 100 888 42 924 60 888 b 122 889 108 888 117 888 b 126 890 124 890 125 890 b 103 672 115 817 108 744 b 92 563 100 640 99 594 b 88 557 90 560 88 558 b 76 519 79 546 76 532 b 82 497 76 511 79 503 b 88 490 85 494 86 492 b 85 449 88 476 86 463 b 82 358 83 418 82 388 b 111 154 82 289 88 221 z m 185 1150 b 244 1094 185 1128 204 1094 b 322 1135 271 1094 303 1119 b 356 1158 335 1142 344 1151 b 376 1168 367 1165 372 1168 l 378 1168 b 383 1163 379 1167 382 1165 b 400 1146 389 1158 394 1153 b 435 1114 407 1138 425 1118 b 463 1107 443 1110 453 1107 b 522 1164 506 1107 522 1139 b 446 1260 522 1197 474 1242 b 379 1281 428 1272 406 1281 b 260 1232 340 1281 290 1256 b 231 1211 249 1225 239 1217 b 214 1200 225 1207 219 1204 b 196 1185 207 1196 200 1192 b 185 1150 188 1175 185 1163 z "},"Ë":{"ha":619,"x_min":0,"x_max":0,"o":"m 111 154 b 349 8 144 56 213 8 b 532 38 408 8 475 17 b 601 101 564 49 601 61 b 543 158 601 125 582 158 b 528 157 538 158 532 157 b 361 122 472 139 419 122 b 268 135 329 122 297 124 b 229 196 247 142 235 165 b 224 278 222 226 224 260 b 229 472 224 343 224 407 b 429 490 296 479 363 482 b 479 543 463 493 479 522 b 422 600 479 564 464 600 l 417 600 b 242 588 358 597 300 593 b 279 904 254 693 272 799 b 396 907 318 907 357 907 b 469 907 421 907 446 908 b 501 904 481 906 490 904 b 564 961 544 904 564 933 b 471 1019 564 1013 517 1018 b 400 1021 447 1021 424 1021 b 103 1001 301 1021 200 1014 b 42 944 65 997 42 974 b 100 888 42 924 60 888 b 122 889 108 888 117 888 b 126 890 124 890 125 890 b 103 672 115 817 108 744 b 92 563 100 640 99 594 b 88 557 90 560 88 558 b 76 519 79 546 76 532 b 82 497 76 511 79 503 b 88 490 85 494 86 492 b 85 449 88 476 86 463 b 82 358 83 418 82 388 b 111 154 82 289 88 221 z m 203 1163 b 263 1107 203 1140 222 1107 b 322 1161 301 1107 322 1138 b 264 1221 322 1181 306 1221 b 203 1163 222 1221 203 1185 z m 429 1157 b 488 1103 429 1136 447 1103 b 558 1178 536 1103 558 1153 b 500 1233 558 1200 542 1233 b 429 1157 453 1233 429 1181 z "},"Ì":{"ha":301,"x_min":0,"x_max":0,"o":"m 82 63 b 151 3 82 33 110 3 b 222 63 196 3 222 35 l 222 943 b 151 1004 222 972 196 1004 b 82 943 108 1004 82 972 z m 42 1172 b 75 1165 53 1169 64 1168 b 103 1157 85 1164 94 1161 b 153 1131 121 1150 138 1140 b 203 1096 169 1119 186 1107 b 233 1088 211 1090 222 1088 b 293 1144 278 1088 293 1122 b 274 1188 293 1160 288 1175 b 101 1276 224 1224 168 1258 b 74 1282 93 1279 83 1279 b 61 1283 71 1283 65 1283 b 1 1226 21 1283 1 1247 b 42 1172 1 1210 15 1181 z "},"Í":{"ha":303,"x_min":0,"x_max":0,"o":"m 81 63 b 150 3 81 33 108 3 b 221 63 194 3 221 35 l 221 943 b 150 1004 221 972 194 1004 b 81 943 107 1004 81 972 z m 50 1144 b 110 1088 50 1122 69 1088 b 149 1104 126 1088 139 1096 b 247 1182 179 1132 211 1160 b 275 1196 256 1188 265 1190 b 304 1246 296 1207 304 1228 b 244 1301 304 1267 288 1301 b 64 1182 193 1301 100 1218 b 50 1144 53 1171 50 1156 z "},"Î":{"ha":301,"x_min":0,"x_max":0,"o":"m 81 63 b 150 3 81 33 108 3 b 221 63 196 3 221 33 l 221 943 b 150 1004 221 974 196 1004 b 81 943 107 1004 81 972 z m -28 1126 b 29 1069 -28 1104 -12 1069 b 114 1135 74 1069 93 1100 b 142 1176 124 1149 133 1164 b 172 1140 153 1165 163 1153 b 208 1094 183 1126 196 1110 b 256 1072 218 1082 233 1072 b 314 1131 300 1072 314 1107 b 307 1157 314 1139 313 1147 b 228 1256 288 1186 254 1229 b 139 1303 206 1281 174 1303 b 51 1249 103 1303 71 1279 b 32 1221 44 1240 39 1231 b -8 1167 19 1200 8 1181 b -28 1126 -22 1156 -28 1140 z "},"Ï":{"ha":299,"x_min":0,"x_max":0,"o":"m 81 63 b 150 3 81 32 107 3 b 221 63 194 3 221 35 l 221 943 b 150 1004 221 972 194 1004 b 81 943 106 1004 81 974 z m -19 1171 b 65 1110 -19 1129 14 1110 b 122 1165 107 1110 122 1143 b 43 1226 122 1204 90 1226 b -19 1171 3 1226 -19 1197 z m 168 1182 b 239 1125 168 1150 196 1125 b 299 1182 283 1125 299 1157 b 228 1240 299 1214 272 1240 b 168 1182 185 1240 168 1204 z "},"Ð":{"ha":832,"x_min":0,"x_max":0,"o":"m 138 97 b 206 42 138 67 163 42 b 224 43 211 42 218 42 l 224 40 b 279 -17 224 19 239 -17 b 488 47 346 -17 436 18 b 794 582 690 165 794 390 b 286 1011 794 828 619 1011 b 54 918 232 1011 54 997 b 114 861 54 894 71 861 b 154 874 122 861 147 869 b 175 882 161 876 168 879 b 140 525 156 764 146 644 b 88 529 122 526 106 529 b 29 471 46 529 29 493 b 74 419 29 442 47 426 b 111 413 85 415 99 414 l 138 413 b 138 97 136 307 138 203 z m 275 94 l 275 263 b 276 415 275 313 275 364 b 414 419 313 415 396 415 b 463 475 447 426 463 453 b 401 532 463 499 444 532 b 279 529 361 532 321 531 b 314 878 283 646 294 761 l 314 886 b 313 899 314 890 314 894 b 676 583 551 893 676 765 b 454 163 676 435 599 258 b 275 94 394 122 349 108 z "},"Ñ":{"ha":782,"x_min":0,"x_max":0,"o":"m 69 64 b 126 7 69 43 83 7 b 194 67 171 7 194 42 b 190 96 194 76 192 86 b 185 186 186 126 185 157 b 215 771 185 382 196 576 b 510 111 326 554 403 328 b 615 11 528 72 565 11 b 692 92 661 11 683 53 b 699 169 697 118 697 144 b 708 422 704 254 708 338 b 696 779 708 542 703 661 b 686 949 693 836 692 893 b 631 1017 682 981 669 1017 b 581 988 604 1017 589 1003 b 568 943 571 974 568 956 l 568 932 b 592 461 579 775 592 618 b 588 308 592 410 590 360 b 393 750 519 454 463 604 b 325 882 371 794 347 838 b 301 926 318 896 310 913 b 210 1007 283 964 256 1007 b 115 942 165 1007 121 976 b 106 857 110 915 108 885 b 69 64 78 593 69 329 z m 263 1092 b 318 1132 301 1092 313 1114 b 325 1156 321 1140 322 1149 b 331 1165 326 1161 329 1164 b 353 1154 336 1163 344 1158 b 465 1104 386 1131 422 1104 b 597 1199 518 1104 597 1154 b 540 1257 597 1219 581 1257 b 511 1249 529 1257 519 1254 b 490 1235 503 1246 496 1240 b 482 1228 488 1232 485 1229 b 475 1221 479 1225 476 1224 b 465 1217 469 1218 467 1217 b 463 1218 465 1218 464 1218 b 451 1225 460 1219 456 1222 b 419 1246 442 1231 431 1239 b 331 1279 394 1261 363 1279 b 203 1151 247 1279 203 1201 b 263 1092 203 1128 217 1092 z "},"Ò":{"ha":831,"x_min":0,"x_max":0,"o":"m 42 450 b 331 13 42 294 101 65 b 401 4 353 7 378 4 b 785 532 706 4 785 364 b 458 989 785 736 697 989 b 192 867 349 989 253 929 b 42 450 86 754 42 585 z m 340 1149 b 518 1079 400 1128 460 1103 b 540 1075 525 1078 531 1075 b 599 1132 579 1075 599 1108 b 560 1185 599 1151 586 1174 b 357 1261 535 1199 379 1261 b 299 1207 317 1261 299 1232 b 340 1149 299 1183 313 1161 z m 257 222 b 214 415 224 278 214 354 b 315 793 214 538 247 689 b 439 885 347 846 390 885 b 464 882 447 885 456 883 b 574 813 507 872 549 842 b 664 536 644 735 664 631 b 422 125 664 393 604 125 b 257 222 347 125 289 169 z "},"Ó":{"ha":831,"x_min":0,"x_max":0,"o":"m 42 450 b 331 13 42 294 101 65 b 401 4 353 7 378 4 b 785 532 706 4 785 364 b 458 989 785 736 697 989 b 192 867 349 989 253 929 b 42 450 86 754 42 585 z m 321 1114 b 376 1056 321 1093 335 1056 b 411 1064 386 1056 403 1058 b 454 1094 426 1074 440 1085 b 561 1158 489 1118 525 1139 b 592 1207 585 1169 592 1189 b 532 1264 592 1232 574 1264 b 431 1217 510 1264 467 1240 b 340 1156 393 1193 356 1165 b 321 1114 326 1143 321 1129 z m 257 222 b 214 415 224 278 214 354 b 315 793 214 538 247 689 b 439 885 347 846 390 885 b 464 882 447 885 456 883 b 574 813 507 872 549 842 b 664 536 644 735 664 631 b 422 125 664 393 604 125 b 257 222 347 125 289 169 z "},"Ô":{"ha":831,"x_min":0,"x_max":0,"o":"m 42 450 b 331 13 42 294 101 65 b 401 4 353 7 378 4 b 785 532 706 4 785 364 b 458 989 785 736 697 989 b 192 867 349 989 253 929 b 42 450 86 754 42 585 z m 242 1132 b 301 1075 242 1111 261 1075 b 336 1083 313 1075 326 1075 b 389 1128 357 1097 374 1113 b 414 1149 397 1136 406 1142 b 432 1164 419 1154 425 1160 b 522 1089 463 1139 492 1114 b 563 1072 532 1081 546 1072 b 622 1131 603 1072 622 1108 b 600 1172 622 1146 614 1160 b 526 1236 575 1194 551 1215 b 507 1253 519 1242 513 1247 b 483 1271 499 1258 492 1265 b 433 1285 469 1279 451 1285 b 304 1207 386 1285 336 1239 b 294 1199 300 1203 297 1200 b 292 1197 293 1197 293 1197 b 286 1194 290 1197 288 1196 b 242 1132 261 1183 242 1151 z m 257 222 b 214 415 224 278 214 354 b 315 793 214 538 247 689 b 439 885 347 846 390 885 b 464 882 447 885 456 883 b 574 813 507 872 549 842 b 664 536 644 735 664 631 b 422 125 664 393 604 125 b 257 222 347 125 289 169 z "},"Õ":{"ha":831,"x_min":0,"x_max":0,"o":"m 42 450 b 331 13 42 294 101 65 b 401 4 353 7 378 4 b 785 532 706 4 785 364 b 458 989 785 736 697 989 b 192 867 349 989 253 929 b 42 450 86 754 42 585 z m 275 1108 b 310 1121 289 1108 300 1114 b 335 1142 319 1128 328 1136 b 347 1153 339 1146 343 1150 b 357 1163 350 1157 354 1160 b 374 1169 365 1168 371 1169 b 376 1168 374 1169 375 1169 b 389 1163 381 1167 385 1165 b 426 1140 400 1156 413 1149 b 529 1108 456 1126 492 1108 b 629 1222 600 1108 629 1183 b 568 1276 629 1246 607 1276 b 522 1251 543 1276 529 1265 b 514 1233 518 1246 517 1240 b 513 1226 514 1231 513 1229 b 490 1238 506 1229 497 1233 b 456 1257 479 1243 467 1250 b 374 1283 432 1269 404 1283 b 275 1243 333 1283 300 1263 b 247 1219 269 1238 257 1229 b 221 1192 236 1211 225 1200 b 215 1167 218 1183 215 1175 b 275 1108 215 1144 233 1108 z m 257 222 b 214 415 224 278 214 354 b 315 793 214 538 247 689 b 439 885 347 846 390 885 b 464 882 447 885 456 883 b 574 813 507 872 549 842 b 664 536 644 735 664 631 b 422 125 664 393 604 125 b 257 222 347 125 289 169 z "},"Ö":{"ha":831,"x_min":0,"x_max":0,"o":"m 42 450 b 331 13 42 294 101 65 b 401 4 353 7 378 4 b 785 532 706 4 785 364 b 458 989 785 736 697 989 b 192 867 349 989 253 929 b 42 450 86 754 42 585 z m 250 1150 b 313 1094 250 1126 271 1094 b 372 1150 353 1094 372 1126 b 314 1208 372 1174 354 1208 b 250 1150 271 1208 250 1175 z m 482 1165 b 547 1107 482 1140 504 1107 b 604 1163 589 1107 604 1139 b 543 1222 604 1186 582 1222 b 482 1165 504 1222 482 1189 z m 257 222 b 214 415 224 278 214 354 b 315 793 214 538 247 689 b 439 885 347 846 390 885 b 464 882 447 885 456 883 b 574 813 507 872 549 842 b 664 536 644 735 664 631 b 422 125 664 393 604 125 b 257 222 347 125 289 169 z "},"×":{"ha":528,"x_min":0,"x_max":0,"o":"m 97 299 b 156 239 97 278 114 239 b 214 278 182 239 210 260 b 215 286 214 281 214 283 b 217 292 215 289 215 290 b 232 318 219 300 226 310 b 243 333 236 324 240 328 b 358 225 283 297 321 263 b 404 206 368 215 383 206 b 463 263 446 206 463 240 b 447 299 463 276 458 288 b 318 421 408 342 363 383 b 403 511 344 453 374 482 b 432 543 413 522 422 532 b 464 572 443 553 453 563 b 488 618 479 585 488 600 b 426 674 488 643 468 674 b 397 665 417 674 406 671 b 306 582 369 646 336 614 b 231 499 278 553 251 522 b 176 547 213 515 194 531 l 176 549 b 178 556 176 551 178 553 b 111 611 178 583 151 611 b 40 546 64 611 40 576 b 90 471 40 524 64 494 b 156 410 113 447 139 425 b 121 361 146 396 132 379 b 97 299 108 340 97 318 z "},"Ø":{"ha":839,"x_min":0,"x_max":0,"o":"m 75 78 b 132 22 75 57 93 22 b 197 69 160 22 188 44 b 201 76 199 72 200 74 b 410 4 257 35 332 4 b 790 533 714 4 790 368 b 703 858 790 639 768 764 b 724 899 708 868 715 883 b 739 943 731 915 739 933 b 679 1001 739 967 721 1001 b 629 974 654 1001 639 988 b 617 953 625 967 621 960 b 614 946 617 950 615 947 b 467 990 572 972 522 990 b 328 958 418 990 368 978 b 47 450 118 867 47 618 b 118 168 47 360 68 251 b 94 126 113 157 103 142 b 75 78 83 110 75 92 z m 226 331 b 219 424 221 361 219 392 b 325 800 219 538 256 700 b 446 885 350 836 393 885 b 554 838 485 885 526 861 b 226 331 451 667 338 499 z m 279 199 b 629 735 396 379 518 554 b 669 536 660 672 669 604 b 429 126 669 393 611 126 b 279 199 365 126 313 158 z "},"Ù":{"ha":794,"x_min":0,"x_max":0,"o":"m 58 478 b 399 -1 58 314 97 -1 b 733 518 689 -1 733 281 b 715 936 733 658 715 797 b 664 999 715 967 697 999 b 596 915 618 999 596 956 b 599 828 596 886 597 857 b 610 539 604 731 610 635 b 419 108 610 408 607 108 b 290 172 367 108 319 139 b 222 475 229 246 222 386 b 264 932 222 628 242 782 b 265 942 264 936 265 939 b 183 1001 265 979 226 1001 b 108 947 139 1001 114 979 b 58 478 81 793 58 635 z m 290 1171 b 410 1086 329 1140 369 1115 b 426 1072 415 1083 421 1078 b 453 1060 433 1067 442 1061 b 464 1058 457 1058 461 1058 b 524 1117 506 1058 524 1093 b 511 1150 524 1129 519 1140 b 443 1206 500 1164 471 1185 b 367 1257 414 1225 383 1246 b 364 1260 367 1257 365 1258 b 347 1272 358 1265 354 1268 b 321 1279 340 1276 329 1279 b 260 1224 279 1279 260 1247 b 290 1171 260 1203 272 1185 z "},"Ú":{"ha":794,"x_min":0,"x_max":0,"o":"m 58 478 b 399 -1 58 314 97 -1 b 733 518 689 -1 733 281 b 715 936 733 658 715 797 b 664 999 715 967 697 999 b 596 915 618 999 596 956 b 599 828 596 886 597 857 b 610 539 604 731 610 635 b 419 108 610 408 607 108 b 290 172 367 108 319 139 b 222 475 229 246 222 386 b 264 932 222 628 242 782 b 265 942 264 936 265 939 b 183 1001 265 979 226 1001 b 108 947 139 1001 114 979 b 58 478 81 793 58 635 z m 365 1163 b 425 1106 365 1142 385 1106 b 449 1111 433 1106 442 1107 b 478 1135 460 1115 469 1125 b 499 1158 486 1143 493 1153 b 561 1219 519 1179 540 1200 b 582 1264 575 1232 582 1247 b 531 1319 582 1282 568 1319 b 483 1304 514 1319 496 1315 b 368 1182 458 1283 378 1210 b 365 1163 367 1175 365 1169 z "},"Û":{"ha":794,"x_min":0,"x_max":0,"o":"m 58 478 b 399 -1 58 314 97 -1 b 733 518 689 -1 733 281 b 715 936 733 658 715 797 b 664 999 715 967 697 999 b 596 915 618 999 596 956 b 599 828 596 886 597 857 b 610 539 604 731 610 635 b 419 108 610 408 607 108 b 290 172 367 108 319 139 b 222 475 229 246 222 386 b 264 932 222 628 242 782 b 265 942 264 936 265 939 b 183 1001 265 979 226 1001 b 108 947 139 1001 114 979 b 58 478 81 793 58 635 z m 286 1086 b 326 1100 301 1086 314 1093 b 357 1128 336 1108 347 1118 b 372 1140 363 1133 367 1138 b 404 1163 379 1147 396 1163 b 410 1160 404 1163 406 1163 b 424 1151 414 1158 418 1156 b 458 1126 435 1144 447 1136 b 494 1094 471 1115 483 1104 b 522 1072 506 1085 515 1076 b 556 1061 532 1067 543 1061 b 617 1121 599 1061 617 1097 b 596 1161 617 1136 610 1151 b 514 1232 571 1181 544 1208 b 403 1275 482 1254 444 1275 b 300 1232 365 1275 328 1257 b 268 1201 290 1222 281 1211 l 265 1200 b 263 1199 265 1200 264 1200 b 260 1197 263 1199 261 1197 b 229 1143 239 1183 229 1164 b 286 1086 229 1124 244 1086 z "},"Ü":{"ha":794,"x_min":0,"x_max":0,"o":"m 58 478 b 399 -1 58 314 97 -1 b 733 518 689 -1 733 281 b 715 936 733 658 715 797 b 664 999 715 967 697 999 b 596 915 618 999 596 956 b 599 828 596 886 597 857 b 610 539 604 731 610 635 b 419 108 610 408 607 108 b 290 172 367 108 319 139 b 222 475 229 246 222 386 b 264 932 222 628 242 782 b 265 942 264 936 265 939 b 183 1001 265 979 226 1001 b 108 947 139 1001 114 979 b 58 478 81 793 58 635 z m 240 1163 b 303 1108 240 1139 263 1108 b 364 1171 342 1108 364 1149 b 306 1229 364 1193 346 1229 b 240 1163 263 1229 240 1186 z m 476 1169 b 538 1113 476 1146 496 1113 b 599 1168 576 1113 599 1144 b 539 1226 599 1190 581 1226 b 476 1169 499 1226 476 1194 z "},"Ý":{"ha":704,"x_min":0,"x_max":0,"o":"m 122 71 b 203 11 122 38 161 11 b 267 50 238 11 257 28 b 313 163 282 86 296 125 b 418 382 343 236 379 308 b 690 894 507 553 607 721 b 700 924 696 904 700 914 b 626 974 700 957 660 974 b 550 933 592 974 563 960 b 482 804 526 892 504 847 b 340 546 435 717 388 632 b 169 840 264 633 213 739 l 149 889 b 136 932 142 908 136 925 b 78 989 136 956 121 989 b 15 931 35 989 15 956 b 22 897 15 919 18 908 b 33 864 25 886 29 875 b 285 439 92 717 156 561 b 122 71 250 374 122 119 z m 278 1079 b 335 1024 278 1057 293 1024 b 383 1043 353 1024 372 1031 b 439 1118 393 1056 417 1088 b 490 1181 461 1149 482 1175 b 497 1185 492 1182 494 1183 b 506 1189 500 1186 503 1188 b 532 1239 524 1200 532 1224 b 476 1293 532 1258 517 1293 b 367 1217 435 1293 392 1249 b 286 1107 339 1181 311 1143 b 278 1079 281 1099 278 1089 z "},"Þ":{"ha":619,"x_min":0,"x_max":0,"o":"m 82 63 b 167 3 82 25 128 3 b 254 63 211 3 254 24 l 254 267 b 578 503 413 306 524 379 b 600 600 590 533 600 567 b 283 815 600 768 419 815 b 254 814 274 815 264 815 l 254 943 b 169 1004 254 982 215 1004 b 82 943 128 1004 82 982 z m 254 385 l 254 701 l 285 701 b 483 601 372 701 483 678 b 410 465 483 557 449 499 b 254 385 368 428 314 401 z "},"ß":{"ha":732,"x_min":0,"x_max":0,"o":"m 69 -242 b 78 -268 71 -251 74 -261 b 136 -300 88 -289 110 -300 b 247 -221 185 -300 247 -261 b 243 -197 247 -212 246 -204 b 178 204 193 -65 178 67 b 267 738 178 369 206 582 b 421 900 304 829 354 900 b 464 840 457 900 464 871 b 404 664 464 788 438 711 b 350 590 388 639 367 614 b 321 504 333 564 321 535 b 439 350 321 428 378 386 b 483 321 453 340 469 332 b 585 214 525 299 569 260 b 593 183 589 203 593 194 b 528 150 593 161 563 150 b 432 182 493 150 454 163 b 422 192 429 185 425 189 b 418 200 419 196 418 199 b 419 214 418 204 419 210 b 410 251 419 225 417 240 b 367 274 401 263 388 274 b 297 203 318 274 297 231 b 307 161 297 189 301 174 b 526 39 336 88 429 39 b 711 186 638 39 711 103 b 521 433 711 289 617 376 b 469 465 507 442 488 453 b 438 499 453 476 440 489 l 438 500 b 457 540 438 508 446 524 b 490 583 469 557 482 572 b 585 835 543 654 585 751 b 422 1010 585 910 549 1010 b 213 893 333 1010 253 944 b 46 188 60 690 46 417 b 68 -215 46 54 56 -81 b 69 -242 68 -224 69 -233 z "},"à":{"ha":674,"x_min":0,"x_max":0,"o":"m 197 4 b 447 213 314 4 401 132 b 503 22 456 153 475 60 b 564 -8 517 4 536 -8 b 644 50 601 -8 644 17 b 636 74 644 60 640 67 b 575 340 588 163 575 246 b 594 604 575 429 588 517 l 594 607 b 536 676 594 633 557 664 b 388 715 493 700 442 715 b 33 281 164 715 33 481 b 197 4 33 179 67 4 z m 279 861 b 392 767 297 842 368 781 b 426 757 400 761 413 757 b 489 815 468 757 489 790 b 458 861 489 833 479 850 b 361 942 446 868 363 939 b 354 957 358 947 357 951 b 344 971 351 961 349 967 b 303 988 336 981 324 988 b 243 929 260 988 243 953 b 279 861 243 904 260 881 z m 156 256 b 293 575 156 361 193 501 b 383 607 319 594 349 607 b 451 590 407 607 431 600 b 300 203 428 475 364 306 b 204 119 268 156 233 119 b 181 133 196 119 188 124 b 156 256 158 169 156 214 z "},"á":{"ha":675,"x_min":0,"x_max":0,"o":"m 197 4 b 447 213 314 4 401 132 b 503 22 456 153 475 60 b 564 -8 517 4 536 -8 b 644 50 601 -8 644 17 b 636 74 644 60 640 67 b 575 340 588 163 575 246 b 594 604 575 429 588 517 l 594 607 b 536 676 594 633 557 664 b 388 715 493 700 442 715 b 33 281 164 715 33 481 b 197 4 33 179 67 4 z m 319 846 b 378 790 319 822 336 790 b 413 801 390 790 403 794 b 443 825 424 808 433 815 b 471 851 453 833 463 843 b 493 871 479 860 488 867 b 500 875 496 872 497 874 b 510 878 504 876 507 876 b 553 931 535 888 553 899 b 497 988 553 951 539 988 b 351 903 447 988 385 939 b 319 846 336 885 319 865 z m 156 256 b 293 575 156 361 193 501 b 383 607 319 594 349 607 b 451 590 407 607 431 600 b 300 203 428 475 364 306 b 204 119 268 156 233 119 b 181 133 196 119 188 124 b 156 256 158 169 156 214 z "},"â":{"ha":675,"x_min":0,"x_max":0,"o":"m 197 4 b 447 213 314 4 401 132 b 503 22 456 153 475 60 b 564 -8 517 4 536 -8 b 644 50 601 -8 644 17 b 636 74 644 60 640 67 b 575 340 588 163 575 246 b 594 604 575 429 588 517 l 594 607 b 536 676 594 633 557 664 b 388 715 493 700 442 715 b 33 281 164 715 33 481 b 197 4 33 179 67 4 z m 156 825 b 215 771 156 806 178 771 b 269 793 238 771 257 782 b 354 875 299 818 325 847 b 439 799 382 849 410 822 b 479 782 449 790 461 782 b 539 839 519 782 539 815 b 507 893 539 861 524 879 b 490 908 501 899 496 903 b 414 976 465 931 439 953 b 356 1001 401 989 381 1001 b 294 975 331 1001 308 986 b 224 910 268 954 246 932 b 208 893 218 906 213 899 b 193 879 203 888 197 882 b 178 868 188 875 182 871 b 156 825 165 856 156 844 z m 156 256 b 293 575 156 361 193 501 b 383 607 319 594 349 607 b 451 590 407 607 431 600 b 300 203 428 475 364 306 b 204 119 268 156 233 119 b 181 133 196 119 188 124 b 156 256 158 169 156 214 z "},"ã":{"ha":678,"x_min":0,"x_max":0,"o":"m 197 4 b 447 213 314 4 401 132 b 503 22 456 153 475 60 b 564 -8 517 4 536 -8 b 644 50 601 -8 644 17 b 636 74 644 60 640 67 b 575 340 588 163 575 246 b 594 604 575 429 588 517 l 594 607 b 536 676 594 633 557 664 b 388 715 493 700 442 715 b 33 281 164 715 33 481 b 197 4 33 179 67 4 z m 263 821 b 319 850 286 821 310 835 b 326 844 322 847 324 846 b 421 806 347 826 382 806 b 592 931 489 806 592 876 b 531 993 592 953 574 993 b 474 954 500 993 481 972 b 472 949 474 953 474 950 l 472 947 b 424 918 464 938 433 918 b 407 925 421 918 415 921 b 394 936 403 929 399 932 b 307 988 371 960 342 988 b 254 967 285 988 267 979 b 204 879 236 950 204 903 b 263 821 204 856 222 821 z m 156 256 b 293 575 156 361 193 501 b 383 607 319 594 349 607 b 451 590 407 607 431 600 b 300 203 428 475 364 306 b 204 119 268 156 233 119 b 181 133 196 119 188 124 b 156 256 158 169 156 214 z "},"ä":{"ha":675,"x_min":0,"x_max":0,"o":"m 197 4 b 447 213 314 4 401 132 b 503 22 456 153 475 60 b 564 -8 517 4 536 -8 b 644 50 601 -8 644 17 b 636 74 644 60 640 67 b 575 340 588 163 575 246 b 594 604 575 429 588 517 l 594 607 b 536 676 594 633 557 664 b 388 715 493 700 442 715 b 33 281 164 715 33 481 b 197 4 33 179 67 4 z m 238 872 b 307 811 238 844 263 811 b 365 867 346 811 365 842 b 301 931 365 889 344 931 b 238 872 258 931 238 897 z m 421 874 b 483 817 421 850 444 817 b 550 875 522 817 550 850 b 492 933 550 897 532 933 b 421 874 446 933 421 903 z m 156 256 b 293 575 156 361 193 501 b 383 607 319 594 349 607 b 451 590 407 607 431 600 b 300 203 428 475 364 306 b 204 119 268 156 233 119 b 181 133 196 119 188 124 b 156 256 158 169 156 214 z "},"å":{"ha":679,"x_min":0,"x_max":0,"o":"m 197 4 b 447 213 314 4 401 132 b 503 22 456 153 475 60 b 564 -8 517 4 536 -8 b 644 50 601 -8 644 17 b 636 74 644 60 640 67 b 575 340 589 161 575 247 b 594 604 575 429 588 517 l 594 607 b 571 647 594 624 582 638 b 479 701 546 674 515 690 b 574 847 547 728 574 793 b 547 938 574 876 565 911 b 456 1017 535 956 481 1007 b 433 1021 450 1018 442 1021 b 400 1010 419 1021 408 1015 b 389 1011 397 1011 393 1011 b 378 1010 386 1011 382 1011 b 250 849 293 989 250 911 b 336 713 250 800 285 744 b 33 281 142 679 33 463 b 197 4 33 179 67 4 z m 156 256 b 293 575 156 361 193 501 b 383 607 319 594 349 607 b 451 590 407 607 431 600 b 300 203 428 475 364 306 b 204 119 268 156 233 119 b 181 133 196 119 188 124 b 156 256 158 169 156 214 z m 367 853 b 393 896 367 863 386 893 b 408 901 399 899 404 900 b 418 906 411 903 415 904 b 457 846 440 888 457 869 b 419 803 457 825 442 803 b 367 853 399 803 367 833 z "},"æ":{"ha":961,"x_min":0,"x_max":0,"o":"m 197 3 b 450 224 315 3 407 143 b 750 -4 499 108 560 -4 b 854 1 783 -4 819 -3 b 917 56 890 4 917 26 b 846 114 917 86 890 114 b 583 297 711 114 625 158 l 599 297 b 933 565 774 297 933 431 b 722 724 933 661 842 724 b 547 668 657 724 592 704 b 544 669 546 668 546 669 b 535 676 542 672 539 674 b 383 715 494 700 433 715 b 32 276 158 715 32 478 b 197 3 32 174 65 3 z m 153 256 b 376 606 153 378 225 606 b 449 590 403 606 428 600 b 246 143 424 464 344 233 b 201 119 229 128 213 119 b 179 133 194 119 186 124 b 153 256 158 167 153 218 z m 576 413 b 582 486 578 436 576 463 b 739 614 600 560 663 614 b 814 568 782 614 814 601 b 803 528 814 554 810 540 b 608 410 772 464 699 410 b 576 413 597 410 586 411 z "},"ç":{"ha":503,"x_min":0,"x_max":0,"o":"m 101 -100 b 169 -168 101 -144 132 -160 b 225 -178 186 -172 206 -175 b 267 -186 240 -179 254 -182 b 250 -212 261 -194 256 -204 b 235 -251 243 -225 235 -237 b 294 -307 235 -272 254 -307 b 389 -175 349 -307 389 -221 b 242 -64 389 -103 315 -76 b 288 -1 256 -43 269 -21 b 290 3 288 0 289 1 b 465 114 364 17 429 64 b 478 149 472 124 478 136 b 418 201 478 171 457 201 b 376 186 403 201 389 194 b 360 172 371 182 365 178 b 342 158 354 169 347 164 b 269 119 319 136 296 119 b 260 121 267 119 263 119 b 218 165 246 125 231 142 b 193 224 206 186 196 210 b 179 340 182 263 179 301 b 314 608 179 433 200 589 l 319 608 b 329 601 328 608 329 607 b 321 568 329 592 325 581 b 315 550 318 563 317 556 b 311 529 313 543 311 536 b 369 474 311 507 331 474 b 449 600 426 474 449 554 b 310 717 449 663 397 717 b 106 608 221 717 144 664 b 33 342 50 533 33 426 b 158 25 33 253 58 92 b 101 -100 139 -6 101 -71 z "},"è":{"ha":565,"x_min":0,"x_max":0,"o":"m 33 397 b 417 3 33 160 183 3 b 518 61 461 3 518 7 b 454 118 518 88 499 118 b 425 117 444 118 435 117 b 186 301 285 117 213 201 b 207 300 193 301 200 300 b 536 572 386 300 536 439 b 331 728 536 665 444 728 b 33 397 103 728 33 535 z m 242 899 b 250 897 243 899 247 897 l 253 897 b 296 858 258 893 276 878 b 342 815 315 840 335 822 b 381 800 351 806 364 800 b 440 856 424 800 440 831 b 428 894 440 868 438 882 b 390 926 417 906 403 917 b 364 951 382 935 374 943 b 336 978 356 961 346 969 b 303 1000 328 983 315 993 b 257 1014 289 1007 274 1014 b 193 960 217 1014 193 986 b 242 899 193 939 208 907 z m 172 418 b 344 617 179 525 231 617 b 417 574 388 617 417 604 b 326 444 417 528 372 472 b 211 414 294 425 251 414 b 172 418 199 414 185 415 z "},"é":{"ha":569,"x_min":0,"x_max":0,"o":"m 33 397 b 417 3 33 160 183 3 b 518 61 461 3 518 7 b 454 118 518 88 499 118 b 425 117 444 118 435 117 b 186 301 285 117 213 201 b 207 300 193 301 200 300 b 536 572 386 300 536 439 b 331 728 536 665 444 728 b 33 397 103 728 33 535 z m 221 881 b 279 822 221 858 239 822 b 313 832 294 822 304 826 b 367 871 331 844 349 858 b 418 904 385 883 401 896 l 429 904 b 489 957 468 904 489 932 b 415 1019 489 989 463 1019 b 386 1015 406 1019 396 1018 b 229 908 363 1008 240 926 b 221 881 224 899 221 890 z m 172 418 b 344 617 179 525 231 617 b 417 574 388 617 417 604 b 326 444 417 528 372 472 b 211 414 294 425 251 414 b 172 418 199 414 185 415 z "},"ê":{"ha":568,"x_min":0,"x_max":0,"o":"m 33 397 b 417 3 33 160 183 3 b 518 61 461 3 518 7 b 454 118 518 88 499 118 b 425 117 444 118 435 117 b 186 301 285 117 213 201 b 207 300 193 301 200 300 b 536 572 386 300 536 439 b 331 728 536 665 444 728 b 33 397 103 728 33 535 z m 158 871 b 218 815 158 849 176 815 b 263 832 236 815 253 822 b 279 850 269 838 274 844 b 294 868 285 856 289 863 b 317 893 301 878 308 886 b 357 844 331 878 343 861 b 406 821 367 833 382 821 b 465 878 446 821 465 856 b 451 915 465 892 460 904 b 411 963 439 929 426 946 b 319 1019 388 990 357 1019 b 204 943 276 1019 229 975 b 176 913 196 933 185 924 b 158 871 167 900 158 886 z m 172 418 b 344 617 179 525 231 617 b 417 574 388 617 417 604 b 326 444 417 528 372 472 b 211 414 294 425 251 414 b 172 418 199 414 185 415 z "},"ë":{"ha":569,"x_min":0,"x_max":0,"o":"m 33 397 b 417 3 33 160 183 3 b 518 61 461 3 518 7 b 454 118 518 88 499 118 b 425 117 444 118 435 117 b 186 301 285 117 213 201 b 207 300 193 301 200 300 b 536 572 386 300 536 439 b 331 728 536 665 444 728 b 33 397 103 728 33 535 z m 169 903 b 231 842 169 881 188 842 b 306 904 274 842 306 874 b 238 972 306 926 281 972 b 169 903 194 972 169 924 z m 360 922 b 433 860 360 892 390 860 b 507 924 478 860 507 896 b 449 978 507 944 486 978 l 438 978 b 433 976 436 976 435 976 l 428 976 b 419 978 425 978 422 978 b 360 922 379 978 360 944 z m 172 418 b 344 617 179 525 231 617 b 417 574 388 617 417 604 b 326 444 417 528 372 472 b 211 414 294 425 251 414 b 172 418 199 414 185 415 z "},"ì":{"ha":347,"x_min":0,"x_max":0,"o":"m 121 60 b 197 1 121 25 154 1 b 276 60 242 1 274 25 b 279 136 278 83 278 111 l 289 543 b 292 660 289 582 292 621 b 214 717 292 694 256 717 b 136 660 169 717 139 694 b 133 583 135 635 135 607 l 124 175 b 121 60 124 138 121 97 z m 58 872 b 203 806 114 856 156 833 b 233 797 211 800 222 797 b 293 854 278 797 293 832 b 271 899 293 869 288 886 b 76 985 243 918 118 985 b 17 928 36 985 17 951 b 58 872 17 910 29 882 z "},"í":{"ha":333,"x_min":0,"x_max":0,"o":"m 64 56 b 139 1 64 24 103 1 b 218 60 183 1 215 25 b 219 136 221 83 219 111 l 231 543 b 233 660 231 582 233 621 b 154 717 233 693 194 717 b 78 660 113 717 81 693 b 76 601 76 640 76 621 l 74 467 b 64 60 71 331 68 194 z m 49 879 b 110 822 49 856 68 822 b 131 825 117 822 122 822 b 299 939 163 838 281 915 b 310 974 306 950 310 961 b 250 1031 310 997 292 1031 b 210 1015 232 1031 219 1024 b 146 969 190 999 169 983 b 78 926 124 954 101 940 b 49 879 58 915 49 899 z "},"î":{"ha":385,"x_min":0,"x_max":0,"o":"m 118 60 b 193 1 118 26 153 1 b 274 60 238 1 271 25 b 275 136 276 83 275 111 l 279 290 b 288 660 282 414 288 538 b 210 717 288 694 251 717 b 132 660 165 717 135 694 b 131 583 131 635 131 607 l 119 175 b 118 60 119 138 118 97 z m 17 858 b 82 800 17 832 39 800 b 119 814 96 800 110 806 b 157 839 132 819 144 829 b 189 865 168 849 179 858 b 201 872 193 868 197 871 b 206 875 203 874 204 874 b 208 874 206 875 207 874 b 215 867 210 872 213 869 b 233 842 221 860 226 850 b 294 800 247 822 268 800 b 356 857 335 800 356 833 b 285 958 356 889 308 939 b 210 989 265 975 242 989 b 125 960 178 989 149 976 b 92 936 114 953 103 944 b 65 915 82 928 74 922 b 17 858 33 907 17 881 z "},"ï":{"ha":350,"x_min":0,"x_max":0,"o":"m 92 60 b 167 1 92 26 126 1 b 246 60 211 1 243 25 b 249 136 247 83 247 111 l 253 290 b 261 660 256 414 261 538 b 183 717 261 694 225 717 b 107 660 139 717 110 694 b 104 583 106 635 106 607 l 94 175 b 92 60 94 138 92 97 z m 26 908 b 88 850 26 885 46 850 b 149 907 129 850 149 882 b 93 965 149 926 133 965 b 26 908 49 965 26 935 z m 204 892 b 261 836 204 867 221 836 b 325 896 304 836 325 869 b 267 953 325 917 308 953 b 204 892 224 953 204 914 z "},"ð":{"ha":597,"x_min":0,"x_max":0,"o":"m 49 289 b 275 -1 49 190 97 -1 b 499 114 360 -1 449 47 b 561 338 547 178 561 265 b 326 849 561 519 471 708 b 396 897 347 867 368 882 b 418 915 406 903 411 907 b 431 949 426 924 431 935 b 371 1007 431 972 413 1007 b 333 994 358 1007 344 1001 b 293 968 321 988 307 978 b 236 924 271 953 250 935 b 193 953 222 933 207 943 b 129 990 182 974 164 990 b 58 929 85 990 58 960 b 96 876 58 911 76 892 b 126 856 106 869 117 863 b 143 844 132 851 138 849 b 101 807 131 833 115 819 b 68 750 83 790 68 769 b 125 693 68 726 83 693 b 167 708 143 693 156 699 b 233 769 190 726 211 749 b 300 674 261 740 281 708 b 49 289 139 593 49 435 z m 172 278 b 347 571 172 385 235 506 b 408 278 385 476 408 378 b 356 135 408 228 393 174 b 286 99 336 115 314 99 b 172 278 204 99 172 211 z "},"ñ":{"ha":682,"x_min":0,"x_max":0,"o":"m 60 54 b 129 -3 63 25 86 -3 b 203 51 165 -3 197 14 b 360 526 222 203 256 396 b 392 560 367 535 378 549 b 429 581 407 574 421 581 b 436 576 431 581 432 579 b 446 564 439 574 443 569 b 458 535 453 553 457 540 b 476 431 469 500 474 465 b 482 276 481 379 481 326 b 486 82 485 211 486 147 l 486 64 b 561 6 488 31 517 6 b 636 72 607 6 636 26 l 636 103 b 619 465 636 224 632 346 b 442 694 613 538 581 694 b 193 479 317 694 238 569 b 203 651 196 536 199 594 l 203 654 b 129 708 203 685 165 708 b 60 653 85 708 63 681 b 47 414 51 575 49 493 l 47 369 b 60 54 47 268 49 156 z m 250 828 b 318 883 290 828 318 856 l 318 889 b 336 881 322 888 329 886 b 368 857 346 874 357 865 b 457 821 392 840 421 821 b 565 910 519 821 551 876 b 569 931 568 917 569 924 b 510 988 569 953 550 988 b 463 963 485 988 471 975 b 450 940 461 961 450 942 b 428 956 442 946 435 950 b 396 976 417 963 407 971 b 313 1001 374 990 347 1001 b 192 893 243 1001 192 939 b 250 828 192 860 215 828 z "},"ò":{"ha":576,"x_min":0,"x_max":0,"o":"m 32 290 b 263 8 32 186 78 8 b 544 367 486 8 544 239 b 408 692 544 488 501 613 b 340 722 389 707 365 722 b 297 703 321 722 307 710 b 32 290 129 665 32 451 z m 175 879 b 233 857 196 874 215 865 b 290 829 253 849 271 839 b 321 821 299 825 310 821 b 379 876 361 821 379 853 b 350 925 379 894 369 915 b 276 963 338 932 307 947 b 197 989 247 975 214 989 b 135 932 156 989 135 957 b 175 879 135 915 147 888 z m 179 338 b 301 583 179 428 208 546 b 311 586 306 585 308 585 b 317 588 314 586 315 588 b 324 589 319 588 321 589 b 331 593 326 590 328 592 b 336 597 332 594 335 596 b 339 600 338 599 339 599 b 438 364 404 539 438 442 b 349 169 438 286 404 222 b 278 132 326 147 301 132 b 179 338 201 132 179 281 z "},"ó":{"ha":579,"x_min":0,"x_max":0,"o":"m 31 290 b 261 8 31 186 76 8 b 543 367 485 8 543 239 b 407 692 543 488 500 613 b 339 722 388 707 364 722 b 296 703 319 722 306 710 b 31 290 128 665 31 451 z m 176 825 b 236 769 176 803 194 769 b 276 785 254 769 267 776 b 333 833 286 793 310 814 b 385 874 356 854 378 871 b 414 879 392 878 406 879 b 460 933 444 888 460 913 b 403 990 460 954 442 990 b 319 968 375 990 339 981 b 196 868 275 942 232 904 b 176 825 182 856 176 840 z m 178 338 b 300 583 178 428 207 546 b 310 586 304 585 307 585 b 315 588 313 586 314 588 b 322 589 318 588 319 589 b 329 593 325 590 326 592 b 335 597 331 594 333 596 b 338 600 336 599 338 599 b 436 364 403 539 436 442 b 347 169 436 286 403 222 b 276 132 325 147 300 132 b 178 338 200 132 178 281 z "},"ô":{"ha":582,"x_min":0,"x_max":0,"o":"m 31 290 b 261 8 31 186 76 8 b 543 367 485 8 543 239 b 407 692 543 488 500 613 b 339 722 388 707 364 722 b 296 703 319 722 306 710 b 31 290 128 665 31 451 z m 161 839 b 219 783 161 818 178 783 b 272 813 244 783 264 799 b 303 865 282 829 292 847 b 328 903 310 878 318 890 b 382 817 346 874 361 844 b 431 796 392 804 410 796 b 489 853 471 796 489 831 b 374 1018 489 886 407 997 b 331 1031 361 1026 346 1031 b 240 981 288 1031 257 1003 b 161 839 221 954 161 872 z m 178 338 b 300 583 178 428 207 546 b 310 586 304 585 307 585 b 315 588 313 586 314 588 b 322 589 318 588 319 589 b 329 593 325 590 326 592 b 335 597 331 594 333 596 b 338 600 336 599 338 599 b 436 364 403 539 436 442 b 347 169 436 286 403 222 b 276 132 325 147 300 132 b 178 338 200 132 178 281 z "},"õ":{"ha":586,"x_min":0,"x_max":0,"o":"m 35 290 b 265 8 35 186 81 8 b 547 367 489 8 547 239 b 411 692 547 488 504 613 b 343 722 392 707 368 722 b 300 703 324 722 310 710 b 35 290 132 665 35 451 z m 167 815 b 218 842 189 815 207 829 b 243 872 228 853 236 864 b 400 811 281 847 351 811 b 499 907 458 811 499 869 b 438 964 499 931 482 964 b 383 928 406 964 390 946 b 276 989 344 943 311 965 b 243 999 267 996 256 999 b 203 989 228 999 214 994 b 110 882 175 976 115 908 l 110 872 b 167 815 110 850 126 815 z m 182 338 b 304 583 182 428 211 546 b 314 586 308 585 311 585 b 319 588 317 586 318 588 b 326 589 322 588 324 589 b 333 593 329 590 331 592 b 339 597 335 594 336 596 b 342 600 340 599 342 599 b 440 364 407 539 440 442 b 351 169 440 286 407 222 b 281 132 329 147 304 132 b 182 338 204 132 182 281 z "},"ö":{"ha":581,"x_min":0,"x_max":0,"o":"m 31 290 b 261 8 31 186 76 8 b 543 367 485 8 543 239 b 407 692 543 488 500 613 b 339 722 388 707 364 722 b 296 703 319 722 306 710 b 31 290 128 665 31 451 z m 161 854 b 225 800 161 828 185 800 b 285 828 251 800 268 811 b 313 875 301 842 313 853 b 251 931 313 899 293 931 b 167 882 225 931 175 900 b 161 854 164 874 161 864 z m 375 889 b 444 824 375 864 401 824 b 503 881 485 824 503 858 b 435 944 503 906 478 944 b 375 889 394 944 375 913 z m 178 338 b 300 583 178 428 207 546 b 310 586 304 585 307 585 b 315 588 313 586 314 588 b 322 589 318 588 319 589 b 329 593 325 590 326 592 b 335 597 331 594 333 596 b 338 600 336 599 338 599 b 436 364 403 539 436 442 b 347 169 436 286 403 222 b 276 132 325 147 300 132 b 178 338 200 132 178 281 z "},"÷":{"ha":621,"x_min":0,"x_max":0,"o":"m 82 325 l 88 325 b 338 335 169 332 254 335 b 442 333 372 335 407 333 l 499 333 b 554 340 521 335 544 336 b 596 396 582 351 596 376 b 531 458 596 419 571 458 b 503 450 518 458 508 454 b 496 446 500 449 497 447 b 318 449 436 446 376 449 b 92 439 240 449 167 443 b 24 383 57 439 24 422 b 82 325 24 363 39 325 z m 263 182 b 326 113 263 160 278 113 b 385 165 364 113 385 143 b 382 185 385 171 382 178 l 382 186 b 383 190 382 188 383 189 b 385 194 383 192 385 193 l 385 200 b 325 258 385 224 365 258 b 263 182 283 258 263 219 z m 246 601 b 314 535 246 578 267 535 b 375 606 357 535 375 588 b 313 665 375 631 353 665 b 246 601 267 665 246 628 z "},"ø":{"ha":614,"x_min":0,"x_max":0,"o":"m 36 -14 b 97 -71 36 -37 54 -71 b 143 -49 117 -71 133 -61 b 168 -11 151 -40 161 -25 b 186 22 175 0 181 11 b 264 8 211 13 238 8 b 544 367 488 8 544 243 b 496 582 544 438 531 514 b 578 718 522 626 553 672 b 586 747 583 726 586 736 b 528 803 586 771 568 803 b 481 781 504 803 492 794 b 418 682 461 756 432 708 b 414 686 417 683 415 685 b 393 703 407 692 401 699 b 340 721 379 713 361 721 b 297 703 321 721 307 710 b 32 292 131 667 32 453 b 92 92 32 225 46 153 b 61 42 85 79 72 61 b 36 -14 49 22 36 -1 z m 186 260 b 178 338 181 285 178 311 b 261 560 178 406 200 510 b 299 582 272 569 285 575 b 340 599 313 588 328 592 b 349 590 343 596 346 593 b 358 579 353 586 356 582 b 186 260 301 472 244 367 z m 253 138 b 424 453 313 243 367 347 b 438 360 432 422 438 390 b 349 169 438 283 403 221 b 278 132 326 147 301 132 b 253 138 269 132 261 135 z "},"ù":{"ha":646,"x_min":0,"x_max":0,"o":"m 176 14 b 267 -10 203 -1 232 -10 b 463 131 367 -10 428 65 b 557 -10 474 86 497 -10 b 615 47 597 -10 615 25 b 610 71 615 57 613 63 b 556 357 571 165 556 258 b 574 649 556 454 568 551 l 574 651 b 515 708 574 675 554 708 b 474 693 497 708 483 701 b 447 606 461 682 454 647 b 424 449 440 564 433 507 b 340 151 407 332 383 207 b 265 103 326 131 292 103 b 229 132 253 103 240 111 b 197 351 200 196 197 282 b 207 564 197 422 201 493 b 217 665 210 597 217 632 b 147 725 217 699 199 725 b 71 668 103 725 75 701 b 61 574 67 636 64 604 b 43 342 53 496 43 418 b 176 14 43 244 56 76 z m 217 879 b 357 794 267 853 310 821 b 390 786 367 789 378 786 b 449 843 433 786 449 819 b 428 886 449 858 443 874 b 244 985 400 907 281 985 b 185 925 204 985 185 946 b 217 879 185 907 194 890 z "},"ú":{"ha":650,"x_min":0,"x_max":0,"o":"m 176 14 b 267 -10 203 -1 232 -10 b 463 131 367 -10 428 65 b 557 -10 474 86 497 -10 b 615 47 597 -10 615 25 b 610 71 615 57 613 63 b 556 357 571 165 556 258 b 574 649 556 454 568 551 l 574 651 b 515 708 574 675 554 708 b 474 693 497 708 483 701 b 447 606 461 682 454 647 b 424 449 440 564 433 507 b 340 151 407 332 383 207 b 265 103 326 131 292 103 b 229 132 253 103 240 111 b 197 351 200 196 197 282 b 207 564 197 422 201 493 b 217 665 210 597 217 632 b 147 725 217 699 199 725 b 71 668 103 725 75 701 b 61 574 67 636 64 604 b 43 342 53 496 43 418 b 176 14 43 244 56 76 z m 274 843 b 335 786 274 819 292 786 b 372 801 350 786 364 793 b 401 832 383 811 390 822 b 507 899 432 860 465 885 b 547 951 536 908 547 931 b 486 1008 547 975 526 1008 b 475 1007 482 1008 478 1008 b 282 871 399 989 317 922 b 274 843 276 863 274 853 z "},"û":{"ha":651,"x_min":0,"x_max":0,"o":"m 176 14 b 267 -10 203 -1 232 -10 b 463 131 367 -10 428 65 b 557 -10 474 86 497 -10 b 615 47 597 -10 615 25 b 610 71 615 57 613 63 b 556 357 571 165 556 258 b 574 649 556 454 568 551 l 574 651 b 515 708 574 675 554 708 b 474 693 497 708 483 701 b 447 606 461 682 454 647 b 424 449 440 564 433 507 b 340 151 407 332 383 207 b 265 103 326 131 292 103 b 229 132 253 103 240 111 b 197 351 200 196 197 282 b 207 564 197 422 201 493 b 217 665 210 597 217 632 b 147 725 217 699 199 725 b 71 668 103 725 75 701 b 61 574 67 636 64 604 b 43 342 53 496 43 418 b 176 14 43 244 56 76 z m 201 858 b 263 803 201 836 222 803 b 314 833 290 803 306 819 b 393 910 324 850 367 889 b 422 853 401 896 413 874 b 464 790 436 826 451 800 b 500 779 474 783 486 779 b 560 832 540 779 560 808 b 461 1015 560 861 488 990 b 404 1038 449 1028 429 1038 b 349 1021 383 1038 363 1029 b 213 893 314 997 232 925 b 201 858 207 882 201 871 z "},"ü":{"ha":649,"x_min":0,"x_max":0,"o":"m 176 14 b 267 -10 203 -1 232 -10 b 463 131 367 -10 428 65 b 557 -10 474 86 497 -10 b 615 47 597 -10 615 25 b 610 71 615 57 613 63 b 556 357 571 165 556 258 b 574 649 556 454 568 551 l 574 651 b 515 708 574 675 554 708 b 474 693 497 708 483 701 b 447 606 461 682 454 647 b 424 449 440 564 433 507 b 340 151 407 332 383 207 b 265 103 326 131 292 103 b 229 132 253 103 240 111 b 197 351 200 196 197 282 b 207 564 197 422 201 493 b 217 665 210 597 217 632 b 147 725 217 699 199 725 b 71 668 103 725 75 701 b 61 574 67 636 64 604 b 43 342 53 496 43 418 b 176 14 43 244 56 76 z m 199 874 b 263 815 199 849 221 815 b 328 876 307 815 328 851 b 265 932 328 904 310 932 b 199 874 221 932 199 901 z m 392 867 b 458 810 392 838 415 810 b 531 867 503 810 531 836 b 460 924 531 901 504 924 b 392 867 415 924 392 897 z "},"ý":{"ha":678,"x_min":0,"x_max":0,"o":"m 54 -183 b 256 -289 89 -253 163 -289 b 557 -125 376 -289 492 -228 b 631 206 621 -26 631 99 b 613 599 631 336 613 467 b 615 635 613 610 615 622 b 532 699 615 676 579 699 b 472 674 508 699 486 692 b 469 668 471 672 471 669 b 468 663 469 667 468 664 b 464 646 467 657 465 651 b 458 619 461 635 460 624 b 386 296 439 511 425 401 b 253 144 367 240 324 144 b 190 294 194 144 190 253 b 203 458 190 350 196 404 b 229 640 211 518 229 581 b 161 701 229 672 214 701 b 76 646 119 701 82 681 b 40 321 60 538 40 429 b 244 32 40 224 56 32 b 472 201 367 32 433 122 l 472 165 b 271 -165 472 38 461 -146 l 251 -165 b 164 -137 201 -165 181 -153 l 151 -125 b 104 -101 143 -111 119 -101 b 46 -154 65 -101 46 -132 b 54 -183 46 -165 49 -175 z m 271 833 b 331 776 271 811 290 776 b 378 797 350 776 368 788 b 449 885 399 826 422 858 b 460 896 453 890 457 893 b 464 899 461 897 463 897 l 465 899 b 507 931 486 904 500 915 b 513 954 511 938 513 946 b 449 1011 513 981 490 1011 b 435 1010 444 1011 439 1011 b 274 851 388 1000 289 888 b 271 833 272 844 271 839 z "},"þ":{"ha":658,"x_min":0,"x_max":0,"o":"m 68 -221 b 133 -275 74 -247 90 -275 b 203 -219 171 -275 203 -247 b 200 -157 203 -199 200 -178 b 206 128 200 -62 201 33 b 358 81 247 100 304 81 b 624 435 543 81 624 276 b 447 722 624 544 586 722 b 208 533 342 722 256 610 b 210 903 210 657 210 779 b 219 932 217 913 219 924 b 151 990 219 963 194 990 b 75 904 82 990 75 938 b 72 231 75 679 76 456 b 64 -144 69 106 64 -19 l 64 -178 b 68 -221 64 -192 64 -207 z m 231 265 b 228 275 229 268 228 272 b 224 283 226 278 225 281 b 422 600 250 364 340 565 b 449 610 433 606 442 610 b 472 592 454 610 463 604 b 504 433 493 553 504 476 b 356 194 504 342 469 194 b 249 240 314 194 276 213 b 231 265 243 246 232 260 z "},"ÿ":{"ha":676,"x_min":0,"x_max":0,"o":"m 54 -183 b 256 -289 89 -253 163 -289 b 557 -125 376 -289 492 -228 b 631 206 621 -26 631 99 b 613 599 631 336 613 467 b 615 635 613 610 615 622 b 532 699 615 676 579 699 b 472 674 508 699 486 692 b 469 668 471 672 471 669 b 468 663 469 667 468 664 b 464 646 467 657 465 651 b 458 619 461 635 460 624 b 386 296 439 511 425 401 b 253 144 367 240 324 144 b 190 294 194 144 190 253 b 203 458 190 350 196 404 b 229 640 211 518 229 581 b 161 701 229 672 214 701 b 76 646 119 701 82 681 b 40 321 60 538 40 429 b 244 32 40 224 56 32 b 472 201 367 32 433 122 l 472 165 b 271 -165 472 38 461 -146 l 251 -165 b 164 -137 201 -165 181 -153 l 151 -125 b 104 -101 143 -111 119 -101 b 46 -154 65 -101 46 -132 b 54 -183 46 -165 49 -175 z m 153 882 b 213 825 153 858 172 825 b 276 893 258 825 276 869 b 214 949 276 917 254 949 b 153 882 168 949 153 903 z m 376 874 b 435 815 376 851 393 815 b 458 819 443 815 450 817 b 507 879 489 832 507 850 b 450 935 507 900 490 935 b 376 874 415 935 376 913 z "},"Ł":{"ha":638,"x_min":0,"x_max":0,"o":"m 21 310 b 79 253 21 289 39 253 b 113 261 93 253 103 257 b 117 265 114 263 115 264 b 375 7 132 104 194 7 b 617 64 426 7 582 26 b 631 101 626 75 631 89 b 571 158 631 125 613 158 b 556 157 565 158 560 158 b 383 122 513 136 431 122 b 257 213 306 122 267 129 b 253 299 251 244 253 278 l 253 367 b 415 490 307 408 360 450 b 497 546 442 508 469 526 b 518 592 513 558 518 578 b 457 647 518 613 496 647 b 426 638 443 647 435 643 b 371 600 407 625 389 611 b 261 518 335 572 299 546 b 296 801 271 613 285 707 b 307 947 301 850 307 900 b 236 1007 307 979 282 1007 b 171 975 208 1007 183 994 b 111 404 144 932 114 471 l 56 361 b 43 351 51 358 46 354 b 31 342 39 349 35 344 b 21 310 24 333 21 324 z "},"ł":{"ha":374,"x_min":0,"x_max":0,"o":"m 31 374 b 90 317 31 350 50 317 b 106 318 96 317 101 317 b 113 140 108 260 110 200 b 117 50 114 110 114 79 b 188 -8 118 19 143 -8 b 260 49 229 -8 260 17 b 254 178 260 90 256 135 b 246 447 251 268 247 358 b 331 535 274 476 303 506 b 349 581 340 549 349 564 b 289 635 349 604 328 635 b 249 618 271 635 258 626 b 244 615 247 617 246 615 b 260 942 246 724 251 832 l 260 944 b 188 1001 260 975 226 1001 b 117 943 142 1001 119 971 b 100 556 103 815 100 683 b 101 465 100 525 101 494 b 60 425 90 454 74 440 b 31 374 44 408 31 390 z "},"Œ":{"ha":1232,"x_min":0,"x_max":0,"o":"m 406 4 b 707 203 563 4 653 106 b 960 -10 726 90 774 -10 b 1201 50 1010 -10 1167 8 b 1214 85 1208 61 1214 71 b 1156 142 1214 108 1197 142 b 1140 140 1150 142 1144 142 b 967 104 1083 121 1028 104 b 881 118 938 104 907 108 b 842 179 860 125 847 149 b 836 261 835 210 836 243 b 842 454 836 325 836 389 b 978 467 886 460 932 463 b 1042 472 999 468 1021 469 b 1092 526 1076 476 1092 506 b 1035 585 1092 547 1076 585 l 1029 585 b 854 569 972 581 913 576 b 892 886 867 675 883 781 b 1011 890 932 889 972 890 b 1115 888 1046 890 1081 888 b 1178 944 1160 888 1178 919 b 1083 1001 1178 996 1128 1001 b 1011 1003 1060 1003 1035 1003 b 715 985 922 1003 801 999 b 654 926 679 979 654 954 b 661 903 654 921 657 911 b 461 990 613 951 549 990 b 163 833 343 990 235 924 b 42 450 78 726 42 575 b 406 4 42 226 161 4 z m 257 222 b 214 415 224 278 214 354 b 315 793 214 538 247 689 b 439 885 347 846 390 885 b 464 882 447 885 456 883 b 574 813 507 872 549 842 b 664 536 644 735 664 631 b 422 125 664 393 604 125 b 257 222 347 125 289 169 z m 682 879 b 714 869 690 872 701 869 b 736 872 721 869 729 871 b 742 874 738 872 740 872 b 731 801 738 849 733 824 b 682 879 718 826 701 853 z "},"œ":{"ha":997,"x_min":0,"x_max":0,"o":"m 31 290 b 263 8 31 185 76 8 b 514 197 406 8 479 107 b 854 15 571 86 692 15 b 951 72 899 15 951 19 b 879 129 951 107 925 129 l 857 129 b 619 313 717 129 646 213 l 636 313 b 969 586 821 313 969 449 b 763 740 969 678 875 740 b 499 572 624 740 539 664 b 339 722 474 622 403 722 b 311 714 329 722 319 718 b 296 703 306 710 300 707 b 31 290 128 667 31 451 z m 178 338 b 300 583 178 428 207 546 b 310 586 304 585 307 585 b 315 588 313 586 314 588 b 322 589 318 588 319 589 b 329 593 325 590 326 592 b 335 597 331 594 333 596 b 338 600 336 599 338 599 b 436 364 403 539 436 442 b 347 169 436 286 403 222 b 276 132 325 147 300 132 b 178 338 200 132 178 281 z m 606 429 b 775 629 610 515 653 629 b 849 586 819 629 849 618 b 643 426 849 503 750 426 b 606 429 631 426 618 428 z "},"Š":{"ha":679,"x_min":0,"x_max":0,"o":"m 31 138 b 172 19 42 90 125 39 b 328 -7 221 1 275 -7 b 636 258 533 -7 636 111 b 432 575 636 407 539 490 b 290 681 385 610 336 644 b 200 819 253 710 200 768 b 331 897 200 875 261 897 b 494 796 414 897 471 857 b 553 751 507 772 524 751 b 611 808 594 751 611 785 b 604 844 611 819 608 832 b 333 1011 571 942 467 1011 b 67 792 160 1011 67 921 b 276 493 67 649 169 567 b 354 439 303 475 331 457 b 513 254 421 393 494 338 b 515 229 514 246 515 238 b 335 108 515 151 432 108 b 132 188 253 108 178 135 b 104 210 125 194 117 204 b 85 213 97 211 90 213 b 29 151 42 213 29 169 b 31 138 29 147 29 142 z m 256 1158 b 346 1086 274 1124 303 1086 b 499 1215 413 1086 465 1167 b 507 1242 504 1224 507 1233 b 444 1300 507 1265 489 1300 b 399 1276 422 1300 408 1289 b 356 1221 385 1258 371 1240 b 336 1257 350 1233 344 1246 b 278 1296 325 1275 307 1296 b 215 1240 238 1296 215 1263 b 225 1211 215 1231 219 1221 b 256 1158 236 1194 244 1176 z "},"š":{"ha":525,"x_min":0,"x_max":0,"o":"m 26 144 b 279 13 26 61 199 13 b 490 206 421 13 490 110 b 368 385 490 293 443 347 b 317 414 351 394 333 404 b 265 444 299 424 282 433 b 211 515 232 467 211 483 b 275 575 211 550 231 575 b 365 528 311 575 344 553 b 371 521 368 525 369 522 b 421 496 379 506 404 496 b 481 550 460 496 481 526 b 407 646 481 588 439 625 b 275 685 369 669 325 685 b 64 506 150 685 64 599 b 196 332 64 422 129 369 b 271 289 219 318 246 304 b 356 190 319 261 356 229 b 258 126 356 153 308 126 b 156 160 210 126 181 143 b 121 182 143 168 132 176 b 81 196 110 190 96 196 b 26 144 42 196 26 165 z m 203 788 b 265 754 214 772 238 754 b 336 794 296 754 325 779 b 411 942 353 818 411 914 b 350 1000 411 965 392 1000 b 299 968 325 1000 306 985 b 271 917 289 950 281 932 l 271 922 b 210 985 271 943 260 985 b 147 924 164 985 147 947 b 203 788 147 896 185 811 z "},"Ÿ":{"ha":704,"x_min":0,"x_max":0,"o":"m 122 71 b 203 11 122 38 161 11 b 267 50 238 11 257 28 b 313 163 282 86 296 125 b 418 382 343 236 379 308 b 690 894 507 553 607 721 b 700 924 696 904 700 914 b 626 974 700 957 660 974 b 550 933 592 974 563 960 b 482 804 526 892 504 847 b 340 546 435 717 388 632 b 169 840 264 633 213 739 l 149 889 b 136 932 142 908 136 925 b 78 989 136 956 121 989 b 15 931 35 989 15 956 b 22 897 15 919 18 908 b 33 864 25 886 29 875 b 285 439 92 717 156 561 b 122 71 250 374 122 119 z m 211 1157 b 269 1101 211 1135 226 1101 b 300 1108 281 1101 292 1103 b 342 1178 321 1119 342 1160 b 286 1233 342 1200 326 1233 b 211 1157 233 1233 211 1186 z m 463 1150 b 522 1093 463 1129 482 1093 b 583 1158 565 1093 583 1138 b 526 1217 583 1182 565 1217 b 463 1150 481 1217 463 1174 z "},"Ž":{"ha":671,"x_min":0,"x_max":0,"o":"m 283 -29 b 583 -4 367 -29 504 -26 b 646 61 615 6 646 24 b 588 114 646 82 629 114 b 557 110 576 114 567 111 b 322 83 501 88 382 83 b 171 97 281 83 211 86 b 226 197 188 131 207 165 b 468 564 301 322 388 442 b 635 915 521 644 635 821 b 539 992 635 975 590 992 b 418 993 499 993 458 993 b 301 993 379 993 339 992 b 150 1001 250 996 200 1001 b 51 942 104 1001 51 994 b 114 886 51 917 71 886 b 475 881 233 886 354 881 b 192 450 381 736 285 594 b 99 297 160 399 128 349 b 42 197 78 265 57 232 b 26 122 32 174 26 149 b 283 -29 26 -14 178 -29 z m 222 1183 b 253 1150 233 1172 244 1161 b 283 1118 264 1139 274 1129 b 367 1074 306 1096 333 1074 b 489 1179 421 1074 467 1133 b 507 1208 494 1189 501 1199 b 517 1242 513 1219 517 1231 b 454 1299 517 1265 493 1299 b 408 1275 432 1299 417 1288 b 364 1203 390 1251 379 1226 b 333 1239 353 1214 343 1226 b 289 1286 319 1254 306 1271 b 243 1306 279 1296 264 1306 b 183 1250 204 1306 183 1272 b 222 1183 183 1226 207 1199 z "},"ž":{"ha":568,"x_min":0,"x_max":0,"o":"m 25 129 b 285 7 25 29 199 7 b 517 56 338 7 476 21 b 539 99 531 65 539 82 b 478 156 539 121 518 156 b 440 143 463 156 450 149 b 342 117 411 125 379 117 b 196 153 292 117 240 131 b 278 247 217 182 244 214 b 386 354 313 281 350 318 b 525 579 460 426 525 503 b 313 721 525 706 414 721 b 99 693 275 721 128 708 b 65 643 76 682 65 663 b 122 586 65 619 82 586 b 140 589 129 586 136 588 b 329 610 201 601 267 610 b 364 607 340 610 353 610 b 353 574 363 596 358 585 b 333 532 346 560 339 546 b 301 479 322 514 313 496 b 264 426 290 461 279 443 b 154 314 232 389 193 351 b 50 196 117 275 79 236 b 25 129 35 175 25 154 z m 110 982 b 238 846 110 938 193 864 b 283 838 251 842 267 838 b 342 856 306 838 326 844 b 438 996 379 882 438 954 b 376 1056 438 1017 419 1056 b 321 1018 346 1056 326 1035 b 279 953 314 992 300 971 b 254 972 271 958 263 964 b 228 1001 244 981 236 990 b 222 1008 225 1003 224 1006 b 218 1014 221 1010 219 1013 b 215 1019 218 1015 217 1017 b 169 1038 206 1029 188 1038 b 110 982 128 1038 110 1006 z "},"ƒ":{"ha":769,"x_min":0,"x_max":0,"o":"m -6 -65 b 157 -171 18 -119 76 -171 b 429 64 283 -171 403 -56 b 450 261 443 129 446 194 b 465 526 454 349 458 438 b 522 526 483 526 503 525 b 589 531 546 526 569 526 b 638 588 622 536 638 565 b 579 643 638 607 621 643 l 575 643 b 478 639 544 642 511 640 b 488 690 481 653 483 671 b 604 850 501 750 529 850 b 626 824 615 850 624 833 b 633 806 629 817 631 811 b 651 767 638 792 643 778 b 694 746 661 756 675 746 b 754 804 738 746 754 782 b 594 958 754 872 700 958 b 325 638 403 958 343 744 b 292 635 314 636 303 636 b 204 572 253 631 204 622 b 267 513 204 549 225 513 b 283 515 274 513 278 514 b 296 518 288 515 292 517 b 310 522 300 519 306 521 b 290 229 301 425 300 326 b 265 68 286 194 282 129 b 176 -51 249 7 221 -43 b 163 -53 172 -53 168 -53 b 107 -19 132 -53 118 -39 b 97 -6 104 -15 100 -10 b 43 24 83 14 68 24 b -15 -26 7 24 -15 -1 b -6 -65 -15 -40 -10 -53 z "},"ˆ":{"ha":503,"x_min":0,"x_max":0,"o":"m 31 801 b 99 740 31 774 53 740 b 157 782 126 740 151 760 b 158 790 157 785 157 788 l 158 793 b 236 850 167 806 225 850 b 268 836 244 850 254 846 b 310 804 279 829 301 813 b 414 753 338 781 372 753 b 472 811 458 753 472 788 b 432 863 472 826 463 856 b 424 864 429 863 426 864 b 415 868 421 865 419 865 b 408 874 413 869 411 871 b 388 889 403 878 396 883 b 351 918 374 900 358 913 b 240 963 325 936 286 963 b 57 854 171 963 100 907 b 31 801 43 838 31 818 z "},"ˇ":{"ha":476,"x_min":0,"x_max":0,"o":"m 275 782 b 413 872 346 782 392 828 b 442 949 419 886 442 933 b 383 1007 442 971 425 1007 b 336 985 361 1007 346 997 b 318 944 329 971 324 960 b 300 908 313 929 307 918 b 274 894 293 900 285 894 b 163 968 238 894 189 942 b 140 986 156 975 149 981 b 93 1007 126 997 111 1007 b 31 947 50 1007 31 971 b 72 890 31 928 42 899 b 79 889 75 890 76 890 b 93 878 83 886 88 882 b 275 782 132 825 208 782 z "},"˜":{"ha":571,"x_min":0,"x_max":0,"o":"m 94 774 b 156 826 132 774 151 806 b 188 842 163 833 178 842 b 192 840 188 842 189 842 b 201 833 194 839 197 836 b 319 772 233 801 271 772 b 457 836 367 772 422 806 b 490 865 469 846 481 857 b 508 879 496 871 501 875 b 524 894 514 885 519 889 b 542 936 535 907 542 919 b 482 992 542 958 522 992 b 442 976 465 992 451 985 b 379 924 431 968 406 943 b 343 896 367 913 354 903 b 321 885 332 888 324 885 b 318 886 321 885 319 885 b 310 893 317 888 313 890 b 185 954 272 924 236 954 b 32 833 111 954 32 892 b 94 774 32 810 50 774 z "},"ẞ":{"ha":828,"x_min":0,"x_max":0,"o":"m 74 13 b 142 -12 90 -7 118 -12 b 239 50 185 -12 239 6 l 239 56 b 229 310 231 140 229 225 b 263 567 229 404 232 475 b 488 881 288 646 389 881 b 535 831 517 881 535 856 b 469 707 535 794 507 750 b 361 589 433 663 389 619 b 346 550 351 576 346 564 b 407 493 346 525 365 493 l 433 493 b 650 317 569 493 650 421 b 506 146 650 238 592 146 b 435 164 482 146 458 154 b 403 176 422 169 411 174 b 374 183 393 181 383 183 b 315 129 333 183 315 156 b 347 76 315 108 326 89 b 529 36 399 50 469 36 b 789 261 714 36 789 129 b 557 590 789 418 707 542 b 718 839 653 660 718 726 b 535 997 718 931 665 997 b 168 799 399 997 242 917 b 49 269 75 639 49 442 b 74 13 49 226 53 39 z "},"–":{"ha":682,"x_min":0,"x_max":0,"o":"m 111 371 b 149 382 129 371 142 375 b 157 388 151 383 156 386 b 231 400 179 394 207 397 b 449 424 303 411 375 418 b 568 432 489 426 529 426 b 653 500 613 438 653 461 b 597 557 653 518 636 557 b 560 549 583 557 572 556 b 486 539 544 539 506 539 b 60 481 410 539 104 506 b 31 429 39 468 31 449 b 111 371 31 392 64 371 z "},"—":{"ha":1383,"x_min":0,"x_max":0,"o":"m 86 311 b 103 313 93 311 99 313 b 117 315 108 314 113 315 b 357 322 194 322 278 321 b 800 329 506 325 653 326 b 1335 385 900 329 1268 329 b 1356 428 1349 397 1356 411 b 1294 486 1356 450 1336 486 b 1272 482 1288 486 1279 485 b 1111 451 1218 458 1175 456 b 157 431 793 432 475 442 b 68 421 126 431 97 429 b 28 369 39 411 28 389 b 86 311 28 346 44 311 z "},"‘":{"ha":257,"x_min":0,"x_max":0,"o":"m 139 675 b 217 743 188 675 217 713 b 157 818 217 774 193 806 b 164 846 158 828 160 838 b 176 878 167 857 171 868 b 208 929 199 890 208 911 b 146 992 208 953 190 992 b 39 811 79 992 39 865 b 139 675 39 754 74 675 z "},"’":{"ha":267,"x_min":0,"x_max":0,"o":"m 38 754 b 101 697 38 729 60 697 b 228 865 167 697 228 804 b 207 938 228 883 221 914 b 135 988 194 963 171 988 b 64 918 88 988 64 944 b 107 851 64 896 76 865 b 82 810 101 838 86 813 b 76 808 81 810 78 808 l 68 804 b 38 754 47 793 38 772 z "},"‚":{"ha":243,"x_min":0,"x_max":0,"o":"m 1 -122 b 61 -179 1 -146 18 -179 b 101 -164 78 -179 92 -174 b 219 31 143 -121 219 -28 b 118 113 219 76 178 113 b 21 43 69 113 21 86 b 67 -28 21 15 39 -11 b 28 -74 54 -44 42 -60 b 14 -89 24 -78 18 -83 b 3 -107 10 -93 6 -100 b 1 -122 1 -111 1 -118 z "},"“":{"ha":471,"x_min":0,"x_max":0,"o":"m 38 854 b 151 711 38 810 67 711 b 235 771 196 711 235 732 b 171 826 235 797 213 826 l 163 826 b 154 851 158 835 154 844 b 163 867 154 856 157 860 b 183 889 168 874 175 881 b 215 963 199 907 215 929 b 154 1026 215 988 203 1026 b 104 997 122 1026 111 1011 b 100 978 101 990 100 983 b 97 968 99 975 97 971 b 57 917 82 949 67 933 b 38 854 44 899 38 879 z m 353 704 b 433 785 406 704 433 754 b 375 840 433 807 415 840 b 360 838 369 840 364 839 b 375 890 361 856 368 882 b 378 892 376 890 378 890 b 382 894 379 892 381 893 b 400 933 394 906 400 922 b 339 990 400 958 381 990 b 283 965 317 990 296 981 b 240 825 258 936 240 860 b 353 704 240 761 286 704 z "},"”":{"ha":440,"x_min":0,"x_max":0,"o":"m 40 738 b 104 678 40 713 60 678 b 197 885 181 678 197 832 b 185 950 197 903 196 928 b 118 994 175 974 156 994 b 53 933 74 994 53 961 b 79 886 53 919 60 897 b 63 786 79 851 72 817 b 40 738 46 774 40 750 z m 208 747 b 267 692 208 725 226 692 b 336 739 299 692 319 715 b 401 883 369 782 401 826 b 307 975 401 925 376 975 b 235 911 257 975 235 942 b 271 849 235 889 246 864 b 261 835 268 844 264 839 b 240 810 254 826 247 817 b 211 764 228 793 214 775 b 208 747 210 758 208 753 z "},"„":{"ha":463,"x_min":0,"x_max":0,"o":"m 10 -146 b 69 -197 10 -167 32 -197 b 100 -189 81 -197 90 -193 b 110 -181 103 -187 107 -183 b 119 -167 113 -176 117 -172 b 146 -132 128 -157 136 -144 b 185 -67 164 -104 181 -76 b 214 36 201 -36 214 1 b 133 131 214 69 200 131 b 24 44 72 131 24 92 b 58 -21 24 26 33 -8 b 74 -26 63 -24 69 -25 b 38 -78 64 -42 50 -60 b 10 -146 24 -101 10 -125 z m 217 -154 b 278 -211 217 -176 238 -211 b 338 -168 306 -211 326 -187 b 371 -112 353 -149 364 -125 b 436 46 400 -67 436 -10 b 360 129 436 74 418 129 b 265 54 311 129 265 92 b 297 -10 265 31 278 7 b 253 -79 288 -26 269 -53 b 217 -154 235 -108 217 -139 z "},"†":{"ha":629,"x_min":0,"x_max":0,"o":"m 21 621 b 100 564 21 578 51 564 b 222 569 140 564 181 568 b 208 124 213 421 208 272 b 208 -32 208 93 207 29 b 222 -174 210 -92 214 -153 b 239 -200 225 -181 231 -193 b 319 -226 258 -218 292 -226 b 408 -168 360 -226 408 -208 b 400 -144 408 -157 404 -151 b 396 -136 399 -142 397 -139 b 393 -128 394 -133 393 -131 b 386 119 385 -46 386 38 b 400 578 386 272 389 425 l 440 578 b 513 576 465 578 489 578 b 542 574 522 575 532 574 b 606 633 585 574 606 606 b 547 693 606 656 586 693 b 524 688 539 693 531 690 b 432 692 493 690 463 692 b 408 690 424 692 415 692 b 429 885 414 756 421 819 b 449 1017 433 926 438 974 b 458 1043 451 1025 454 1033 b 464 1074 461 1053 464 1063 b 372 1135 464 1115 415 1135 b 290 1097 343 1135 304 1125 b 288 1085 289 1093 288 1089 b 286 1075 288 1082 288 1078 b 278 1053 285 1068 281 1060 b 263 986 271 1031 267 1008 b 254 919 260 963 257 940 b 229 683 244 840 236 761 b 104 676 188 681 144 676 b 82 678 97 676 89 678 b 21 621 40 678 21 646 z "},"‡":{"ha":682,"x_min":0,"x_max":0,"o":"m 44 313 b 117 254 44 278 69 254 b 239 260 156 254 197 258 b 238 117 238 211 238 164 b 239 -42 238 88 236 22 b 261 -189 242 -104 247 -167 b 344 -228 278 -215 310 -228 b 438 -168 386 -228 438 -210 b 429 -144 438 -157 433 -151 b 425 -136 428 -142 426 -139 b 422 -128 424 -133 422 -131 b 415 108 415 -47 415 31 b 417 268 415 163 415 214 b 472 269 435 268 454 269 b 565 265 504 269 536 265 b 629 324 610 265 629 299 b 568 383 629 347 610 383 b 547 379 561 383 553 382 b 467 382 521 381 494 382 b 419 381 451 382 436 382 b 429 578 422 446 425 511 l 469 578 b 542 576 494 578 518 578 b 569 574 551 575 560 574 b 635 633 615 574 635 606 b 575 693 635 656 617 693 b 551 688 567 693 558 690 b 461 692 522 690 492 692 b 439 690 453 692 446 692 b 458 885 444 756 451 819 b 478 1017 464 926 467 972 b 488 1043 481 1026 483 1033 b 493 1074 490 1053 493 1063 b 401 1135 493 1115 444 1135 b 321 1097 371 1135 333 1125 b 317 1085 318 1093 317 1089 b 315 1075 317 1082 317 1078 b 307 1053 314 1068 310 1060 b 292 986 300 1031 296 1008 b 260 683 279 885 269 785 b 132 676 217 681 175 676 b 111 678 125 676 118 678 b 51 619 68 678 51 644 b 128 564 51 576 82 564 b 250 569 169 564 210 568 b 242 374 246 503 243 439 b 133 367 206 371 169 367 b 106 369 124 367 115 369 b 44 313 64 369 44 336 z "},"•":{"ha":300,"x_min":0,"x_max":0,"o":"m 60 331 b 65 328 61 329 63 329 b 71 325 67 328 68 328 b 131 294 85 311 100 294 b 269 393 189 294 269 344 b 161 471 269 443 221 471 b 28 385 110 471 28 438 b 60 331 28 371 35 342 z "},"…":{"ha":621,"x_min":0,"x_max":0,"o":"m 28 88 b 86 29 28 65 44 29 b 147 89 128 29 147 65 b 86 149 147 113 129 149 b 28 88 43 149 28 110 z m 258 63 b 319 8 258 40 281 8 b 376 65 358 8 376 46 b 315 121 376 90 354 121 b 258 63 274 121 258 83 z m 468 83 b 531 28 468 60 492 28 b 594 88 572 28 594 63 b 536 146 594 111 576 146 b 468 83 493 146 468 110 z "},"‰":{"ha":1361,"x_min":0,"x_max":0,"o":"m 183 67 b 271 -4 183 32 224 -4 b 328 33 304 -4 319 15 b 396 174 351 79 374 126 b 717 747 492 369 593 567 b 808 874 747 790 776 831 b 817 899 814 881 817 890 b 717 964 817 935 756 964 b 660 939 692 964 672 953 b 643 918 653 932 647 925 b 631 899 638 911 633 904 b 468 624 575 807 522 715 b 365 443 433 564 396 504 b 258 218 328 369 296 293 b 194 99 239 178 219 138 b 183 67 188 88 183 79 z m 693 -7 b 901 269 836 -7 901 147 b 790 460 901 340 882 419 b 761 471 778 465 769 469 b 731 476 751 474 743 475 b 725 478 728 476 726 478 b 719 481 724 479 722 479 b 696 485 714 482 707 485 b 524 224 561 485 524 332 b 693 -7 524 118 567 -7 z m 942 222 b 1110 -8 942 150 968 -8 b 1319 268 1250 -8 1319 147 b 1208 460 1319 339 1299 419 b 1150 475 1193 468 1172 475 b 1115 483 1139 482 1125 483 b 942 222 981 483 942 332 z m 236 514 b 460 797 396 514 460 707 b 357 999 460 860 439 960 b 289 1017 336 1008 314 1017 b 261 1014 279 1017 269 1015 l 250 1014 b 190 992 225 1014 204 1001 b 44 718 97 929 44 811 b 236 514 44 610 122 514 z m 643 226 b 683 367 643 261 651 346 b 714 360 693 363 703 360 b 725 361 718 360 722 361 b 731 363 726 363 729 363 b 768 338 743 360 761 347 b 782 264 781 317 782 288 b 694 106 782 217 754 106 b 643 226 647 106 643 194 z m 1061 226 b 1100 367 1061 260 1071 347 b 1138 360 1113 361 1126 360 b 1147 363 1139 360 1143 361 b 1186 338 1154 363 1181 346 b 1201 265 1199 319 1201 286 b 1171 150 1201 225 1192 183 b 1113 106 1158 129 1135 106 b 1061 226 1065 106 1061 193 z m 161 721 b 254 897 161 775 204 858 b 268 896 258 896 264 896 b 286 899 275 896 282 897 b 293 903 289 900 292 901 l 294 903 b 332 861 311 899 324 883 b 342 799 339 839 342 814 b 235 625 342 742 304 625 b 161 721 189 625 161 685 z "},"‹":{"ha":406,"x_min":0,"x_max":0,"o":"m 42 314 b 294 126 42 199 181 156 b 304 125 297 125 300 125 b 364 182 347 125 364 160 b 325 236 364 203 353 226 b 224 268 304 243 261 253 b 160 313 185 282 160 297 b 297 486 160 358 264 461 b 351 543 335 490 351 519 b 290 601 351 567 332 601 l 286 601 b 42 314 201 590 42 410 z "},"›":{"ha":381,"x_min":0,"x_max":0,"o":"m 72 199 b 132 140 72 175 92 140 b 308 293 178 140 283 258 b 338 390 328 322 338 360 b 193 565 338 482 267 529 b 169 575 186 569 178 572 b 150 585 161 579 154 582 b 140 592 146 588 143 589 b 131 597 138 593 135 596 b 103 601 124 600 115 601 b 39 544 57 601 39 572 b 72 494 39 525 49 506 b 118 475 85 489 101 482 b 167 451 133 468 151 460 b 219 389 199 433 219 413 b 172 313 219 367 200 340 b 93 240 146 285 114 260 b 72 199 79 228 72 215 z "},"⁄":{"ha":594,"x_min":0,"x_max":0,"o":"m -1 -50 b 58 -107 -1 -72 17 -107 b 115 -68 89 -107 108 -85 b 247 240 151 36 199 138 b 553 850 346 444 447 649 b 567 871 557 858 563 864 b 574 897 571 879 574 888 b 517 954 574 919 557 954 b 467 928 493 954 478 940 b 451 908 460 922 456 915 b 442 889 447 901 444 894 b 26 40 292 611 158 326 b -1 -50 13 4 -1 -32 z "},"€":{"ha":746,"x_min":0,"x_max":0,"o":"m 44 371 b 111 313 44 343 68 313 b 131 314 118 313 124 314 b 421 -6 158 157 243 -6 b 690 217 564 -6 656 132 b 694 239 693 224 694 232 b 633 297 694 263 674 297 b 586 272 608 297 594 283 b 579 261 583 268 582 265 b 426 115 553 204 504 115 b 282 335 324 115 292 254 b 439 356 335 342 386 349 b 490 410 476 361 490 388 b 433 467 490 431 474 467 b 347 458 415 467 381 464 b 274 449 321 456 293 451 b 276 508 274 469 275 490 b 399 521 317 514 357 517 b 463 526 419 522 442 524 b 511 583 499 531 511 564 b 456 638 511 601 497 638 l 450 638 b 289 624 396 633 342 631 b 482 889 308 724 356 889 b 539 836 519 889 539 867 b 531 786 539 819 535 803 b 521 738 525 771 521 754 b 581 683 521 714 542 683 b 656 825 647 683 656 775 b 488 1000 656 904 617 1000 b 139 614 285 1000 175 788 b 106 617 128 615 118 617 b 44 558 64 617 44 583 b 118 499 44 526 76 499 l 122 499 b 121 443 121 481 121 463 l 121 426 b 115 425 118 425 117 425 b 113 426 114 425 114 426 l 104 426 b 44 371 64 426 44 392 z "},"™":{"ha":833,"x_min":0,"x_max":0,"o":"m 143 672 b 149 638 144 660 146 649 b 207 600 156 619 178 600 b 265 654 243 600 265 633 b 260 700 265 669 261 685 b 246 908 253 769 257 839 b 278 910 254 908 267 908 b 303 911 286 910 294 910 b 322 915 310 911 317 913 b 357 967 346 925 357 947 b 292 1024 357 996 335 1024 b 142 1014 242 1024 190 1019 b 99 1008 128 1013 114 1010 l 94 1008 b 33 950 51 1008 33 974 b 94 894 33 925 53 894 b 118 897 103 894 111 896 b 126 899 121 897 124 899 b 143 672 140 824 136 746 z m 329 636 b 392 568 329 613 340 568 b 451 624 432 568 451 600 b 450 631 451 626 451 628 b 449 636 450 632 450 635 b 447 640 449 638 449 639 l 447 644 b 454 683 447 651 450 667 b 457 692 456 686 456 689 b 521 650 465 667 496 650 b 571 675 544 650 561 665 b 621 749 586 692 604 719 b 646 797 629 765 638 782 b 669 631 654 740 660 686 b 728 583 674 610 690 583 b 786 636 767 583 786 613 b 728 961 786 690 751 915 b 668 999 719 981 700 999 b 610 969 642 999 622 985 b 590 942 603 961 597 951 b 532 833 569 906 550 869 b 531 838 532 835 531 836 b 449 914 517 874 492 914 b 393 889 425 914 406 901 b 329 636 367 857 329 679 z "},"−":{"ha":554,"x_min":0,"x_max":0,"o":"m 89 325 l 94 325 b 253 339 146 329 199 335 b 449 347 318 343 383 347 l 472 347 b 529 404 514 347 529 385 b 478 458 529 424 513 456 b 451 460 469 460 461 460 b 149 444 356 460 246 453 b 113 457 139 451 126 457 b 28 401 81 457 36 422 b 25 383 26 394 25 389 b 89 325 25 358 47 325 z "}}}
